<svg width="1512" height="982" viewBox="0 0 1512 982" fill="none" xmlns="http://www.w3.org/2000/svg">
<g clip-path="url(#clip0_26_1858)">
<rect width="1512" height="982" fill="white"/>
<mask id="mask0_26_1858" style="mask-type:luminance" maskUnits="userSpaceOnUse" x="1185" y="377" width="73" height="118">
<path d="M1249.15 431.837C1250.1 428.34 1251.05 424.794 1251.51 421.19C1253.11 408.576 1249.88 393.331 1240.63 384.114C1228.44 371.973 1211.06 377.399 1198.96 386.645C1194.14 390.322 1191.24 394.877 1189.59 399.89C1188.74 401.25 1187.99 402.67 1187.39 404.144C1185.28 409.291 1184.7 415.038 1185.76 420.512C1186.37 423.685 1187.66 426.997 1189.11 429.887C1190.18 432.026 1192.16 434.197 1192.62 436.561C1193.41 440.584 1190.75 445.823 1190.02 449.773C1188.88 455.856 1189.11 462.142 1190.89 468.092C1194.42 479.871 1203.27 489.865 1215.39 493.116C1227.05 496.25 1239.87 493.564 1248.27 484.614C1256.79 475.54 1259.84 461.572 1254.6 450.056C1252.87 446.258 1248.09 442.196 1247.55 438.009C1247.34 436.31 1248.74 433.342 1249.15 431.837Z" fill="white"/>
</mask>
<g mask="url(#mask0_26_1858)">
<path d="M1222.57 494.388V494.237H1220.6V494.086H1219.24V493.935H1218.49V493.783H1217.58V493.632H1216.82V493.481H1216.07V493.33H1215.61V493.178H1215.01V493.027H1214.4V492.876H1213.95V492.725H1213.5V492.574H1213.19V492.422H1212.74V492.271H1212.29V492.12H1211.98V491.969H1211.53V491.817H1211.08V491.666H1210.77V491.515H1210.47V491.364H1210.17V491.212H1209.87V491.061H1209.56V490.91H1209.26V490.759H1208.96V490.607H1208.81V490.456H1208.51V490.305H1208.2V490.154H1207.9V490.003H1207.6V489.851H1207.3V489.7H1206.99V489.549H1206.69V489.398H1206.54V489.246H1206.24V489.095H1206.09V488.944H1205.93V488.793H1205.63V488.641H1205.48V488.49H1205.18V488.339H1205.03V488.188H1204.88V488.037H1204.57V487.885H1204.42V487.734H1204.12V487.583H1203.97V487.432H1203.67V487.28H1203.51V487.129H1203.36V486.978H1203.06V486.827H1202.91V486.675H1202.76V486.524H1202.61V486.373H1202.46V486.222H1202.3V486.07H1202.15V485.919H1202V485.768H1201.85V485.617H1201.7V485.466H1201.55V485.314H1201.25V485.163H1201.1V485.012H1200.94V484.861H1200.79V484.709H1200.64V484.558H1200.49V484.407H1200.34V484.256H1200.19V484.104H1200.04V483.953H1199.89V483.802H1199.73V483.651H1199.58V483.5H1199.43V483.348H1199.28V483.046H1199.13V482.895H1198.98V482.743H1198.83V482.592H1198.68V482.441H1198.52V482.29H1198.37V481.987H1198.22V481.836H1198.07V481.685H1197.92V481.533H1197.77V481.382H1197.62V481.08H1197.47V480.929H1197.31V480.777H1197.16V480.626H1197.01V480.475H1196.86V480.172H1196.71V480.021H1196.56V479.719H1196.41V479.567H1196.26V479.265H1196.1V479.114H1195.95V478.811H1195.8V478.509H1195.65V478.358H1195.5V478.055H1195.35V477.904H1195.2V477.601H1195.05V477.45H1194.89V477.148H1194.74V476.996H1194.59V476.694H1194.44V476.543H1194.29V476.24H1194.14V475.787H1193.99V475.484H1193.84V475.182H1193.68V474.879H1193.53V474.577H1193.38V474.274H1193.23V473.972H1193.08V473.669H1192.93V473.367H1192.78V473.064H1192.63V472.762H1192.47V472.459H1192.32V472.157H1192.17V471.703H1192.02V471.401H1191.87V470.947H1191.72V470.645H1191.57V470.191H1191.42V469.737H1191.26V469.435H1191.11V468.981H1190.96V468.376H1190.81V467.922H1190.66V467.469H1190.51V466.864H1190.36V466.108H1190.21V465.352H1190.06V464.747H1189.9V463.99H1189.75V462.781H1189.6V461.419H1189.45V459.907H1189.3V454.009H1189.45V452.648H1189.6V451.287H1189.75V450.379H1189.9V449.472H1190.06V448.867H1190.21V448.262H1190.36V447.657H1190.51V447.204H1190.66V446.599H1190.81V446.145H1190.96V445.691H1191.11V445.237H1191.26V444.633H1191.42V444.179H1191.57V443.725H1191.72V443.12H1191.87V442.667H1192.02V442.062H1192.17V441.457H1192.32V440.7H1192.47V439.793H1192.63V436.617H1192.47V436.012H1192.32V435.71H1192.17V435.256H1192.02V434.954H1191.87V434.651H1191.72V434.349H1191.57V434.046H1191.42V433.744H1191.26V433.593H1191.11V433.29H1190.96V432.988H1190.81V432.836H1190.66V432.534H1190.51V432.231H1190.36V432.08H1190.21V431.778H1190.06V431.626H1189.9V431.324H1189.75V431.022H1189.6V430.87H1189.45V430.568H1189.3V430.417H1189.15V430.114H1189V429.812H1188.85V429.509H1188.69V429.056H1188.54V428.753H1188.39V428.451H1188.24V428.148H1188.09V427.846H1187.94V427.392H1187.79V427.089H1187.64V426.636H1187.48V426.333H1187.33V425.88H1187.18V425.577H1187.03V425.123H1186.88V424.67H1186.73V424.216H1186.58V423.762H1186.43V423.309H1186.27V422.704H1186.12V422.099H1185.97V421.494H1185.82V420.889H1185.67V420.133H1185.52V419.074H1185.37V417.411H1185.22V412.874H1185.37V411.361H1185.52V410.454H1185.67V409.698H1185.82V408.79H1185.97V407.883H1186.12V407.429H1186.27V406.975H1186.43V406.371H1186.58V405.917H1186.73V405.463H1186.88V405.009H1187.03V404.556H1187.18V404.253H1187.33V403.8H1187.48V403.497H1187.64V403.195H1187.79V402.892H1187.94V402.59H1188.09V402.287H1188.24V401.985H1188.39V401.682H1188.54V401.38H1188.69V401.077H1188.85V400.775H1189V400.624H1189.15V400.321H1189.3V400.019H1189.45V399.716H1189.6V399.263H1189.75V398.809H1189.9V398.506H1190.06V398.204H1190.21V397.75H1190.36V397.448H1190.51V397.145H1190.66V396.692H1190.81V396.389H1190.96V396.087H1191.11V395.784H1191.26V395.633H1191.42V395.33H1191.57V395.028H1191.72V394.726H1191.87V394.574H1192.02V394.272H1192.17V393.969H1192.32V393.818H1192.47V393.516H1192.63V393.213H1192.78V392.911H1192.93V392.76H1193.08V392.457H1193.23V392.306H1193.38V392.155H1193.53V392.003H1193.68V391.701H1193.84V391.55H1193.99V391.398H1194.14V391.247H1194.29V391.096H1194.44V390.793H1194.59V390.642H1194.74V390.491H1194.89V390.34H1195.05V390.037H1195.2V389.886H1195.35V389.735H1195.5V389.584H1195.65V389.432H1195.8V389.281H1195.95V389.13H1196.1V388.979H1196.26V388.827H1196.41V388.676H1196.56V388.525H1196.71V388.374H1196.86V388.223H1197.01V388.071H1197.16V387.92H1197.31V387.769H1197.47V387.618H1197.62V387.466H1197.92V387.315H1198.07V387.164H1198.22V387.013H1198.37V386.861H1198.52V386.71H1198.83V386.559H1198.98V386.408H1199.13V386.256H1199.43V386.105H1199.58V385.954H1199.89V385.803H1200.04V385.652H1200.19V385.5H1200.49V385.349H1200.64V385.198H1200.94V385.047H1201.1V384.895H1201.25V384.744H1201.55V384.593H1201.85V384.442H1202V384.29H1202.3V384.139H1202.46V383.988H1202.76V383.837H1202.91V383.686H1203.21V383.534H1203.36V383.383H1203.67V383.232H1203.97V383.081H1204.12V382.929H1204.42V382.778H1204.72V382.627H1205.03V382.476H1205.18V382.324H1205.48V382.173H1205.78V382.022H1206.09V381.871H1206.39V381.719H1206.69V381.568H1206.99V381.417H1207.3V381.266H1207.6V381.115H1207.9V380.963H1208.2V380.812H1208.51V380.661H1208.81V380.51H1209.11V380.358H1209.41V380.207H1209.87V380.056H1210.17V379.905H1210.47V379.753H1210.93V379.602H1211.23V379.451H1211.68V379.3H1212.14V379.149H1212.59V378.997H1212.89V378.846H1213.34V378.695H1213.8V378.544H1214.25V378.392H1214.86V378.241H1215.46V378.09H1216.07V377.939H1216.67V377.787H1217.28V377.636H1218.18V377.485H1218.94V377.334H1220V377.182H1221.66V377.031H1225.75V377.182H1226.96V377.334H1228.17V377.485H1228.77V377.636H1229.53V377.787H1230.13V377.939H1230.74V378.09H1231.19V378.241H1231.64V378.392H1231.95V378.544H1232.4V378.695H1232.85V378.846H1233.31V378.997H1233.61V379.149H1233.91V379.3H1234.22V379.451H1234.52V379.602H1234.67V379.753H1234.97V379.905H1235.27V380.056H1235.58V380.207H1235.88V380.358H1236.18V380.51H1236.33V380.661H1236.63V380.812H1236.79V380.963H1237.09V381.115H1237.24V381.266H1237.39V381.417H1237.69V381.568H1237.84V381.719H1238.15V381.871H1238.3V382.022H1238.45V382.173H1238.75V382.324H1238.9V382.476H1239.05V382.627H1239.21V382.778H1239.36V382.929H1239.66V383.081H1239.81V383.232H1239.96V383.383H1240.11V383.534H1240.26V383.686H1240.42V383.837H1240.57V383.988H1240.72V384.139H1240.87V384.29H1241.02V384.442H1241.17V384.593H1241.32V384.744H1241.47V384.895H1241.63V385.047H1241.78V385.198H1241.93V385.5H1242.08V385.652H1242.23V385.803H1242.38V385.954H1242.53V386.105H1242.68V386.408H1242.84V386.559H1242.99V386.71H1243.14V386.861H1243.29V387.164H1243.44V387.315H1243.59V387.466H1243.74V387.618H1243.89V387.92H1244.05V388.071H1244.2V388.374H1244.35V388.525H1244.5V388.827H1244.65V389.13H1244.8V389.281H1244.95V389.584H1245.1V389.735H1245.26V390.037H1245.41V390.34H1245.56V390.491H1245.71V390.793H1245.86V390.945H1246.01V391.247H1246.16V391.55H1246.31V391.701H1246.47V392.003H1246.62V392.306H1246.77V392.608H1246.92V392.911H1247.07V393.213H1247.22V393.667H1247.37V393.969H1247.52V394.272H1247.67V394.574H1247.83V394.877H1247.98V395.179H1248.13V395.633H1248.28V395.935H1248.43V396.238H1248.58V396.54H1248.73V396.994H1248.88V397.448H1249.04V397.901H1249.19V398.355H1249.34V398.809H1249.49V399.263H1249.64V399.716H1249.79V400.321H1249.94V400.775H1250.09V401.229H1250.25V401.834H1250.4V402.438H1250.55V403.195H1250.7V403.951H1250.85V404.556H1251V405.312H1251.15V406.068H1251.3V407.127H1251.46V408.488H1251.61V409.698H1251.76V411.059H1251.91V418.469H1251.76V420.435H1251.61V421.645H1251.46V422.552H1251.3V423.46H1251.15V424.216H1251V424.972H1250.85V425.728H1250.7V426.485H1250.55V427.089H1250.4V427.694H1250.25V428.299H1250.09V428.904H1249.94V429.509H1249.79V430.114H1249.64V430.568H1249.49V431.173H1249.34V431.778H1249.19V432.383H1249.04V432.685H1248.88V433.139H1248.73V433.593H1248.58V434.046H1248.43V434.5H1248.28V434.954H1248.13V435.407H1247.98V436.012H1247.83V436.466H1247.67V438.583H1247.83V439.037H1247.98V439.642H1248.13V439.944H1248.28V440.247H1248.43V440.549H1248.58V440.852H1248.73V441.154H1248.88V441.457H1249.04V441.759H1249.19V441.91H1249.34V442.213H1249.49V442.515H1249.64V442.667H1249.79V442.969H1249.94V443.12H1250.09V443.271H1250.25V443.574H1250.4V443.725H1250.55V444.028H1250.7V444.179H1250.85V444.33H1251V444.633H1251.15V444.784H1251.3V444.935H1251.46V445.237H1251.61V445.389H1251.76V445.54H1251.91V445.842H1252.06V445.994H1252.21V446.296H1252.36V446.447H1252.51V446.599H1252.67V446.901H1252.82V447.052H1252.97V447.204H1253.12V447.506H1253.27V447.657H1253.42V447.96H1253.57V448.111H1253.72V448.413H1253.88V448.565H1254.03V448.867H1254.18V449.17H1254.33V449.472H1254.48V449.774H1254.63V450.077H1254.78V450.379H1254.93V450.682H1255.09V451.136H1255.24V451.589H1255.39V451.892H1255.54V452.345H1255.69V452.799H1255.84V453.253H1255.99V453.858H1256.14V454.311H1256.3V454.916H1256.45V455.521H1256.6V456.278H1256.75V457.034H1256.9V458.092H1257.05V459.453H1257.2V464.898H1257.05V466.41H1256.9V467.318H1256.75V468.225H1256.6V468.981H1256.45V469.586H1256.3V470.342H1256.14V470.796H1255.99V471.401H1255.84V471.855H1255.69V472.308H1255.54V472.762H1255.39V473.216H1255.24V473.669H1255.09V473.972H1254.93V474.426H1254.78V474.879H1254.63V475.182H1254.48V475.484H1254.33V475.787H1254.18V476.089H1254.03V476.392H1253.88V476.845H1253.72V477.148H1253.57V477.45H1253.42V477.601H1253.27V477.904H1253.12V478.206H1252.97V478.509H1252.82V478.811H1252.67V478.963H1252.51V479.265H1252.36V479.567H1252.21V479.719H1252.06V480.021H1251.91V480.172H1251.76V480.475H1251.61V480.626H1251.46V480.929H1251.3V481.08H1251.15V481.382H1251V481.533H1250.85V481.685H1250.7V481.987H1250.55V482.138H1250.4V482.29H1250.25V482.592H1250.09V482.743H1249.94V482.895H1249.79V483.197H1249.64V483.348H1249.49V483.5H1249.34V483.651H1249.19V483.802H1249.04V483.953H1248.88V484.256H1248.73V484.407H1248.58V484.558H1248.43V484.709H1248.28V484.861H1248.13V485.012H1247.98V485.163H1247.83V485.314H1247.67V485.466H1247.52V485.617H1247.37V485.768H1247.22V485.919H1247.07V486.07H1246.92V486.222H1246.62V486.373H1246.47V486.524H1246.31V486.675H1246.16V486.827H1246.01V486.978H1245.86V487.129H1245.56V487.28H1245.41V487.432H1245.26V487.583H1245.1V487.734H1244.95V487.885H1244.65V488.037H1244.5V488.188H1244.2V488.339H1244.05V488.49H1243.74V488.641H1243.59V488.793H1243.29V488.944H1243.14V489.095H1242.84V489.246H1242.68V489.398H1242.38V489.549H1242.23V489.7H1241.93V489.851H1241.78V490.003H1241.47V490.154H1241.32V490.305H1241.02V490.456H1240.72V490.607H1240.42V490.759H1240.11V490.91H1239.81V491.061H1239.36V491.212H1239.05V491.364H1238.75V491.515H1238.45V491.666H1238.15V491.817H1237.84V491.969H1237.54V492.12H1237.09V492.271H1236.63V492.422H1236.18V492.574H1235.73V492.725H1235.27V492.876H1234.82V493.027H1234.37V493.178H1233.76V493.33H1233.31V493.481H1232.7V493.632H1231.8V493.783H1230.89V493.935H1230.13V494.086H1229.22V494.237H1227.26V494.388" fill="url(#paint0_linear_26_1858)"/>
</g>
<path d="M1212.31 400.305C1211.97 423.685 1215.94 447.784 1218.4 471.015C1220.95 495.158 1223.78 519.271 1226.84 543.355C1227.52 548.699 1235.75 547.039 1235.05 541.711C1231.95 518.109 1229.07 494.482 1226.46 470.823C1225.18 459.228 1223.92 447.63 1222.73 436.024C1221.51 424.053 1221 411.723 1218.73 399.899C1218.06 396.374 1212.36 396.572 1212.31 400.305Z" fill="#0F8C2A"/>
<path d="M1234.38 427.54C1229.81 437.685 1224.86 447.551 1219.38 457.208C1214.9 453.188 1210.81 448.698 1205.93 445.221C1203.85 443.742 1200.83 446.299 1202.14 448.571C1206.03 455.311 1212.23 460.653 1217.41 466.39C1219.15 468.313 1222.6 468.266 1224.01 465.931C1230.92 454.5 1237.16 442.594 1242.36 430.287C1244.5 425.235 1236.58 422.651 1234.38 427.54Z" fill="#0F8C2A"/>
<path d="M72.0006 1069.22C72.0006 1069.22 210.193 936.759 442.574 917.075C792.847 887.404 864.398 824.091 1149.18 573.606C1500.84 264.299 2052.27 522.512 2052.27 522.512L1884.99 1269.91L72.0006 1069.22Z" fill="#5AA2C6"/>
<mask id="mask1_26_1858" style="mask-type:luminance" maskUnits="userSpaceOnUse" x="1265" y="394" width="111" height="230">
<path d="M1372.82 480.304C1368.98 451.187 1362.28 420.841 1336.6 403.074C1308.9 383.919 1280.74 400.374 1270.61 429.453C1260.75 457.728 1265.68 493.047 1271.99 521.57C1276.14 540.282 1282.96 557.928 1291.73 574.649C1296.74 592.711 1304.96 610.145 1319.57 618.714C1332.02 626.022 1348.33 624.46 1358.52 613.908C1369.48 602.547 1370.81 583.98 1372.87 569.146C1376.98 539.491 1376.74 509.97 1372.82 480.304Z" fill="white"/>
</mask>
<g mask="url(#mask1_26_1858)">
<path d="M1333.42 623.239V623.088H1331.76V622.937H1331V622.785H1330.1V622.634H1329.19V622.483H1328.58V622.332H1327.98V622.181H1327.37V622.029H1326.77V621.878H1326.32V621.727H1325.86V621.576H1325.41V621.424H1324.96V621.273H1324.5V621.122H1324.2V620.971H1323.75V620.819H1323.44V620.668H1323.14V620.517H1322.84V620.366H1322.38V620.214H1322.08V620.063H1321.78V619.912H1321.48V619.761H1321.17V619.61H1320.87V619.458H1320.57V619.307H1320.27V619.156H1319.96V619.005H1319.66V618.853H1319.51V618.702H1319.21V618.551H1318.91V618.4H1318.75V618.248H1318.45V618.097H1318.3V617.946H1318V617.795H1317.85V617.644H1317.54V617.492H1317.39V617.341H1317.09V617.19H1316.94V617.039H1316.64V616.887H1316.49V616.736H1316.33V616.585H1316.03V616.434H1315.88V616.282H1315.73V616.131H1315.43V615.98H1315.28V615.829H1315.12V615.677H1314.82V615.526H1314.67V615.375H1314.52V615.224H1314.22V615.073H1314.07V614.921H1313.92V614.77H1313.76V614.619H1313.61V614.468H1313.46V614.316H1313.31V614.165H1313.01V614.014H1312.86V613.863H1312.71V613.711H1312.55V613.56H1312.4V613.409H1312.25V613.258H1312.1V613.107H1311.8V612.955H1311.65V612.804H1311.5V612.502H1311.34V612.35H1311.19V612.199H1311.04V612.048H1310.89V611.897H1310.74V611.745H1310.59V611.594H1310.44V611.443H1310.29V611.292H1310.13V611.14H1309.98V610.989H1309.83V610.838H1309.68V610.687H1309.53V610.536H1309.38V610.384H1309.23V610.233H1309.08V610.082H1308.92V609.931H1308.77V609.628H1308.62V609.477H1308.47V609.326H1308.32V609.174H1308.17V609.023H1308.02V608.872H1307.87V608.721H1307.71V608.418H1307.56V608.267H1307.41V608.116H1307.26V607.965H1307.11V607.662H1306.96V607.511H1306.81V607.36H1306.66V607.057H1306.5V606.906H1306.35V606.755H1306.2V606.603H1306.05V606.301H1305.9V606.15H1305.75V605.999H1305.6V605.696H1305.45V605.545H1305.29V605.242H1305.14V605.091H1304.99V604.94H1304.84V604.637H1304.69V604.486H1304.54V604.184H1304.39V604.033H1304.24V603.73H1304.08V603.579H1303.93V603.276H1303.78V603.125H1303.63V602.823H1303.48V602.671H1303.33V602.369H1303.18V602.066H1303.03V601.915H1302.87V601.613H1302.72V601.462H1302.57V601.159H1302.42V600.857H1302.27V600.705H1302.12V600.403H1301.97V600.1H1301.82V599.949H1301.67V599.647H1301.51V599.344H1301.36V599.042H1301.21V598.739H1301.06V598.588H1300.91V598.286H1300.76V597.983H1300.61V597.681H1300.46V597.529H1300.3V597.227H1300.15V596.925H1300V596.622H1299.85V596.32H1299.7V596.017H1299.55V595.715H1299.4V595.412H1299.25V595.11H1299.09V594.807H1298.94V594.505H1298.79V594.202H1298.64V593.749H1298.49V593.446H1298.34V593.144H1298.19V592.841H1298.04V592.539H1297.88V592.085H1297.73V591.783H1297.58V591.48H1297.43V591.178H1297.28V590.724H1297.13V590.421H1296.98V590.119H1296.83V589.665H1296.67V589.363H1296.52V588.909H1296.37V588.607H1296.22V588.153H1296.07V587.851H1295.92V587.397H1295.77V587.094H1295.62V586.641H1295.46V586.187H1295.31V585.884H1295.16V585.431H1295.01V584.977H1294.86V584.675H1294.71V584.221H1294.56V583.767H1294.41V583.314H1294.25V582.86H1294.1V582.406H1293.95V581.952H1293.8V581.499H1293.65V581.045H1293.5V580.591H1293.35V580.138H1293.2V579.684H1293.04V579.23H1292.89V578.625H1292.74V578.172H1292.59V577.718H1292.44V577.264H1292.29V576.659H1292.14V576.206H1291.99V575.601H1291.83V575.147H1291.68V574.693H1291.53V574.391H1291.38V574.088H1291.23V573.786H1291.08V573.483H1290.93V573.181H1290.78V572.878H1290.63V572.576H1290.47V572.273H1290.32V571.971H1290.17V571.669H1290.02V571.366H1289.87V571.064H1289.72V570.761H1289.57V570.459H1289.42V570.156H1289.26V569.854H1289.11V569.551H1288.96V569.249H1288.81V568.946H1288.66V568.644H1288.51V568.341H1288.36V568.039H1288.21V567.736H1288.05V567.434H1287.9V567.132H1287.75V566.678H1287.6V566.375H1287.45V566.073H1287.3V565.77H1287.15V565.468H1287V565.166H1286.84V564.863H1286.69V564.561H1286.54V564.107H1286.39V563.804H1286.24V563.502H1286.09V563.199H1285.94V562.897H1285.79V562.595H1285.63V562.292H1285.48V561.838H1285.33V561.536H1285.18V561.233H1285.03V560.931H1284.88V560.477H1284.73V560.175H1284.58V559.872H1284.42V559.419H1284.27V559.116H1284.12V558.814H1283.97V558.36H1283.82V558.058H1283.67V557.755H1283.52V557.301H1283.37V556.999H1283.21V556.696H1283.06V556.243H1282.91V555.94H1282.76V555.638H1282.61V555.184H1282.46V554.882H1282.31V554.428H1282.16V554.125H1282V553.672H1281.85V553.369H1281.7V552.916H1281.55V552.613H1281.4V552.159H1281.25V551.857H1281.1V551.403H1280.95V550.95H1280.79V550.647H1280.64V550.193H1280.49V549.891H1280.34V549.437H1280.19V549.135H1280.04V548.681H1279.89V548.227H1279.74V547.774H1279.59V547.471H1279.43V547.018H1279.28V546.564H1279.13V546.11H1278.98V545.656H1278.83V545.354H1278.68V544.9H1278.53V544.447H1278.38V543.993H1278.22V543.539H1278.07V543.237H1277.92V542.783H1277.77V542.329H1277.62V541.876H1277.47V541.422H1277.32V540.968H1277.17V540.363H1277.01V539.91H1276.86V539.456H1276.71V539.002H1276.56V538.548H1276.41V538.095H1276.26V537.641H1276.11V537.036H1275.96V536.582H1275.8V536.129H1275.65V535.675H1275.5V535.221H1275.35V534.616H1275.2V534.011H1275.05V533.558H1274.9V532.953H1274.75V532.499H1274.59V531.894H1274.44V531.44H1274.29V530.836H1274.14V530.231H1273.99V529.777H1273.84V529.172H1273.69V528.718H1273.54V528.113H1273.38V527.508H1273.23V526.903H1273.08V526.299H1272.93V525.694H1272.78V524.937H1272.63V524.333H1272.48V523.728H1272.33V523.123H1272.17V522.518H1272.02V521.762H1271.87V521.157H1271.72V520.4H1271.57V519.644H1271.42V519.039H1271.27V518.283H1271.12V517.527H1270.96V516.922H1270.81V516.166H1270.66V515.41H1270.51V514.654H1270.36V513.897H1270.21V513.141H1270.06V512.385H1269.91V511.629H1269.75V510.873H1269.6V510.117H1269.45V509.209H1269.3V508.453H1269.15V507.546H1269V506.789H1268.85V505.882H1268.7V505.126H1268.55V504.218H1268.39V503.311H1268.24V502.404H1268.09V501.496H1267.94V500.438H1267.79V499.53H1267.64V498.623H1267.49V497.564H1267.34V496.506H1267.18V495.447H1267.03V494.388H1266.88V493.33H1266.73V491.969H1266.58V490.759H1266.43V489.549H1266.28V488.188H1266.13V486.827H1265.97V485.163H1265.82V483.651H1265.67V481.987H1265.52V479.87H1265.37V477.601H1265.22V474.879H1265.07V470.342H1264.92V462.932H1265.07V459.302H1265.22V456.58H1265.37V454.765H1265.52V452.95H1265.67V451.287H1265.82V450.228H1265.97V449.018H1266.13V447.96H1266.28V446.75H1266.43V445.691H1266.58V444.935H1266.73V444.028H1266.88V443.271H1267.03V442.364H1267.18V441.608H1267.34V440.852H1267.49V440.096H1267.64V439.491H1267.79V438.734H1267.94V438.13H1268.09V437.525H1268.24V436.92H1268.39V436.315H1268.55V435.71H1268.7V435.105H1268.85V434.5H1269V434.046H1269.15V433.441H1269.3V432.988H1269.45V432.534H1269.6V431.929H1269.75V431.475H1269.91V431.022H1270.06V430.568H1270.21V430.114H1270.36V429.66H1270.51V429.207H1270.66V428.753H1270.81V428.451H1270.96V427.997H1271.12V427.543H1271.27V427.241H1271.42V426.787H1271.57V426.485H1271.72V426.031H1271.87V425.728H1272.02V425.426H1272.17V424.972H1272.33V424.67H1272.48V424.216H1272.63V423.914H1272.78V423.611H1272.93V423.309H1273.08V423.006H1273.23V422.704H1273.38V422.401H1273.54V422.099H1273.69V421.645H1273.84V421.343H1273.99V421.191H1274.14V420.889H1274.29V420.586H1274.44V420.284H1274.59V419.982H1274.75V419.679H1274.9V419.377H1275.05V419.074H1275.2V418.923H1275.35V418.62H1275.5V418.318H1275.65V418.167H1275.8V417.864H1275.96V417.562H1276.11V417.411H1276.26V417.108H1276.41V416.806H1276.56V416.654H1276.71V416.352H1276.86V416.201H1277.01V415.898H1277.17V415.747H1277.32V415.445H1277.47V415.142H1277.62V414.991H1277.77V414.688H1277.92V414.537H1278.07V414.386H1278.22V414.083H1278.38V413.932H1278.53V413.63H1278.68V413.478H1278.83V413.327H1278.98V413.025H1279.13V412.874H1279.28V412.722H1279.43V412.42H1279.59V412.269H1279.74V412.117H1279.89V411.815H1280.04V411.664H1280.19V411.512H1280.34V411.361H1280.49V411.059H1280.64V410.908H1280.79V410.756H1280.95V410.605H1281.1V410.303H1281.25V410.151H1281.4V410H1281.55V409.849H1281.7V409.698H1281.85V409.546H1282V409.395H1282.16V409.093H1282.31V408.941H1282.46V408.79H1282.61V408.639H1282.76V408.488H1282.91V408.337H1283.06V408.185H1283.21V408.034H1283.37V407.883H1283.52V407.732H1283.67V407.58H1283.82V407.429H1283.97V407.278H1284.12V407.127H1284.27V406.975H1284.42V406.824H1284.58V406.673H1284.73V406.522H1284.88V406.371H1285.03V406.219H1285.18V406.068H1285.33V405.917H1285.48V405.766H1285.63V405.614H1285.79V405.463H1285.94V405.312H1286.09V405.161H1286.24V405.009H1286.54V404.858H1286.69V404.707H1286.84V404.556H1287V404.404H1287.15V404.253H1287.45V404.102H1287.6V403.951H1287.75V403.8H1287.9V403.648H1288.05V403.497H1288.36V403.346H1288.51V403.195H1288.66V403.043H1288.81V402.892H1289.11V402.741H1289.26V402.59H1289.57V402.438H1289.72V402.287H1289.87V402.136H1290.17V401.985H1290.32V401.834H1290.47V401.682H1290.78V401.531H1290.93V401.38H1291.23V401.229H1291.38V401.077H1291.68V400.926H1291.99V400.775H1292.14V400.624H1292.44V400.472H1292.59V400.321H1292.89V400.17H1293.2V400.019H1293.35V399.867H1293.65V399.716H1293.95V399.565H1294.25V399.414H1294.41V399.263H1294.71V399.111H1295.01V398.96H1295.31V398.809H1295.62V398.658H1295.92V398.506H1296.22V398.355H1296.52V398.204H1296.83V398.053H1297.28V397.901H1297.58V397.75H1298.04V397.599H1298.34V397.448H1298.64V397.297H1299.09V397.145H1299.4V396.994H1299.85V396.843H1300.3V396.692H1300.76V396.54H1301.21V396.389H1301.67V396.238H1302.27V396.087H1302.87V395.935H1303.33V395.784H1303.93V395.633H1304.69V395.482H1305.45V395.33H1306.2V395.179H1307.26V395.028H1308.47V394.877H1310.59V394.726H1313.92V394.877H1316.18V395.028H1317.24V395.179H1318.3V395.33H1319.21V395.482H1319.81V395.633H1320.57V395.784H1321.33V395.935H1321.78V396.087H1322.38V396.238H1322.99V396.389H1323.44V396.54H1323.9V396.692H1324.35V396.843H1324.8V396.994H1325.26V397.145H1325.71V397.297H1326.16V397.448H1326.47V397.599H1326.92V397.75H1327.22V397.901H1327.53V398.053H1327.98V398.204H1328.28V398.355H1328.58V398.506H1329.04V398.658H1329.34V398.809H1329.64V398.96H1329.95V399.111H1330.25V399.263H1330.55V399.414H1330.85V399.565H1331.16V399.716H1331.46V399.867H1331.76V400.019H1331.91V400.17H1332.21V400.321H1332.52V400.472H1332.82V400.624H1332.97V400.775H1333.27V400.926H1333.58V401.077H1333.88V401.229H1334.03V401.38H1334.33V401.531H1334.48V401.682H1334.79V401.834H1335.09V401.985H1335.24V402.136H1335.54V402.287H1335.69V402.438H1336V402.59H1336.15V402.741H1336.45V402.892H1336.6V403.043H1336.9V403.195H1337.05V403.346H1337.36V403.497H1337.51V403.648H1337.66V403.8H1337.96V403.951H1338.11V404.102H1338.26V404.253H1338.57V404.404H1338.72V404.556H1338.87V404.707H1339.17V404.858H1339.32V405.009H1339.47V405.161H1339.62V405.312H1339.93V405.463H1340.08V405.614H1340.23V405.766H1340.53V405.917H1340.68V406.068H1340.83V406.219H1340.99V406.371H1341.29V406.522H1341.44V406.673H1341.59V406.824H1341.74V406.975H1341.89V407.127H1342.04V407.278H1342.2V407.429H1342.35V407.58H1342.65V407.732H1342.8V407.883H1342.95V408.034H1343.1V408.185H1343.25V408.337H1343.41V408.488H1343.56V408.639H1343.71V408.79H1343.86V408.941H1344.16V409.093H1344.31V409.244H1344.46V409.395H1344.62V409.546H1344.77V409.698H1344.92V409.849H1345.07V410H1345.22V410.151H1345.52V410.454H1345.67V410.605H1345.83V410.756H1345.98V410.908H1346.13V411.059H1346.28V411.21H1346.43V411.361H1346.58V411.512H1346.73V411.664H1346.88V411.815H1347.04V411.966H1347.19V412.117H1347.34V412.269H1347.49V412.42H1347.64V412.571H1347.79V412.722H1347.94V413.025H1348.09V413.176H1348.24V413.327H1348.4V413.478H1348.55V413.63H1348.7V413.781H1348.85V413.932H1349V414.083H1349.15V414.235H1349.3V414.386H1349.45V414.537H1349.61V414.84H1349.76V414.991H1349.91V415.142H1350.06V415.293H1350.21V415.596H1350.36V415.747H1350.51V415.898H1350.66V416.049H1350.82V416.352H1350.97V416.503H1351.12V416.654H1351.27V416.806H1351.42V417.108H1351.57V417.259H1351.72V417.411H1351.87V417.562H1352.03V417.864H1352.18V418.015H1352.33V418.167H1352.48V418.318H1352.63V418.62H1352.78V418.772H1352.93V419.074H1353.08V419.225H1353.24V419.528H1353.39V419.679H1353.54V419.83H1353.69V420.133H1353.84V420.284H1353.99V420.586H1354.14V420.738H1354.29V421.04H1354.45V421.191H1354.6V421.494H1354.75V421.645H1354.9V421.948H1355.05V422.099H1355.2V422.401H1355.35V422.552H1355.5V422.704H1355.66V423.006H1355.81V423.309H1355.96V423.46H1356.11V423.762H1356.26V424.065H1356.41V424.367H1356.56V424.519H1356.71V424.821H1356.87V425.123H1357.02V425.275H1357.17V425.577H1357.32V425.88H1357.47V426.031H1357.62V426.333H1357.77V426.636H1357.92V426.938H1358.08V427.089H1358.23V427.392H1358.38V427.694H1358.53V427.997H1358.68V428.299H1358.83V428.602H1358.98V428.904H1359.13V429.207H1359.29V429.509H1359.44V429.812H1359.59V430.114H1359.74V430.417H1359.89V430.719H1360.04V431.022H1360.19V431.324H1360.34V431.626H1360.49V431.929H1360.65V432.231H1360.8V432.534H1360.95V432.836H1361.1V433.139H1361.25V433.593H1361.4V433.895H1361.55V434.197H1361.7V434.651H1361.86V434.954H1362.01V435.256H1362.16V435.71H1362.31V436.012H1362.46V436.315H1362.61V436.617H1362.76V437.071H1362.91V437.373H1363.07V437.827H1363.22V438.281H1363.37V438.583H1363.52V439.037H1363.67V439.491H1363.82V439.793H1363.97V440.247H1364.12V440.7H1364.28V441.154H1364.43V441.457H1364.58V441.91H1364.73V442.364H1364.88V442.818H1365.03V443.271H1365.18V443.725H1365.33V444.179H1365.49V444.633H1365.64V445.086H1365.79V445.691H1365.94V446.145H1366.09V446.599H1366.24V447.052H1366.39V447.506H1366.54V448.111H1366.7V448.565H1366.85V449.17H1367V449.774H1367.15V450.228H1367.3V450.833H1367.45V451.438H1367.6V451.892H1367.75V452.497H1367.91V453.102H1368.06V453.707H1368.21V454.311H1368.36V455.068H1368.51V455.673H1368.66V456.278H1368.81V456.882H1368.96V457.639H1369.12V458.244H1369.27V459H1369.42V459.756H1369.57V460.512H1369.72V461.117H1369.87V461.873H1370.02V462.629H1370.17V463.385H1370.33V464.293H1370.48V465.049H1370.63V465.956H1370.78V466.864H1370.93V467.62H1371.08V468.527H1371.23V469.435H1371.38V470.342H1371.53V471.401H1371.69V472.308H1371.84V473.367H1371.99V474.274H1372.14V475.333H1372.29V476.392H1372.44V477.45H1372.59V478.509H1372.74V479.719H1372.9V480.777H1373.05V481.987H1373.2V483.046H1373.35V484.407H1373.5V485.768H1373.65V487.129H1373.8V488.49H1373.95V489.851H1374.11V491.212H1374.26V493.027H1374.41V494.842H1374.56V496.506H1374.71V498.32H1374.86V500.135H1375.01V501.95H1375.16V504.521H1375.32V507.394H1375.47V510.268H1375.62V513.141H1375.77V520.249H1375.92V530.533H1375.77V537.339H1375.62V540.514H1375.47V543.539H1375.32V546.564H1375.16V548.53H1375.01V550.345H1374.86V552.159H1374.71V553.974H1374.56V555.638H1374.41V557.453H1374.26V558.965H1374.11V560.326H1373.95V561.687H1373.8V562.897H1373.65V564.258H1373.5V565.619H1373.35V566.829H1373.2V567.888H1373.05V568.946H1372.9V570.156H1372.74V571.215H1372.59V572.425H1372.44V573.483H1372.29V574.693H1372.14V575.903H1371.99V576.962H1371.84V578.172H1371.69V579.23H1371.53V580.289H1371.38V581.347H1371.23V582.255H1371.08V583.314H1370.93V584.221H1370.78V585.128H1370.63V585.884H1370.48V586.792H1370.33V587.548H1370.17V588.304H1370.02V589.06H1369.87V589.968H1369.72V590.573H1369.57V591.178H1369.42V591.934H1369.27V592.539H1369.12V593.144H1368.96V593.749H1368.81V594.354H1368.66V594.807H1368.51V595.412H1368.36V596.017H1368.21V596.471H1368.06V596.925H1367.91V597.378H1367.75V597.832H1367.6V598.286H1367.45V598.891H1367.3V599.193H1367.15V599.647H1367V600.1H1366.85V600.403H1366.7V600.857H1366.54V601.31H1366.39V601.613H1366.24V602.066H1366.09V602.369H1365.94V602.671H1365.79V602.974H1365.64V603.428H1365.49V603.73H1365.33V604.033H1365.18V604.335H1365.03V604.637H1364.88V604.94H1364.73V605.242H1364.58V605.545H1364.43V605.847H1364.28V606.15H1364.12V606.452H1363.97V606.755H1363.82V607.057H1363.67V607.208H1363.52V607.511H1363.37V607.813H1363.22V607.965H1363.07V608.267H1362.91V608.418H1362.76V608.721H1362.61V609.023H1362.46V609.174H1362.31V609.477H1362.16V609.628H1362.01V609.931H1361.86V610.082H1361.7V610.233H1361.55V610.536H1361.4V610.687H1361.25V610.838H1361.1V611.14H1360.95V611.292H1360.8V611.443H1360.65V611.745H1360.49V611.897H1360.34V612.048H1360.19V612.199H1360.04V612.502H1359.89V612.653H1359.74V612.804H1359.59V612.955H1359.44V613.107H1359.29V613.258H1359.13V613.56H1358.98V613.711H1358.83V613.863H1358.68V614.014H1358.53V614.165H1358.38V614.316H1358.23V614.468H1358.08V614.619H1357.92V614.77H1357.77V614.921H1357.62V615.073H1357.32V615.224H1357.17V615.375H1357.02V615.526H1356.87V615.677H1356.71V615.829H1356.56V615.98H1356.41V616.131H1356.11V616.282H1355.96V616.434H1355.81V616.585H1355.66V616.736H1355.35V616.887H1355.2V617.039H1355.05V617.19H1354.9V617.341H1354.6V617.492H1354.45V617.644H1354.14V617.795H1353.99V617.946H1353.69V618.097H1353.54V618.248H1353.24V618.4H1353.08V618.551H1352.78V618.702H1352.63V618.853H1352.33V619.005H1352.03V619.156H1351.72V619.307H1351.57V619.458H1351.27V619.61H1350.97V619.761H1350.66V619.912H1350.36V620.063H1350.06V620.214H1349.76V620.366H1349.45V620.517H1349V620.668H1348.7V620.819H1348.4V620.971H1347.94V621.122H1347.64V621.273H1347.19V621.424H1346.73V621.576H1346.28V621.727H1345.83V621.878H1345.37V622.029H1344.92V622.181H1344.31V622.332H1343.71V622.483H1343.1V622.634H1342.35V622.785H1341.44V622.937H1340.38V623.088H1338.87V623.239" fill="url(#paint1_linear_26_1858)"/>
</g>
<path d="M1336.35 568.94C1331.28 523.846 1327.52 477.287 1317.41 432.998C1316.22 427.822 1307.73 428.862 1308.05 434.264C1310.76 479.977 1318.72 525.668 1323.51 571.226C1328.31 616.98 1332.34 662.816 1335.65 708.701C1336.28 717.55 1350.18 717.6 1349.5 708.701C1345.93 662.038 1341.58 615.446 1336.35 568.94Z" fill="#0F8C2A"/>
<path d="M1339.3 499.586C1335.8 507.342 1332.05 514.834 1327.83 522.111C1316.96 504.922 1302.78 490.937 1287.73 476.891C1285.64 474.943 1282.75 476.924 1283.2 479.53C1284.98 489.891 1294.06 497.04 1300.35 504.923C1308.78 515.478 1315.58 526.948 1321.68 538.975C1324.18 543.905 1330.85 542.956 1333.57 538.975C1340.9 528.248 1347.13 516.992 1351.86 504.883C1354.67 497.693 1342.5 492.491 1339.3 499.586Z" fill="#0F8C2A"/>
<path d="M76.4999 1185.12C76.4999 1185.12 210.977 1197.35 380.601 1058.29C550.225 919.227 674.005 709.87 1095.77 697.645C1465.59 686.927 1667.3 465.367 1667.3 465.367L1619.92 1120.94L99.4223 1226.38L76.4999 1185.12Z" fill="#387CA0"/>
<mask id="mask2_26_1858" style="mask-type:luminance" maskUnits="userSpaceOnUse" x="928" y="570" width="156" height="350">
<path d="M1079.23 757.483C1084.68 743.423 1085.24 727.884 1080.51 713.51C1075.74 699.03 1065.3 689.95 1056.41 678.188C1051.4 671.563 1049.2 665.202 1050.55 656.889C1051.82 649.018 1054.92 641.581 1055.86 633.63C1057.87 616.615 1050.59 600.618 1038.93 588.511C1027.51 576.656 1009.85 566.8 993.128 572.555C961.501 583.438 954.833 620.626 964.333 649.053C965.312 654.009 965.833 659.012 964.528 663.992C962.538 671.591 957.231 677.901 952.288 683.788C942.379 695.589 932.007 708.004 929.315 723.697C928.098 730.792 928.518 738.164 931.039 744.94C934.076 753.102 940.016 759.895 942.66 768.199C948.074 785.198 941.444 804.695 940.588 822.034C939.053 853.177 950.017 883.556 975.21 902.957C986.599 911.729 1000.67 918.932 1015.3 919.384C1031.34 919.879 1042.86 910.153 1052 897.977C1061.41 885.432 1069.8 871.661 1073.6 856.29C1077.76 839.447 1073.92 823.256 1070.91 806.614C1069.46 798.561 1068.27 790.104 1069.74 781.968C1071.31 773.275 1076.08 765.631 1079.23 757.483Z" fill="white"/>
</mask>
<g mask="url(#mask2_26_1858)">
<path d="M1014.17 919.505V919.354H1012.51V919.203H1011.15V919.052H1009.78V918.901H1008.88V918.749H1008.12V918.598H1007.37V918.447H1006.61V918.296H1005.85V918.144H1005.1V917.993H1004.34V917.842H1003.89V917.691H1003.28V917.539H1002.83V917.388H1002.22V917.237H1001.77V917.086H1001.32V916.935H1000.71V916.783H1000.26V916.632H999.652V916.481H999.198V916.33H998.745V916.178H998.442V916.027H997.989V915.876H997.686V915.725H997.232V915.573H996.93V915.422H996.476V915.271H996.023V915.12H995.72V914.968H995.266V914.817H994.964V914.666H994.51V914.515H994.208V914.364H993.754V914.212H993.452V914.061H993.149V913.91H992.847V913.759H992.544V913.607H992.242V913.456H991.939V913.305H991.637V913.154H991.334V913.002H991.032V912.851H990.729V912.7H990.276V912.549H989.973V912.398H989.671V912.246H989.368V912.095H989.066V911.944H988.763V911.793H988.461V911.641H988.31V911.49H988.007V911.339H987.705V911.188H987.402V911.036H987.251V910.885H986.949V910.734H986.646V910.583H986.344V910.431H986.192V910.28H985.89V910.129H985.587V909.978H985.285V909.827H984.982V909.675H984.831V909.524H984.529V909.373H984.226V909.222H984.075V909.07H983.773V908.919H983.47V908.768H983.319V908.617H983.016V908.465H982.865V908.314H982.563V908.163H982.412V908.012H982.109V907.861H981.958V907.709H981.655V907.558H981.504V907.407H981.202V907.256H981.05V907.104H980.748V906.953H980.445V906.802H980.294V906.651H979.992V906.499H979.841V906.348H979.538V906.197H979.387V906.046H979.084V905.894H978.933V905.743H978.782V905.592H978.479V905.441H978.328V905.29H978.026V905.138H977.875V904.987H977.723V904.836H977.421V904.685H977.27V904.533H976.967V904.382H976.816V904.231H976.665V904.08H976.362V903.928H976.211V903.777H976.06V903.626H975.757V903.475H975.606V903.324H975.455V903.172H975.152V903.021H975.001V902.87H974.85V902.719H974.699V902.567H974.396V902.416H974.245V902.265H974.094V902.114H973.791V901.962H973.64V901.811H973.489V901.66H973.338V901.509H973.186V901.357H972.884V901.206H972.733V901.055H972.581V900.904H972.43V900.753H972.279V900.601H972.128V900.45H971.825V900.299H971.674V900.148H971.523V899.996H971.371V899.845H971.22V899.694H970.918V899.543H970.767V899.391H970.615V899.24H970.464V899.089H970.313V898.938H970.162V898.787H970.01V898.635H969.859V898.484H969.708V898.333H969.557V898.182H969.405V898.03H969.254V897.879H969.103V897.728H968.801V897.577H968.649V897.425H968.498V897.274H968.347V897.123H968.196V896.972H968.044V896.82H967.893V896.669H967.742V896.518H967.591V896.367H967.439V896.216H967.288V896.064H967.137V895.913H966.986V895.762H966.834V895.611H966.683V895.459H966.532V895.308H966.381V895.157H966.23V895.006H966.078V894.854H965.927V894.703H965.776V894.552H965.625V894.401H965.473V894.25H965.322V894.098H965.171V893.947H965.02V893.796H964.868V893.645H964.717V893.342H964.566V893.191H964.415V893.04H964.264V892.888H964.112V892.737H963.961V892.586H963.81V892.435H963.659V892.283H963.507V892.132H963.356V891.981H963.205V891.83H963.054V891.527H962.902V891.376H962.751V891.225H962.6V891.074H962.449V890.922H962.297V890.771H962.146V890.62H961.995V890.317H961.844V890.166H961.693V890.015H961.541V889.864H961.39V889.561H961.239V889.41H961.088V889.259H960.936V889.108H960.785V888.805H960.634V888.654H960.483V888.503H960.331V888.351H960.18V888.049H960.029V887.898H959.878V887.746H959.727V887.595H959.575V887.293H959.424V887.142H959.273V886.99H959.122V886.839H958.97V886.537H958.819V886.385H958.668V886.234H958.517V885.932H958.365V885.78H958.214V885.478H958.063V885.327H957.912V885.024H957.76V884.873H957.609V884.722H957.458V884.419H957.307V884.268H957.156V883.966H957.004V883.814H956.853V883.512H956.702V883.361H956.551V883.209H956.399V882.907H956.248V882.756H956.097V882.453H955.946V882.302H955.794V882H955.643V881.848H955.492V881.546H955.341V881.395H955.19V881.092H955.038V880.79H954.887V880.639H954.736V880.336H954.585V880.034H954.433V879.882H954.282V879.58H954.131V879.277H953.98V879.126H953.828V878.824H953.677V878.521H953.526V878.37H953.375V878.068H953.223V877.916H953.072V877.614H952.921V877.311H952.77V877.16H952.619V876.858H952.467V876.555H952.316V876.253H952.165V875.95H952.014V875.648H951.862V875.345H951.711V875.043H951.56V874.74H951.409V874.438H951.257V874.135H951.106V873.984H950.955V873.682H950.804V873.379H950.653V873.077H950.501V872.774H950.35V872.472H950.199V872.169H950.048V871.867H949.896V871.565H949.745V871.111H949.594V870.808H949.443V870.506H949.291V870.203H949.14V869.75H948.989V869.447H948.838V869.145H948.686V868.842H948.535V868.389H948.384V868.086H948.233V867.784H948.082V867.481H947.93V867.028H947.779V866.725H947.628V866.271H947.477V865.969H947.325V865.515H947.174V865.061H947.023V864.759H946.872V864.305H946.72V863.852H946.569V863.549H946.418V863.095H946.267V862.642H946.116V862.339H945.964V861.886H945.813V861.432H945.662V860.978H945.511V860.373H945.359V859.92H945.208V859.466H945.057V859.012H944.906V858.558H944.754V857.954H944.603V857.5H944.452V857.046H944.301V856.592H944.149V855.987H943.998V855.383H943.847V854.778H943.696V854.173H943.545V853.568H943.393V852.963H943.242V852.358H943.091V851.753H942.94V851.148H942.788V850.392H942.637V849.636H942.486V848.728H942.335V847.972H942.183V847.216H942.032V846.309H941.881V845.552H941.73V844.645H941.579V843.435H941.427V842.225H941.276V841.167H941.125V839.957H940.974V838.444H940.822V836.478H940.671V834.664H940.52V830.58H940.369V823.321H940.52V820.599H940.671V818.633H940.822V817.121H940.974V815.608H941.125V814.247H941.276V813.037H941.427V811.827H941.579V810.769H941.73V809.71H941.881V808.651H942.032V807.593H942.183V806.534H942.335V805.627H942.486V804.568H942.637V803.51H942.788V802.451H942.94V801.543H943.091V800.485H943.242V799.275H943.393V798.216H943.545V797.158H943.696V795.948H943.847V794.738H943.998V793.226H944.149V791.865H944.301V790.05H944.452V788.084H944.603V779.01H944.452V777.195H944.301V775.985H944.149V774.775H943.998V773.868H943.847V773.112H943.696V772.355H943.545V771.599H943.393V770.994H943.242V770.389H943.091V769.784H942.94V769.18H942.788V768.726H942.637V768.272H942.486V767.667H942.335V767.365H942.183V766.911H942.032V766.457H941.881V766.155H941.73V765.701H941.579V765.399H941.427V764.945H941.276V764.643H941.125V764.34H940.974V764.038H940.822V763.735H940.671V763.433H940.52V763.13H940.369V762.677H940.217V762.374H940.066V762.072H939.915V761.769H939.764V761.618H939.612V761.315H939.461V761.013H939.31V760.71H939.159V760.408H939.008V760.106H938.856V759.803H938.705V759.501H938.554V759.349H938.403V759.047H938.251V758.744H938.1V758.442H937.949V758.291H937.798V757.988H937.646V757.686H937.495V757.383H937.344V757.232H937.193V756.93H937.042V756.627H936.89V756.476H936.739V756.173H936.588V755.871H936.437V755.569H936.285V755.417H936.134V755.115H935.983V754.812H935.832V754.661H935.68V754.359H935.529V754.056H935.378V753.754H935.227V753.603H935.075V753.3H934.924V752.998H934.773V752.695H934.622V752.393H934.471V752.241H934.319V751.939H934.168V751.636H934.017V751.334H933.866V751.032H933.714V750.88H933.563V750.578H933.412V750.275H933.261V749.973H933.109V749.67H932.958V749.368H932.807V749.066H932.656V748.763H932.505V748.461H932.353V748.158H932.202V747.856H932.051V747.402H931.9V747.099H931.748V746.797H931.597V746.343H931.446V746.041H931.295V745.738H931.143V745.285H930.992V744.831H930.841V744.529H930.69V744.075H930.538V743.621H930.387V743.016H930.236V742.562H930.085V741.958H929.934V741.353H929.782V740.748H929.631V740.143H929.48V739.387H929.329V738.328H929.177V737.269H929.026V736.211H928.875V735.152H928.724V729.708H928.572V728.951H928.724V727.288H928.875V725.624H929.026V724.414H929.177V723.507H929.329V722.6H929.48V721.844H929.631V721.39H929.782V720.785H929.934V720.18H930.085V719.575H930.236V718.97H930.387V718.365H930.538V717.76H930.69V717.458H930.841V717.004H930.992V716.55H931.143V716.097H931.295V715.794H931.446V715.34H931.597V714.887H931.748V714.433H931.9V714.131H932.051V713.677H932.202V713.223H932.353V712.77H932.505V712.467H932.656V712.165H932.807V711.711H932.958V711.408H933.109V711.106H933.261V710.803H933.412V710.501H933.563V710.199H933.714V709.896H933.866V709.594H934.017V709.291H934.168V708.989H934.319V708.686H934.471V708.384H934.622V707.93H934.773V707.628H934.924V707.325H935.075V707.023H935.227V706.871H935.378V706.569H935.529V706.266H935.68V706.115H935.832V705.813H935.983V705.51H936.134V705.359H936.285V705.057H936.437V704.754H936.588V704.452H936.739V704.3H936.89V703.998H937.042V703.696H937.193V703.544H937.344V703.242H937.495V702.939H937.646V702.788H937.798V702.486H937.949V702.183H938.1V702.032H938.251V701.729H938.403V701.578H938.554V701.276H938.705V701.125H938.856V700.822H939.008V700.671H939.159V700.368H939.31V700.217H939.461V699.915H939.612V699.763H939.764V699.461H939.915V699.31H940.066V699.159H940.217V698.856H940.369V698.705H940.52V698.402H940.671V698.251H940.822V697.949H940.974V697.797H941.125V697.495H941.276V697.344H941.427V697.192H941.579V696.89H941.73V696.739H941.881V696.588H942.032V696.285H942.183V696.134H942.335V695.983H942.486V695.68H942.637V695.529H942.788V695.378H942.94V695.075H943.091V694.924H943.242V694.773H943.393V694.47H943.545V694.319H943.696V694.168H943.847V693.865H943.998V693.714H944.149V693.563H944.301V693.26H944.452V693.109H944.603V692.958H944.754V692.655H944.906V692.504H945.057V692.353H945.208V692.202H945.359V691.899H945.511V691.748H945.662V691.597H945.813V691.446H945.964V691.143H946.116V690.992H946.267V690.841H946.418V690.689H946.569V690.387H946.72V690.236H946.872V690.085H947.023V689.933H947.174V689.782H947.325V689.48H947.477V689.328H947.628V689.177H947.779V689.026H947.93V688.723H948.082V688.572H948.233V688.421H948.384V688.27H948.535V687.967H948.686V687.816H948.838V687.665H948.989V687.514H949.14V687.362H949.291V687.06H949.443V686.909H949.594V686.757H949.745V686.606H949.896V686.455H950.048V686.152H950.199V686.001H950.35V685.85H950.501V685.699H950.653V685.548H950.804V685.245H950.955V685.094H951.106V684.943H951.257V684.791H951.409V684.64H951.56V684.338H951.711V684.186H951.862V684.035H952.014V683.884H952.165V683.733H952.316V683.43H952.467V683.279H952.619V683.128H952.77V682.977H952.921V682.825H953.072V682.523H953.223V682.372H953.375V682.22H953.526V682.069H953.677V681.918H953.828V681.615H953.98V681.464H954.131V681.313H954.282V681.162H954.433V681.011H954.585V680.708H954.736V680.557H954.887V680.406H955.038V680.254H955.19V679.952H955.341V679.801H955.492V679.649H955.643V679.498H955.794V679.347H955.946V679.044H956.097V678.893H956.248V678.742H956.399V678.44H956.551V678.288H956.702V678.137H956.853V677.835H957.004V677.683H957.156V677.532H957.307V677.381H957.458V677.078H957.609V676.927H957.76V676.776H957.912V676.474H958.063V676.322H958.214V676.02H958.365V675.869H958.517V675.717H958.668V675.415H958.819V675.264H958.97V674.961H959.122V674.81H959.273V674.659H959.424V674.356H959.575V674.054H959.727V673.903H959.878V673.6H960.029V673.449H960.18V673.146H960.331V672.995H960.483V672.693H960.634V672.39H960.785V672.239H960.936V671.937H961.088V671.634H961.239V671.332H961.39V671.18H961.541V670.878H961.693V670.575H961.844V670.273H961.995V669.97H962.146V669.668H962.297V669.366H962.449V669.063H962.6V668.761H962.751V668.458H962.902V668.004H963.054V667.702H963.205V667.4H963.356V666.946H963.507V666.643H963.659V666.19H963.81V665.736H963.961V665.282H964.112V664.829H964.264V664.375H964.415V663.77H964.566V663.165H964.717V662.258H964.868V661.35H965.02V660.292H965.171V655.301H965.02V653.486H964.868V652.276H964.717V651.369H964.566V650.31H964.415V649.554H964.264V648.949H964.112V648.495H963.961V648.042H963.81V647.588H963.659V646.983H963.507V646.378H963.356V645.924H963.205V645.319H963.054V644.866H962.902V644.261H962.751V643.807H962.6V643.051H962.449V642.295H962.297V641.69H962.146V640.934H961.995V640.178H961.844V639.573H961.693V638.816H961.541V638.06H961.39V637.002H961.239V635.943H961.088V634.884H960.936V633.826H960.785V632.616H960.634V630.65H960.483V628.381H960.331V620.215H960.483V618.551H960.634V616.736H960.785V615.073H960.936V614.165H961.088V613.409H961.239V612.502H961.39V611.594H961.541V610.687H961.693V609.78H961.844V609.175H961.995V608.57H962.146V607.965H962.297V607.36H962.449V606.906H962.6V606.301H962.751V605.696H962.902V605.091H963.054V604.486H963.205V604.033H963.356V603.579H963.507V603.125H963.659V602.823H963.81V602.369H963.961V601.915H964.112V601.462H964.264V601.159H964.415V600.706H964.566V600.252H964.717V599.949H964.868V599.496H965.02V599.042H965.171V598.74H965.322V598.437H965.473V598.135H965.625V597.832H965.776V597.53H965.927V597.076H966.078V596.774H966.23V596.471H966.381V596.169H966.532V595.866H966.683V595.564H966.834V595.261H966.986V594.959H967.137V594.656H967.288V594.354H967.439V594.051H967.591V593.749H967.742V593.598H967.893V593.295H968.044V592.993H968.196V592.841H968.347V592.539H968.498V592.388H968.649V592.085H968.801V591.783H968.952V591.632H969.103V591.329H969.254V591.178H969.405V590.875H969.557V590.573H969.708V590.422H969.859V590.119H970.01V589.968H970.162V589.666H970.313V589.363H970.464V589.212H970.615V589.061H970.767V588.758H970.918V588.607H971.069V588.456H971.22V588.304H971.371V588.002H971.523V587.851H971.674V587.7H971.825V587.548H971.976V587.246H972.128V587.095H972.279V586.943H972.43V586.792H972.581V586.49H972.733V586.338H972.884V586.187H973.035V586.036H973.186V585.734H973.338V585.582H973.489V585.431H973.64V585.28H973.791V584.977H973.942V584.826H974.094V584.675H974.245V584.524H974.396V584.372H974.547V584.221H974.699V584.07H975.001V583.919H975.152V583.767H975.304V583.616H975.455V583.465H975.606V583.314H975.757V583.163H975.908V583.011H976.06V582.86H976.211V582.709H976.362V582.558H976.513V582.406H976.665V582.255H976.816V582.104H976.967V581.953H977.118V581.801H977.27V581.65H977.421V581.499H977.572V581.348H977.723V581.196H977.875V581.045H978.026V580.894H978.328V580.743H978.479V580.592H978.631V580.44H978.933V580.289H979.084V580.138H979.236V579.987H979.538V579.835H979.689V579.684H979.841V579.533H979.992V579.382H980.294V579.23H980.445V579.079H980.597V578.928H980.899V578.777H981.05V578.626H981.202V578.474H981.504V578.323H981.655V578.172H981.807V578.021H982.109V577.869H982.26V577.718H982.563V577.567H982.714V577.416H983.016V577.264H983.319V577.113H983.47V576.962H983.773V576.811H984.075V576.659H984.378V576.508H984.529V576.357H984.831V576.206H985.134V576.055H985.436V575.903H985.587V575.752H985.89V575.601H986.192V575.45H986.495V575.298H986.646V575.147H986.949V574.996H987.251V574.845H987.553V574.693H987.856V574.542H988.158V574.391H988.612V574.24H988.915V574.089H989.217V573.937H989.519V573.786H989.973V573.635H990.276V573.484H990.578V573.332H991.032V573.181H991.334V573.03H991.637V572.879H992.09V572.727H992.544V572.576H992.998V572.425H993.452V572.274H993.905V572.122H994.51V571.971H994.964V571.82H995.569V571.669H996.174V571.518H996.93V571.366H997.837V571.215H998.745V571.064H999.955V570.913H1001.92V570.761H1004.19V570.913H1006.76V571.064H1008.12V571.215H1009.18V571.366H1009.94V571.518H1010.69V571.669H1011.45V571.82H1012.05V571.971H1012.66V572.122H1013.11V572.274H1013.72V572.425H1014.17V572.576H1014.78V572.727H1015.23V572.879H1015.68V573.03H1015.99V573.181H1016.44V573.332H1016.89V573.484H1017.35V573.635H1017.65V573.786H1018.1V573.937H1018.41V574.089H1018.86V574.24H1019.16V574.391H1019.46V574.542H1019.77V574.693H1020.22V574.845H1020.52V574.996H1020.82V575.147H1021.13V575.298H1021.43V575.45H1021.73V575.601H1022.03V575.752H1022.34V575.903H1022.64V576.055H1022.94V576.206H1023.24V576.357H1023.4V576.508H1023.7V576.659H1024V576.811H1024.3V576.962H1024.61V577.113H1024.76V577.264H1025.06V577.416H1025.36V577.567H1025.51V577.718H1025.82V577.869H1026.12V578.021H1026.27V578.172H1026.57V578.323H1026.87V578.474H1027.03V578.626H1027.33V578.777H1027.48V578.928H1027.63V579.079H1027.93V579.23H1028.08V579.382H1028.39V579.533H1028.54V579.684H1028.84V579.835H1028.99V579.987H1029.29V580.138H1029.45V580.289H1029.75V580.44H1029.9V580.592H1030.05V580.743H1030.35V580.894H1030.5V581.045H1030.65V581.196H1030.96V581.348H1031.11V581.499H1031.26V581.65H1031.56V581.801H1031.71V581.953H1031.86V582.104H1032.17V582.255H1032.32V582.406H1032.47V582.558H1032.62V582.709H1032.77V582.86H1033.07V583.011H1033.23V583.163H1033.38V583.314H1033.53V583.465H1033.68V583.616H1033.98V583.767H1034.13V583.919H1034.28V584.07H1034.44V584.221H1034.59V584.372H1034.89V584.524H1035.04V584.675H1035.19V584.826H1035.34V584.977H1035.49V585.129H1035.65V585.28H1035.8V585.431H1035.95V585.582H1036.1V585.734H1036.25V585.885H1036.55V586.036H1036.7V586.187H1036.86V586.338H1037.01V586.49H1037.16V586.641H1037.31V586.792H1037.46V586.943H1037.61V587.095H1037.76V587.246H1037.91V587.397H1038.07V587.548H1038.22V587.7H1038.37V587.851H1038.52V588.002H1038.67V588.153H1038.82V588.304H1038.97V588.456H1039.12V588.607H1039.28V588.758H1039.43V588.909H1039.58V589.061H1039.73V589.212H1039.88V589.514H1040.03V589.666H1040.18V589.817H1040.33V589.968H1040.49V590.119H1040.64V590.271H1040.79V590.422H1040.94V590.573H1041.09V590.724H1041.24V591.027H1041.39V591.178H1041.54V591.329H1041.69V591.48H1041.85V591.632H1042V591.934H1042.15V592.085H1042.3V592.237H1042.45V592.388H1042.6V592.539H1042.75V592.69H1042.9V592.993H1043.06V593.144H1043.21V593.295H1043.36V593.446H1043.51V593.749H1043.66V593.9H1043.81V594.051H1043.96V594.354H1044.11V594.505H1044.27V594.656H1044.42V594.959H1044.57V595.11H1044.72V595.261H1044.87V595.412H1045.02V595.715H1045.17V595.866H1045.32V596.169H1045.48V596.32H1045.63V596.622H1045.78V596.774H1045.93V596.925H1046.08V597.227H1046.23V597.378H1046.38V597.681H1046.53V597.832H1046.69V598.135H1046.84V598.286H1046.99V598.588H1047.14V598.74H1047.29V599.042H1047.44V599.193H1047.59V599.496H1047.74V599.798H1047.9V599.949H1048.05V600.252H1048.2V600.403H1048.35V600.706H1048.5V601.008H1048.65V601.311H1048.8V601.462H1048.95V601.764H1049.11V602.067H1049.26V602.369H1049.41V602.52H1049.56V602.823H1049.71V603.125H1049.86V603.428H1050.01V603.73H1050.16V604.033H1050.32V604.335H1050.47V604.638H1050.62V604.94H1050.77V605.243H1050.92V605.545H1051.07V605.848H1051.22V606.15H1051.37V606.452H1051.53V606.755H1051.68V607.209H1051.83V607.511H1051.98V607.814H1052.13V608.267H1052.28V608.57H1052.43V608.872H1052.58V609.326H1052.74V609.78H1052.89V610.082H1053.04V610.536H1053.19V610.989H1053.34V611.443H1053.49V611.746H1053.64V612.199H1053.79V612.804H1053.94V613.258H1054.1V613.712H1054.25V614.317H1054.4V614.77H1054.55V615.375H1054.7V615.98H1054.85V616.585H1055V617.341H1055.15V617.946H1055.31V618.702H1055.46V619.61H1055.61V620.517H1055.76V621.576H1055.91V622.937H1056.06V624.449H1056.21V631.406H1056.06V633.221H1055.91V634.582H1055.76V635.641H1055.61V636.397H1055.46V637.153H1055.31V637.909H1055.15V638.665H1055V639.421H1054.85V640.026H1054.7V640.631H1054.55V641.236H1054.4V641.841H1054.25V642.446H1054.1V642.9H1053.94V643.505H1053.79V644.11H1053.64V644.715H1053.49V645.319H1053.34V645.924H1053.19V646.529H1053.04V646.983H1052.89V647.588H1052.74V648.193H1052.58V648.647H1052.43V649.252H1052.28V649.856H1052.13V650.461H1051.98V650.915H1051.83V651.52H1051.68V652.276H1051.53V652.881H1051.37V653.637H1051.22V654.242H1051.07V654.847H1050.92V655.603H1050.77V656.511H1050.62V657.418H1050.47V658.779H1050.32V663.921H1050.47V665.282H1050.62V666.038H1050.77V666.643H1050.92V667.4H1051.07V668.004H1051.22V668.458H1051.37V668.912H1051.53V669.366H1051.68V669.819H1051.83V670.122H1051.98V670.575H1052.13V670.878H1052.28V671.332H1052.43V671.634H1052.58V671.937H1052.74V672.239H1052.89V672.541H1053.04V672.844H1053.19V673.146H1053.34V673.449H1053.49V673.6H1053.64V673.903H1053.79V674.205H1053.94V674.507H1054.1V674.659H1054.25V674.961H1054.4V675.264H1054.55V675.415H1054.7V675.717H1054.85V675.869H1055V676.171H1055.15V676.322H1055.31V676.625H1055.46V676.776H1055.61V677.078H1055.76V677.23H1055.91V677.381H1056.06V677.683H1056.21V677.835H1056.36V677.986H1056.52V678.288H1056.67V678.44H1056.82V678.591H1056.97V678.893H1057.12V679.044H1057.27V679.196H1057.42V679.498H1057.57V679.649H1057.73V679.801H1057.88V679.952H1058.03V680.254H1058.18V680.406H1058.33V680.557H1058.48V680.708H1058.63V681.011H1058.78V681.162H1058.94V681.313H1059.09V681.464H1059.24V681.767H1059.39V681.918H1059.54V682.069H1059.69V682.22H1059.84V682.523H1059.99V682.674H1060.15V682.825H1060.3V682.977H1060.45V683.128H1060.6V683.43H1060.75V683.581H1060.9V683.733H1061.05V683.884H1061.2V684.035H1061.36V684.338H1061.51V684.489H1061.66V684.64H1061.81V684.791H1061.96V684.943H1062.11V685.245H1062.26V685.396H1062.41V685.548H1062.57V685.699H1062.72V685.85H1062.87V686.152H1063.02V686.304H1063.17V686.455H1063.32V686.606H1063.47V686.757H1063.62V687.06H1063.78V687.211H1063.93V687.362H1064.08V687.514H1064.23V687.665H1064.38V687.967H1064.53V688.118H1064.68V688.27H1064.83V688.421H1064.98V688.572H1065.14V688.875H1065.29V689.026H1065.44V689.177H1065.59V689.328H1065.74V689.48H1065.89V689.631H1066.04V689.933H1066.19V690.085H1066.35V690.236H1066.5V690.387H1066.65V690.538H1066.8V690.841H1066.95V690.992H1067.1V691.143H1067.25V691.294H1067.4V691.597H1067.56V691.748H1067.71V691.899H1067.86V692.051H1068.01V692.353H1068.16V692.504H1068.31V692.655H1068.46V692.807H1068.61V692.958H1068.77V693.26H1068.92V693.412H1069.07V693.563H1069.22V693.714H1069.37V694.017H1069.52V694.168H1069.67V694.319H1069.82V694.47H1069.98V694.773H1070.13V694.924H1070.28V695.075H1070.43V695.378H1070.58V695.529H1070.73V695.68H1070.88V695.983H1071.03V696.134H1071.19V696.285H1071.34V696.588H1071.49V696.739H1071.64V697.041H1071.79V697.192H1071.94V697.344H1072.09V697.646H1072.24V697.797H1072.4V697.949H1072.55V698.251H1072.7V698.402H1072.85V698.554H1073V698.856H1073.15V699.007H1073.3V699.31H1073.45V699.461H1073.61V699.763H1073.76V699.915H1073.91V700.217H1074.06V700.52H1074.21V700.671H1074.36V700.973H1074.51V701.125H1074.66V701.427H1074.82V701.578H1074.97V701.881H1075.12V702.183H1075.27V702.334H1075.42V702.637H1075.57V702.788H1075.72V703.091H1075.87V703.242H1076.02V703.544H1076.18V703.847H1076.33V704.149H1076.48V704.452H1076.63V704.754H1076.78V705.057H1076.93V705.359H1077.08V705.51H1077.23V705.813H1077.39V706.115H1077.54V706.418H1077.69V706.72H1077.84V707.023H1077.99V707.325H1078.14V707.628H1078.29V707.93H1078.44V708.233H1078.6V708.535H1078.75V708.989H1078.9V709.291H1079.05V709.594H1079.2V710.047H1079.35V710.35H1079.5V710.803H1079.65V711.106H1079.81V711.408H1079.96V711.862H1080.11V712.165H1080.26V712.618H1080.41V713.072H1080.56V713.677H1080.71V714.131H1080.86V714.584H1081.02V715.038H1081.17V715.643H1081.32V716.248H1081.47V716.702H1081.62V717.307H1081.77V717.911H1081.92V718.516H1082.07V719.121H1082.23V719.877H1082.38V720.634H1082.53V721.541H1082.68V722.297H1082.83V723.053H1082.98V723.961H1083.13V725.019H1083.28V726.532H1083.44V728.044H1083.59V729.708H1083.74V737.118H1083.59V739.084H1083.44V741.201H1083.28V742.109H1083.13V743.167H1082.98V744.075H1082.83V744.982H1082.68V745.89H1082.53V746.797H1082.38V747.402H1082.23V748.007H1082.07V748.612H1081.92V749.368H1081.77V749.973H1081.62V750.578H1081.47V751.183H1081.32V751.788H1081.17V752.241H1081.02V752.846H1080.86V753.3H1080.71V753.754H1080.56V754.207H1080.41V754.661H1080.26V755.115H1080.11V755.569H1079.96V756.022H1079.81V756.476H1079.65V756.93H1079.5V757.232H1079.35V757.686H1079.2V757.988H1079.05V758.442H1078.9V758.744H1078.75V759.198H1078.6V759.501H1078.44V759.803H1078.29V760.257H1078.14V760.559H1077.99V760.862H1077.84V761.315H1077.69V761.618H1077.54V761.92H1077.39V762.223H1077.23V762.677H1077.08V762.979H1076.93V763.281H1076.78V763.584H1076.63V763.886H1076.48V764.34H1076.33V764.643H1076.18V764.945H1076.02V765.247H1075.87V765.55H1075.72V765.852H1075.57V766.306H1075.42V766.609H1075.27V766.911H1075.12V767.214H1074.97V767.516H1074.82V767.97H1074.66V768.272H1074.51V768.575H1074.36V768.877H1074.21V769.18H1074.06V769.633H1073.91V769.936H1073.76V770.238H1073.61V770.692H1073.45V770.994H1073.3V771.297H1073.15V771.751H1073V772.053H1072.85V772.355H1072.7V772.809H1072.55V773.112H1072.4V773.565H1072.24V774.019H1072.09V774.321H1071.94V774.775H1071.79V775.229H1071.64V775.531H1071.49V775.985H1071.34V776.59H1071.19V777.044H1071.03V777.497H1070.88V777.951H1070.73V778.405H1070.58V779.01H1070.43V779.615H1070.28V780.22H1070.13V780.825H1069.98V781.581H1069.82V782.488H1069.67V783.244H1069.52V784.757H1069.37V786.723H1069.22V793.679H1069.37V795.494H1069.52V796.855H1069.67V798.216H1069.82V799.577H1069.98V800.787H1070.13V801.846H1070.28V802.753H1070.43V803.661H1070.58V804.568H1070.73V805.476H1070.88V806.383H1071.03V807.139H1071.19V808.047H1071.34V808.803H1071.49V809.71H1071.64V810.466H1071.79V811.222H1071.94V812.13H1072.09V812.886H1072.24V813.793H1072.4V814.55H1072.55V815.457H1072.7V816.213H1072.85V817.121H1073V817.877H1073.15V818.784H1073.3V819.691H1073.45V820.599H1073.61V821.506H1073.76V822.565H1073.91V823.472H1074.06V824.38H1074.21V825.438H1074.36V826.648H1074.51V827.858H1074.66V829.068H1074.82V830.278H1074.97V831.639H1075.12V833.756H1075.27V836.025H1075.42V844.796H1075.27V846.611H1075.12V848.275H1074.97V849.938H1074.82V850.846H1074.66V851.753H1074.51V852.66H1074.36V853.568H1074.21V854.324H1074.06V855.08H1073.91V855.685H1073.76V856.29H1073.61V856.895H1073.45V857.651H1073.3V858.105H1073.15V858.558H1073V859.163H1072.85V859.617H1072.7V860.071H1072.55V860.676H1072.4V861.129H1072.24V861.583H1072.09V862.188H1071.94V862.491H1071.79V862.944H1071.64V863.398H1071.49V863.852H1071.34V864.154H1071.19V864.608H1071.03V865.061H1070.88V865.515H1070.73V865.818H1070.58V866.271H1070.43V866.725H1070.28V867.179H1070.13V867.481H1069.98V867.935H1069.82V868.237H1069.67V868.54H1069.52V868.842H1069.37V869.296H1069.22V869.598H1069.07V869.901H1068.92V870.355H1068.77V870.657H1068.61V870.96H1068.46V871.262H1068.31V871.716H1068.16V872.018H1068.01V872.321H1067.86V872.774H1067.71V873.077H1067.56V873.379H1067.4V873.682H1067.25V873.984H1067.1V874.287H1066.95V874.589H1066.8V874.892H1066.65V875.194H1066.5V875.497H1066.35V875.799H1066.19V876.102H1066.04V876.253H1065.89V876.555H1065.74V876.858H1065.59V877.16H1065.44V877.463H1065.29V877.765H1065.14V878.068H1064.98V878.37H1064.83V878.672H1064.68V878.975H1064.53V879.126H1064.38V879.429H1064.23V879.731H1064.08V880.034H1063.93V880.185H1063.78V880.487H1063.62V880.79H1063.47V881.092H1063.32V881.243H1063.17V881.546H1063.02V881.848H1062.87V882.151H1062.72V882.302H1062.57V882.605H1062.41V882.907H1062.26V883.209H1062.11V883.361H1061.96V883.663H1061.81V883.966H1061.66V884.117H1061.51V884.419H1061.36V884.571H1061.2V884.873H1061.05V885.024H1060.9V885.327H1060.75V885.629H1060.6V885.78H1060.45V886.083H1060.3V886.234H1060.15V886.537H1059.99V886.839H1059.84V886.99H1059.69V887.293H1059.54V887.444H1059.39V887.746H1059.24V887.898H1059.09V888.2H1058.94V888.503H1058.78V888.654H1058.63V888.956H1058.48V889.108H1058.33V889.259H1058.18V889.561H1058.03V889.713H1057.88V890.015H1057.73V890.166H1057.57V890.469H1057.42V890.62H1057.27V890.922H1057.12V891.074H1056.97V891.376H1056.82V891.527H1056.67V891.83H1056.52V891.981H1056.36V892.132H1056.21V892.435H1056.06V892.586H1055.91V892.888H1055.76V893.04H1055.61V893.342H1055.46V893.493H1055.31V893.796H1055.15V893.947H1055V894.098H1054.85V894.401H1054.7V894.552H1054.55V894.703H1054.4V895.006H1054.25V895.157H1054.1V895.459H1053.94V895.611H1053.79V895.762H1053.64V896.064H1053.49V896.216H1053.34V896.518H1053.19V896.669H1053.04V896.82H1052.89V897.123H1052.74V897.274H1052.58V897.425H1052.43V897.728H1052.28V897.879H1052.13V898.03H1051.98V898.333H1051.83V898.484H1051.68V898.635H1051.53V898.938H1051.37V899.089H1051.22V899.24H1051.07V899.391H1050.92V899.694H1050.77V899.845H1050.62V899.996H1050.47V900.299H1050.32V900.45H1050.16V900.601H1050.01V900.753H1049.86V900.904H1049.71V901.206H1049.56V901.357H1049.41V901.509H1049.26V901.66H1049.11V901.811H1048.95V902.114H1048.8V902.265H1048.65V902.416H1048.5V902.567H1048.35V902.719H1048.2V903.021H1048.05V903.172H1047.9V903.324H1047.74V903.475H1047.59V903.626H1047.44V903.777H1047.29V903.928H1047.14V904.08H1046.99V904.382H1046.84V904.533H1046.69V904.685H1046.53V904.836H1046.38V904.987H1046.23V905.138H1046.08V905.29H1045.93V905.441H1045.78V905.592H1045.63V905.743H1045.48V905.894H1045.32V906.046H1045.17V906.197H1045.02V906.348H1044.87V906.499H1044.72V906.651H1044.57V906.802H1044.42V906.953H1044.27V907.104H1044.11V907.256H1043.96V907.407H1043.81V907.558H1043.66V907.709H1043.51V907.861H1043.36V908.012H1043.21V908.163H1043.06V908.314H1042.9V908.465H1042.75V908.617H1042.6V908.768H1042.3V908.919H1042.15V909.07H1042V909.222H1041.85V909.373H1041.69V909.524H1041.54V909.675H1041.24V909.827H1041.09V909.978H1040.94V910.129H1040.79V910.28H1040.64V910.431H1040.49V910.583H1040.18V910.734H1040.03V910.885H1039.88V911.036H1039.58V911.188H1039.43V911.339H1039.28V911.49H1039.12V911.641H1038.82V911.793H1038.67V911.944H1038.52V912.095H1038.22V912.246H1038.07V912.398H1037.76V912.549H1037.61V912.7H1037.31V912.851H1037.16V913.002H1037.01V913.154H1036.7V913.305H1036.55V913.456H1036.25V913.607H1035.95V913.759H1035.8V913.91H1035.49V914.061H1035.19V914.212H1035.04V914.364H1034.74V914.515H1034.59V914.666H1034.28V914.817H1033.98V914.968H1033.68V915.12H1033.38V915.271H1033.07V915.422H1032.77V915.573H1032.47V915.725H1032.17V915.876H1032.02V916.027H1031.71V916.178H1031.26V916.33H1030.96V916.481H1030.65V916.632H1030.2V916.783H1029.9V916.935H1029.6V917.086H1029.14V917.237H1028.69V917.388H1028.24V917.539H1027.78V917.691H1027.33V917.842H1026.87V917.993H1026.42V918.144H1025.82V918.296H1025.21V918.447H1024.61V918.598H1024.15V918.749H1023.24V918.901H1022.34V919.052H1021.43V919.203H1020.07V919.354H1018.41V919.505" fill="url(#paint2_linear_26_1858)"/>
</g>
<path d="M1010.79 623.312C1010.18 619.367 1004.88 619.652 1004.64 623.616C1002.82 653.043 1004.45 682.624 1005.16 712.069C1005.9 742.299 1006.43 772.537 1006.8 802.771C1007.53 862.472 1007.34 922.179 1006.29 981.875C1006.13 990.854 1020.14 990.155 1020.24 981.182C1020.89 921.5 1020.7 861.813 1019.58 802.138C1019.03 772.683 1018.19 743.244 1017.1 713.807C1015.98 683.633 1015.38 653.197 1010.79 623.312Z" fill="#0F8C2A"/>
<path d="M1041.24 835.49C1032.64 842.549 1024 852.947 1014.33 859.063C1006.39 854.543 999.028 847.122 992.065 841.643C984.683 835.832 977.409 829.896 969.375 824.996C967.248 823.699 964.362 826.71 966.02 828.703C972.982 837.083 981.085 844.356 988.975 851.843C995.149 857.701 1002.93 869.005 1010.62 872.464C1017.27 875.457 1021.44 870.469 1026.37 866.257C1034.3 859.49 1042.35 852.837 1050.1 845.859C1055.84 840.691 1047.29 830.53 1041.24 835.49Z" fill="#0F8C2A"/>
<path d="M1035.15 743.491C1027.69 747.585 1016.15 758.253 1007.09 755.851C997.971 753.431 987.684 745.299 979.718 740.442C977.125 738.86 974.263 742.933 976.668 744.831C983.121 749.929 989.325 755.355 995.554 760.727C999.394 764.039 1004.38 770.69 1009.86 771.603C1014.19 772.325 1018.29 769.46 1021.84 767.416C1028.83 763.399 1035.85 759.307 1042.6 754.909C1050.04 750.069 1042.76 739.306 1035.15 743.491Z" fill="#0F8C2A"/>
<path d="M1726.18 710.443C1556.55 719.614 1279.96 716.556 1096.58 792.964C913.206 869.371 761.92 1022.18 697.736 1158.19L1704.78 1008.43L1726.18 710.443Z" fill="#1F6489"/>
<mask id="mask3_26_1858" style="mask-type:luminance" maskUnits="userSpaceOnUse" x="1103" y="581" width="342" height="555">
<path d="M1410.42 863.251C1418.15 847.813 1425.89 832.144 1431.39 815.75C1450.65 758.348 1449.84 684.164 1415.26 632.473C1369.71 564.399 1283.51 573.488 1218.34 605.335C1195.94 616.281 1179.61 631.627 1167.59 649.703C1163.6 655.703 1159.22 661.42 1154.7 667.029C1152.31 669.994 1150.06 673.055 1147.96 676.216C1133.33 698.278 1125.24 724.561 1125.06 751.111C1124.96 766.501 1127.89 783.17 1131.93 798.01C1134.93 808.999 1142.12 820.986 1142.09 832.449C1142.03 851.974 1124.71 873.948 1117.58 891.698C1106.59 919.038 1101.77 948.596 1104.52 978.038C1109.98 1036.34 1141.99 1091.27 1195.5 1117.78C1247.05 1143.32 1309.38 1142.76 1356.98 1108.82C1405.23 1074.42 1432.51 1012.06 1418.84 953.401C1414.33 934.056 1395.79 910.622 1397.2 890.571C1397.77 882.442 1407.11 869.889 1410.42 863.251Z" fill="white"/>
</mask>
<g mask="url(#mask3_26_1858)">
<path d="M1104.76 981.662V980.452H1104.61V979.091H1104.46V977.428H1104.31V975.764H1104.15V973.193H1104V970.32H1103.85V967.295H1103.7V957.616H1103.85V953.533H1104V951.113H1104.15V948.693H1104.31V946.274H1104.46V944.459H1104.61V943.249H1104.76V941.888H1104.91V940.678H1105.06V939.468H1105.21V938.258H1105.36V937.048H1105.52V935.838H1105.67V934.629H1105.82V933.57H1105.97V932.814H1106.12V931.906H1106.27V931.15H1106.42V930.394H1106.57V929.487H1106.73V928.73H1106.88V927.823H1107.03V927.067H1107.18V926.311H1107.33V925.403H1107.48V924.647H1107.63V923.74H1107.78V922.984H1107.94V922.379H1108.09V921.774H1108.24V921.169H1108.39V920.564H1108.54V919.959H1108.69V919.354H1108.84V918.749H1108.99V918.144H1109.15V917.539H1109.3V916.934H1109.45V916.178H1109.6V915.573H1109.75V914.968H1109.9V914.363H1110.05V913.758H1110.2V913.153H1110.36V912.548H1110.51V912.095H1110.66V911.49H1110.81V911.036H1110.96V910.582H1111.11V910.129H1111.26V909.524H1111.41V909.07H1111.56V908.616H1111.72V908.163H1111.87V907.558H1112.02V907.104H1112.17V906.65H1112.32V906.197H1112.47V905.592H1112.62V905.138H1112.77V904.684H1112.93V904.231H1113.08V903.626H1113.23V903.172H1113.38V902.718H1113.53V902.265H1113.68V901.811H1113.83V901.357H1113.98V900.904H1114.14V900.45H1114.29V899.996H1114.44V899.694H1114.59V899.24H1114.74V898.786H1114.89V898.333H1115.04V898.03H1115.19V897.576H1115.35V897.123H1115.5V896.669H1115.65V896.215H1115.8V895.913H1115.95V895.459H1116.1V895.005H1116.25V894.552H1116.4V894.249H1116.56V893.796H1116.71V893.493H1116.86V893.039H1117.01V892.737H1117.16V892.283H1117.31V891.981H1117.46V891.527H1117.61V891.225H1117.77V890.771H1117.92V890.468H1118.07V890.166H1118.22V889.712H1118.37V889.41H1118.52V889.107H1118.67V888.654H1118.82V888.351H1118.98V888.049H1119.13V887.746H1119.28V887.444H1119.43V887.141H1119.58V886.839H1119.73V886.385H1119.88V886.083H1120.03V885.78H1120.19V885.478H1120.34V885.175H1120.49V884.873H1120.64V884.57H1120.79V884.268H1120.94V883.965H1121.09V883.663H1121.24V883.36H1121.4V883.058H1121.55V882.756H1121.7V882.453H1121.85V882.151H1122V881.848H1122.15V881.546H1122.3V881.243H1122.45V880.941H1122.6V880.789H1122.76V880.487H1122.91V880.185H1123.06V879.882H1123.21V879.58H1123.36V879.277H1123.51V878.975H1123.66V878.672H1123.81V878.521H1123.97V878.219H1124.12V877.916H1124.27V877.614H1124.42V877.311H1124.57V877.009H1124.72V876.706H1124.87V876.555H1125.02V876.252H1125.18V875.95H1125.33V875.648H1125.48V875.345H1125.63V875.043H1125.78V874.891H1125.93V874.589H1126.08V874.286H1126.23V873.984H1126.39V873.682H1126.54V873.379H1126.69V873.228H1126.84V872.925H1126.99V872.623H1127.14V872.32H1127.29V872.018H1127.44V871.867H1127.6V871.564H1127.75V871.262H1127.9V870.959H1128.05V870.657H1128.2V870.354H1128.35V870.203H1128.5V869.901H1128.65V869.598H1128.81V869.296H1128.96V868.993H1129.11V868.691H1129.26V868.388H1129.41V868.237H1129.56V867.935H1129.71V867.632H1129.86V867.33H1130.02V867.027H1130.17V866.725H1130.32V866.574H1130.47V866.271H1130.62V865.969H1130.77V865.666H1130.92V865.364H1131.07V865.061H1131.23V864.759H1131.38V864.456H1131.53V864.154H1131.68V863.851H1131.83V863.7H1131.98V863.398H1132.13V863.095H1132.28V862.793H1132.44V862.49H1132.59V862.188H1132.74V861.885H1132.89V861.583H1133.04V861.28H1133.19V860.978H1133.34V860.675H1133.49V860.373H1133.64V860.071H1133.8V859.768H1133.95V859.466H1134.1V859.163H1134.25V858.861H1134.4V858.558H1134.55V858.256H1134.7V857.802H1134.85V857.5H1135.01V857.197H1135.16V856.895H1135.31V856.592H1135.46V856.29H1135.61V855.987H1135.76V855.685H1135.91V855.231H1136.06V854.929H1136.22V854.626H1136.37V854.172H1136.52V853.87H1136.67V853.567H1136.82V853.114H1136.97V852.811H1137.12V852.509H1137.27V852.055H1137.43V851.753H1137.58V851.45H1137.73V850.997H1137.88V850.543H1138.03V850.24H1138.18V849.787H1138.33V849.333H1138.48V849.03H1138.64V848.577H1138.79V848.123H1138.94V847.821H1139.09V847.367H1139.24V846.913H1139.39V846.46H1139.54V845.855H1139.69V845.401H1139.85V844.947H1140V844.493H1140.15V843.889H1140.3V843.435H1140.45V842.83H1140.6V842.225H1140.75V841.469H1140.9V840.864H1141.06V840.259H1141.21V839.503H1141.36V838.444H1141.51V837.537H1141.66V836.478H1141.81V834.966H1141.96V830.126H1141.81V828.463H1141.66V827.555H1141.51V826.799H1141.36V826.043H1141.21V825.287H1141.06V824.379H1140.9V823.775H1140.75V823.17H1140.6V822.716H1140.45V822.111H1140.3V821.657H1140.15V821.052H1140V820.599H1139.85V819.994H1139.69V819.54H1139.54V819.086H1139.39V818.633H1139.24V818.179H1139.09V817.876H1138.94V817.423H1138.79V816.969H1138.64V816.515H1138.48V816.062H1138.33V815.608H1138.18V815.154H1138.03V814.852H1137.88V814.398H1137.73V814.096H1137.58V813.642H1137.43V813.188H1137.27V812.886H1137.12V812.432H1136.97V812.13H1136.82V811.676H1136.67V811.222H1136.52V810.92H1136.37V810.466H1136.22V810.164H1136.06V809.71H1135.91V809.407H1135.76V808.954H1135.61V808.651H1135.46V808.197H1135.31V807.744H1135.16V807.441H1135.01V806.988H1134.85V806.685H1134.7V806.231H1134.55V805.778H1134.4V805.475H1134.25V805.022H1134.1V804.568H1133.95V804.265H1133.8V803.812H1133.64V803.358H1133.49V802.904H1133.34V802.602H1133.19V802.148H1133.04V801.694H1132.89V801.241H1132.74V800.787H1132.59V800.333H1132.44V799.728H1132.28V799.275H1132.13V798.821H1131.98V798.216H1131.83V797.762H1131.68V797.157H1131.53V796.553H1131.38V795.948H1131.23V795.343H1131.07V794.738H1130.92V794.133H1130.77V793.679H1130.62V793.074H1130.47V792.469H1130.32V791.713H1130.17V791.108H1130.02V790.503H1129.86V789.747H1129.71V789.142H1129.56V788.537H1129.41V787.781H1129.26V787.176H1129.11V786.571H1128.96V785.815H1128.81V785.059H1128.65V784.303H1128.5V783.546H1128.35V782.79H1128.2V782.034H1128.05V781.278H1127.9V780.522H1127.75V779.614H1127.6V778.707H1127.44V777.8H1127.29V776.892H1127.14V775.985H1126.99V775.077H1126.84V774.17H1126.69V772.96H1126.54V771.901H1126.39V770.843H1126.23V769.633H1126.08V768.423H1125.93V767.062H1125.78V765.55H1125.63V764.037H1125.48V762.223H1125.33V759.803H1125.18V757.232H1125.02V746.797H1125.18V744.075H1125.33V741.352H1125.48V739.991H1125.63V738.63H1125.78V737.42H1125.93V736.059H1126.08V734.849H1126.23V733.488H1126.39V732.278H1126.54V731.068H1126.69V730.312H1126.84V729.556H1126.99V728.649H1127.14V727.893H1127.29V727.136H1127.44V726.38H1127.6V725.473H1127.75V724.717H1127.9V723.961H1128.05V723.204H1128.2V722.448H1128.35V721.541H1128.5V720.936H1128.65V720.482H1128.81V719.877H1128.96V719.272H1129.11V718.667H1129.26V718.214H1129.41V717.609H1129.56V717.004H1129.71V716.55H1129.86V715.945H1130.02V715.34H1130.17V714.735H1130.32V714.282H1130.47V713.677H1130.62V713.072H1130.77V712.467H1130.92V712.013H1131.07V711.559H1131.23V711.106H1131.38V710.652H1131.53V710.198H1131.68V709.745H1131.83V709.291H1131.98V708.837H1132.13V708.383H1132.28V708.081H1132.44V707.627H1132.59V707.174H1132.74V706.72H1132.89V706.266H1133.04V705.813H1133.19V705.359H1133.34V704.905H1133.49V704.451H1133.64V704.149H1133.8V703.695H1133.95V703.242H1134.1V702.788H1134.25V702.334H1134.4V702.032H1134.55V701.729H1134.7V701.276H1134.85V700.973H1135.01V700.671H1135.16V700.217H1135.31V699.914H1135.46V699.612H1135.61V699.158H1135.76V698.856H1135.91V698.553H1136.06V698.1H1136.22V697.797H1136.37V697.495H1136.52V697.041H1136.67V696.739H1136.82V696.436H1136.97V695.982H1137.12V695.68H1137.27V695.377H1137.43V694.924H1137.58V694.621H1137.73V694.319H1137.88V693.865H1138.03V693.563H1138.18V693.26H1138.33V692.958H1138.48V692.655H1138.64V692.353H1138.79V692.05H1138.94V691.748H1139.09V691.445H1139.24V691.143H1139.39V690.84H1139.54V690.538H1139.69V690.235H1139.85V689.933H1140V689.782H1140.15V689.479H1140.3V689.177H1140.45V688.874H1140.6V688.572H1140.75V688.269H1140.9V687.967H1141.06V687.665H1141.21V687.362H1141.36V687.06H1141.51V686.757H1141.66V686.455H1141.81V686.152H1141.96V685.85H1142.11V685.547H1142.27V685.245H1142.42V685.094H1142.57V684.791H1142.72V684.489H1142.87V684.186H1143.02V683.884H1143.17V683.732H1143.32V683.43H1143.48V683.128H1143.63V682.976H1143.78V682.674H1143.93V682.371H1144.08V682.22H1144.23V681.918H1144.38V681.615H1144.53V681.464H1144.69V681.161H1144.84V680.859H1144.99V680.708H1145.14V680.405H1145.29V680.103H1145.44V679.952H1145.59V679.649H1145.74V679.347H1145.89V679.195H1146.05V678.893H1146.2V678.591H1146.35V678.288H1146.5V678.137H1146.65V677.834H1146.8V677.683H1146.95V677.381H1147.1V677.229H1147.26V676.927H1147.41V676.776H1147.56V676.473H1147.71V676.322H1147.86V676.02H1148.01V675.868H1148.16V675.566H1148.31V675.415H1148.47V675.112H1148.62V674.961H1148.77V674.81H1148.92V674.507H1149.07V674.356H1149.22V674.054H1149.37V673.902H1149.52V673.6H1149.68V673.449H1149.83V673.297H1149.98V672.995H1150.13V672.844H1150.28V672.541H1150.43V672.39H1150.58V672.239H1150.73V671.936H1150.89V671.785H1151.04V671.483H1151.19V671.331H1151.34V671.18H1151.49V670.878H1151.64V670.726H1151.79V670.575H1151.94V670.273H1152.1V670.121H1152.25V669.97H1152.4V669.668H1152.55V669.517H1152.7V669.365H1152.85V669.214H1153V668.912H1153.15V668.76H1153.31V668.609H1153.46V668.307H1153.61V668.155H1153.76V668.004H1153.91V667.702H1154.06V667.55H1154.21V667.399H1154.36V667.248H1154.52V666.946H1154.67V666.794H1154.82V666.643H1154.97V666.492H1155.12V666.189H1155.27V666.038H1155.42V665.887H1155.57V665.736H1155.73V665.433H1155.88V665.282H1156.03V665.131H1156.18V664.98H1156.33V664.677H1156.48V664.526H1156.63V664.375H1156.78V664.072H1156.93V663.921H1157.09V663.77H1157.24V663.618H1157.39V663.316H1157.54V663.165H1157.69V663.013H1157.84V662.711H1157.99V662.56H1158.14V662.409H1158.3V662.106H1158.45V661.955H1158.6V661.804H1158.75V661.652H1158.9V661.35H1159.05V661.199H1159.2V661.047H1159.35V660.745H1159.51V660.594H1159.66V660.443H1159.81V660.291H1159.96V659.989H1160.11V659.838H1160.26V659.686H1160.41V659.384H1160.56V659.233H1160.72V659.081H1160.87V658.93H1161.02V658.628H1161.17V658.476H1161.32V658.325H1161.47V658.023H1161.62V657.872H1161.77V657.569H1161.93V657.418H1162.08V657.267H1162.23V656.964H1162.38V656.813H1162.53V656.51H1162.68V656.359H1162.83V656.208H1162.98V655.906H1163.14V655.754H1163.29V655.452H1163.44V655.301H1163.59V655.149H1163.74V654.847H1163.89V654.696H1164.04V654.544H1164.19V654.242H1164.35V654.091H1164.5V653.788H1164.65V653.637H1164.8V653.486H1164.95V653.183H1165.1V653.032H1165.25V652.73H1165.4V652.578H1165.56V652.427H1165.71V652.125H1165.86V651.973H1166.01V651.671H1166.16V651.52H1166.31V651.369H1166.46V651.066H1166.61V650.915H1166.77V650.612H1166.92V650.461H1167.07V650.159H1167.22V650.007H1167.37V649.705H1167.52V649.554H1167.67V649.251H1167.82V649.1H1167.97V648.798H1168.13V648.646H1168.28V648.344H1168.43V648.193H1168.58V647.89H1168.73V647.739H1168.88V647.436H1169.03V647.285H1169.18V647.134H1169.34V646.832H1169.49V646.68H1169.64V646.378H1169.79V646.227H1169.94V646.075H1170.09V645.773H1170.24V645.622H1170.39V645.47H1170.55V645.168H1170.7V645.017H1170.85V644.714H1171V644.563H1171.15V644.412H1171.3V644.109H1171.45V643.958H1171.6V643.807H1171.76V643.504H1171.91V643.353H1172.06V643.051H1172.21V642.899H1172.36V642.748H1172.51V642.597H1172.66V642.295H1172.81V642.143H1172.97V641.992H1173.12V641.841H1173.27V641.538H1173.42V641.387H1173.57V641.236H1173.72V641.085H1173.87V640.782H1174.02V640.631H1174.18V640.48H1174.33V640.328H1174.48V640.026H1174.63V639.875H1174.78V639.724H1174.93V639.572H1175.08V639.27H1175.23V639.119H1175.39V638.967H1175.54V638.816H1175.69V638.665H1175.84V638.362H1175.99V638.211H1176.14V638.06H1176.29V637.909H1176.44V637.606H1176.6V637.455H1176.75V637.304H1176.9V637.153H1177.05V636.85H1177.2V636.699H1177.35V636.548H1177.5V636.396H1177.65V636.245H1177.81V636.094H1177.96V635.943H1178.11V635.791H1178.26V635.489H1178.41V635.338H1178.56V635.187H1178.71V635.035H1178.86V634.884H1179.01V634.733H1179.17V634.582H1179.32V634.43H1179.47V634.279H1179.62V634.128H1179.77V633.977H1179.92V633.674H1180.07V633.523H1180.22V633.372H1180.38V633.221H1180.53V633.069H1180.68V632.918H1180.83V632.767H1180.98V632.616H1181.13V632.464H1181.28V632.313H1181.43V632.162H1181.59V631.859H1181.74V631.708H1181.89V631.557H1182.04V631.406H1182.19V631.254H1182.34V631.103H1182.49V630.952H1182.64V630.801H1182.8V630.65H1182.95V630.498H1183.1V630.347H1183.25V630.196H1183.4V630.045H1183.55V629.893H1183.7V629.742H1183.85V629.591H1184.01V629.44H1184.16V629.288H1184.31V629.137H1184.46V628.986H1184.61V628.835H1184.76V628.684H1184.91V628.532H1185.06V628.381H1185.22V628.23H1185.52V628.079H1185.67V627.927H1185.82V627.776H1185.97V627.625H1186.12V627.474H1186.27V627.322H1186.43V627.171H1186.58V627.02H1186.73V626.869H1186.88V626.717H1187.03V626.566H1187.18V626.415H1187.33V626.264H1187.48V626.113H1187.64V625.961H1187.79V625.81H1187.94V625.659H1188.09V625.508H1188.24V625.356H1188.39V625.205H1188.69V625.054H1188.85V624.903H1189V624.751H1189.15V624.6H1189.3V624.449H1189.45V624.298H1189.6V624.147H1189.9V623.995H1190.05V623.844H1190.21V623.693H1190.36V623.542H1190.51V623.39H1190.81V623.239H1190.96V623.088H1191.11V622.937H1191.26V622.785H1191.42V622.634H1191.72V622.483H1191.87V622.332H1192.02V622.18H1192.17V622.029H1192.32V621.878H1192.63V621.727H1192.78V621.576H1192.93V621.424H1193.08V621.273H1193.23V621.122H1193.53V620.971H1193.68V620.819H1193.84V620.668H1193.99V620.517H1194.14V620.366H1194.44V620.214H1194.59V620.063H1194.74V619.912H1194.89V619.761H1195.05V619.61H1195.35V619.458H1195.5V619.307H1195.65V619.156H1195.95V619.005H1196.1V618.853H1196.26V618.702H1196.56V618.551H1196.71V618.4H1197.01V618.248H1197.16V618.097H1197.31V617.946H1197.62V617.795H1197.77V617.643H1198.07V617.492H1198.22V617.341H1198.37V617.19H1198.68V617.039H1198.83V616.887H1198.98V616.736H1199.28V616.585H1199.43V616.434H1199.73V616.282H1199.89V616.131H1200.04V615.98H1200.34V615.829H1200.49V615.677H1200.79V615.526H1200.94V615.375H1201.1V615.224H1201.4V615.073H1201.55V614.921H1201.7V614.77H1202V614.619H1202.15V614.468H1202.46V614.316H1202.61V614.165H1202.91V614.014H1203.06V613.863H1203.36V613.711H1203.67V613.56H1203.82V613.409H1204.12V613.258H1204.27V613.106H1204.57V612.955H1204.88V612.804H1205.03V612.653H1205.33V612.502H1205.48V612.35H1205.78V612.199H1206.09V612.048H1206.24V611.897H1206.54V611.745H1206.69V611.594H1206.99V611.443H1207.3V611.292H1207.45V611.14H1207.75V610.989H1208.05V610.838H1208.2V610.687H1208.51V610.536H1208.66V610.384H1208.96V610.233H1209.26V610.082H1209.41V609.931H1209.72V609.779H1209.87V609.628H1210.17V609.477H1210.47V609.326H1210.77V609.174H1211.08V609.023H1211.23V608.872H1211.53V608.721H1211.83V608.569H1212.14V608.418H1212.44V608.267H1212.74V608.116H1212.89V607.965H1213.19V607.813H1213.5V607.662H1213.8V607.511H1214.1V607.36H1214.4V607.208H1214.55V607.057H1214.86V606.906H1215.16V606.755H1215.46V606.603H1215.76V606.452H1216.07V606.301H1216.22V606.15H1216.67V605.999H1216.97V605.847H1217.28V605.696H1217.58V605.545H1217.88V605.394H1218.18V605.242H1218.49V605.091H1218.79V604.94H1219.09V604.789H1219.39V604.637H1219.7V604.486H1220V604.335H1220.3V604.184H1220.6V604.032H1220.91V603.881H1221.36V603.73H1221.66V603.579H1221.97V603.428H1222.27V603.276H1222.57V603.125H1222.87V602.974H1223.18V602.823H1223.63V602.671H1223.93V602.52H1224.23V602.369H1224.54V602.218H1224.84V602.066H1225.29V601.915H1225.59V601.764H1225.9V601.613H1226.2V601.462H1226.65V601.31H1226.96V601.159H1227.26V601.008H1227.56V600.857H1228.01V600.705H1228.32V600.554H1228.62V600.403H1228.92V600.252H1229.38V600.1H1229.68V599.949H1229.98V599.798H1230.43V599.647H1230.74V599.495H1231.04V599.344H1231.49V599.193H1231.8V599.042H1232.25V598.891H1232.55V598.739H1232.85V598.588H1233.31V598.437H1233.61V598.286H1234.06V598.134H1234.37V597.983H1234.82V597.832H1235.12V597.681H1235.42V597.529H1235.88V597.378H1236.18V597.227H1236.63V597.076H1236.94V596.925H1237.39V596.773H1237.69V596.622H1238.15V596.471H1238.6V596.32H1238.9V596.168H1239.36V596.017H1239.81V595.866H1240.11V595.715H1240.57V595.563H1240.87V595.412H1241.32V595.261H1241.78V595.11H1242.08V594.958H1242.53V594.807H1242.99V594.656H1243.29V594.505H1243.74V594.354H1244.2V594.202H1244.65V594.051H1245.1V593.9H1245.41V593.749H1245.86V593.597H1246.31V593.446H1246.77V593.295H1247.22V593.144H1247.67V592.992H1248.13V592.841H1248.58V592.69H1248.88V592.539H1249.34V592.388H1249.79V592.236H1250.25V592.085H1250.7V591.934H1251.15V591.783H1251.76V591.631H1252.21V591.48H1252.67V591.329H1253.12V591.178H1253.57V591.026H1254.03V590.875H1254.48V590.724H1255.09V590.573H1255.54V590.421H1255.99V590.27H1256.45V590.119H1256.9V589.968H1257.51V589.817H1257.96V589.665H1258.56V589.514H1259.02V589.363H1259.62V589.212H1260.08V589.06H1260.68V588.909H1261.13V588.758H1261.74V588.607H1262.19V588.455H1262.8V588.304H1263.25V588.153H1263.86V588.002H1264.46V587.851H1265.07V587.699H1265.67V587.548H1266.28V587.397H1266.88V587.246H1267.49V587.094H1268.09V586.943H1268.7V586.792H1269.3V586.641H1269.75V586.489H1270.51V586.338H1271.12V586.187H1271.87V586.036H1272.48V585.884H1273.23V585.733H1273.84V585.582H1274.59V585.431H1275.2V585.28H1275.96V585.128H1276.56V584.977H1277.47V584.826H1278.22V584.675H1278.98V584.523H1279.89V584.372H1280.64V584.221H1281.4V584.07H1282.31V583.918H1283.06V583.767H1283.82V583.616H1284.88V583.465H1285.94V583.314H1286.84V583.162H1287.9V583.011H1288.81V582.86H1289.87V582.709H1290.93V582.557H1292.29V582.406H1293.5V582.255H1294.86V582.104H1296.07V581.952H1297.58V581.801H1299.4V581.65H1301.36V581.499H1303.18V581.347H1306.2V581.196H1309.83V581.045H1318.6V581.196H1322.23V581.347H1324.96V581.499H1326.77V581.65H1328.43V581.801H1330.25V581.952H1331.61V582.104H1332.67V582.255H1333.88V582.406H1334.94V582.557H1336.15V582.709H1337.21V582.86H1338.11V583.011H1338.87V583.162H1339.78V583.314H1340.53V583.465H1341.44V583.616H1342.2V583.767H1343.1V583.918H1343.86V584.07H1344.46V584.221H1345.07V584.372H1345.83V584.523H1346.43V584.675H1347.04V584.826H1347.64V584.977H1348.25V585.128H1349V585.28H1349.61V585.431H1350.21V585.582H1350.66V585.733H1351.27V585.884H1351.72V586.036H1352.33V586.187H1352.78V586.338H1353.24V586.489H1353.84V586.641H1354.29V586.792H1354.9V586.943H1355.35V587.094H1355.81V587.246H1356.41V587.397H1356.87V587.548H1357.32V587.699H1357.62V587.851H1358.08V588.002H1358.53V588.153H1358.98V588.304H1359.44V588.455H1359.74V588.607H1360.19V588.758H1360.65V588.909H1361.1V589.06H1361.55V589.212H1362.01V589.363H1362.31V589.514H1362.76V589.665H1363.07V589.817H1363.52V589.968H1363.82V590.119H1364.12V590.27H1364.58V590.421H1364.88V590.573H1365.33V590.724H1365.64V590.875H1365.94V591.026H1366.39V591.178H1366.7V591.329H1367V591.48H1367.45V591.631H1367.75V591.783H1368.21V591.934H1368.51V592.085H1368.81V592.236H1369.12V592.388H1369.42V592.539H1369.72V592.69H1370.02V592.841H1370.33V592.992H1370.63V593.144H1370.93V593.295H1371.23V593.446H1371.53V593.597H1371.84V593.749H1372.14V593.9H1372.44V594.051H1372.74V594.202H1373.2V594.354H1373.5V594.505H1373.8V594.656H1374.11V594.807H1374.41V594.958H1374.71V595.11H1374.86V595.261H1375.16V595.412H1375.47V595.563H1375.77V595.715H1375.92V595.866H1376.22V596.017H1376.53V596.168H1376.83V596.32H1376.98V596.471H1377.28V596.622H1377.58V596.773H1377.89V596.925H1378.04V597.076H1378.34V597.227H1378.64V597.378H1378.95V597.529H1379.1V597.681H1379.4V597.832H1379.7V597.983H1380V598.134H1380.16V598.286H1380.46V598.437H1380.61V598.588H1380.91V598.739H1381.21V598.891H1381.37V599.042H1381.67V599.193H1381.82V599.344H1382.12V599.495H1382.27V599.647H1382.58V599.798H1382.73V599.949H1383.03V600.1H1383.18V600.252H1383.48V600.403H1383.63V600.554H1383.94V600.705H1384.09V600.857H1384.39V601.008H1384.54V601.159H1384.84V601.31H1384.99V601.462H1385.3V601.613H1385.6V601.764H1385.75V601.915H1385.9V602.066H1386.2V602.218H1386.36V602.369H1386.51V602.52H1386.81V602.671H1386.96V602.823H1387.11V602.974H1387.41V603.125H1387.57V603.276H1387.72V603.428H1388.02V603.579H1388.17V603.73H1388.32V603.881H1388.62V604.032H1388.78V604.184H1388.93V604.335H1389.23V604.486H1389.38V604.637H1389.68V604.789H1389.83V604.94H1389.99V605.091H1390.29V605.242H1390.44V605.394H1390.59V605.545H1390.89V605.696H1391.04V605.847H1391.2V605.999H1391.35V606.15H1391.65V606.301H1391.8V606.452H1391.95V606.603H1392.1V606.755H1392.25V606.906H1392.41V607.057H1392.71V607.208H1392.86V607.36H1393.01V607.511H1393.16V607.662H1393.31V607.813H1393.46V607.965H1393.77V608.116H1393.92V608.267H1394.07V608.418H1394.22V608.569H1394.37V608.721H1394.67V608.872H1394.82V609.023H1394.98V609.174H1395.13V609.326H1395.28V609.477H1395.43V609.628H1395.73V609.779H1395.88V609.931H1396.03V610.082H1396.19V610.233H1396.34V610.384H1396.49V610.536H1396.64V610.687H1396.79V610.838H1396.94V610.989H1397.24V611.14H1397.4V611.292H1397.55V611.443H1397.7V611.594H1397.85V611.745H1398V611.897H1398.15V612.048H1398.3V612.199H1398.45V612.35H1398.61V612.502H1398.76V612.653H1398.91V612.804H1399.06V612.955H1399.21V613.106H1399.36V613.258H1399.51V613.409H1399.66V613.56H1399.82V613.711H1399.97V613.863H1400.12V614.014H1400.27V614.165H1400.42V614.316H1400.57V614.468H1400.72V614.619H1400.87V614.77H1401.03V614.921H1401.18V615.073H1401.33V615.224H1401.48V615.375H1401.63V615.526H1401.78V615.677H1401.93V615.829H1402.08V615.98H1402.24V616.131H1402.39V616.282H1402.54V616.434H1402.69V616.585H1402.84V616.736H1402.99V616.887H1403.14V617.19H1403.29V617.341H1403.45V617.492H1403.6V617.643H1403.75V617.795H1403.9V617.946H1404.05V618.097H1404.2V618.248H1404.35V618.4H1404.5V618.551H1404.66V618.702H1404.81V619.005H1404.96V619.156H1405.11V619.307H1405.26V619.458H1405.41V619.61H1405.56V619.761H1405.71V619.912H1405.86V620.063H1406.02V620.214H1406.17V620.366H1406.32V620.668H1406.47V620.819H1406.62V620.971H1406.77V621.122H1406.92V621.424H1407.07V621.576H1407.23V621.727H1407.38V621.878H1407.53V622.029H1407.68V622.332H1407.83V622.483H1407.98V622.634H1408.13V622.785H1408.28V623.088H1408.44V623.239H1408.59V623.39H1408.74V623.542H1408.89V623.844H1409.04V623.995H1409.19V624.147H1409.34V624.298H1409.49V624.6H1409.65V624.751H1409.8V624.903H1409.95V625.054H1410.1V625.356H1410.25V625.508H1410.4V625.659H1410.55V625.81H1410.7V626.113H1410.86V626.264H1411.01V626.415H1411.16V626.566H1411.31V626.869H1411.46V627.02H1411.61V627.322H1411.76V627.474H1411.91V627.625H1412.07V627.927H1412.22V628.079H1412.37V628.23H1412.52V628.532H1412.67V628.684H1412.82V628.986H1412.97V629.137H1413.12V629.288H1413.28V629.591H1413.43V629.742H1413.58V629.893H1413.73V630.196H1413.88V630.347H1414.03V630.65H1414.18V630.801H1414.33V630.952H1414.49V631.254H1414.64V631.406H1414.79V631.708H1414.94V631.859H1415.09V632.162H1415.24V632.313H1415.39V632.616H1415.54V632.767H1415.7V633.069H1415.85V633.221H1416V633.523H1416.15V633.674H1416.3V633.977H1416.45V634.279H1416.6V634.43H1416.75V634.733H1416.9V634.884H1417.06V635.187H1417.21V635.489H1417.36V635.64H1417.51V635.943H1417.66V636.094H1417.81V636.396H1417.96V636.548H1418.11V636.85H1418.27V637.153H1418.42V637.304H1418.57V637.606H1418.72V637.909H1418.87V638.06H1419.02V638.362H1419.17V638.665H1419.32V638.816H1419.48V639.119H1419.63V639.421H1419.78V639.724H1419.93V639.875H1420.08V640.177H1420.23V640.48H1420.38V640.631H1420.53V640.933H1420.69V641.236H1420.84V641.538H1420.99V641.69H1421.14V641.992H1421.29V642.295H1421.44V642.446H1421.59V642.748H1421.74V643.051H1421.9V643.353H1422.05V643.656H1422.2V643.958H1422.35V644.261H1422.5V644.563H1422.65V644.714H1422.8V645.017H1422.95V645.319H1423.11V645.622H1423.26V645.924H1423.41V646.227H1423.56V646.529H1423.71V646.832H1423.86V646.983H1424.01V647.285H1424.16V647.588H1424.32V647.89H1424.47V648.193H1424.62V648.495H1424.77V648.798H1424.92V649.1H1425.07V649.554H1425.22V649.856H1425.37V650.159H1425.53V650.461H1425.68V650.764H1425.83V651.066H1425.98V651.369H1426.13V651.671H1426.28V651.973H1426.43V652.276H1426.58V652.578H1426.74V652.881H1426.89V653.183H1427.04V653.637H1427.19V653.939H1427.34V654.242H1427.49V654.544H1427.64V654.998H1427.79V655.301H1427.95V655.603H1428.1V655.906H1428.25V656.359H1428.4V656.662H1428.55V656.964H1428.7V657.418H1428.85V657.72H1429V658.023H1429.15V658.325H1429.31V658.779H1429.46V659.081H1429.61V659.535H1429.76V659.838H1429.91V660.291H1430.06V660.594H1430.21V661.047H1430.36V661.35H1430.52V661.804H1430.67V662.106H1430.82V662.56H1430.97V662.862H1431.12V663.316H1431.27V663.618H1431.42V664.072H1431.57V664.526H1431.73V664.98H1431.88V665.282H1432.03V665.736H1432.18V666.189H1432.33V666.643H1432.48V667.097H1432.63V667.399H1432.78V667.853H1432.94V668.307H1433.09V668.76H1433.24V669.063H1433.39V669.517H1433.54V669.97H1433.69V670.575H1433.84V671.029H1433.99V671.483H1434.15V671.936H1434.3V672.39H1434.45V672.844H1434.6V673.297H1434.75V673.751H1434.9V674.205H1435.05V674.658H1435.2V675.263H1435.36V675.717H1435.51V676.322H1435.66V676.776H1435.81V677.229H1435.96V677.834H1436.11V678.288H1436.26V678.893H1436.41V679.347H1436.57V679.952H1436.72V680.405H1436.87V681.01H1437.02V681.615H1437.17V682.22H1437.32V682.825H1437.47V683.43H1437.62V684.035H1437.78V684.64H1437.93V685.094H1438.08V685.698H1438.23V686.303H1438.38V687.06H1438.53V687.665H1438.68V688.421H1438.83V689.026H1438.99V689.782H1439.14V690.387H1439.29V691.143H1439.44V691.748H1439.59V692.504H1439.74V693.26H1439.89V694.168H1440.04V694.924H1440.19V695.68H1440.35V696.436H1440.5V697.192H1440.65V698.1H1440.8V699.007H1440.95V699.914H1441.1V700.822H1441.25V701.729H1441.4V702.637H1441.56V703.544H1441.71V704.754H1441.86V705.813H1442.01V706.871H1442.16V708.081H1442.31V709.14H1442.46V710.501H1442.61V711.862H1442.77V713.374H1442.92V714.735H1443.07V716.248H1443.22V718.214H1443.37V720.028H1443.52V721.994H1443.67V724.868H1443.82V727.741H1443.98V733.186H1444.13V741.504H1443.98V747.099H1443.82V750.275H1443.67V753.149H1443.52V755.115H1443.37V757.232H1443.22V759.047H1443.07V760.71H1442.92V762.223H1442.77V763.886H1442.61V765.247H1442.46V766.457H1442.31V767.667H1442.16V769.028H1442.01V770.238H1441.86V771.297H1441.71V772.355H1441.56V773.414H1441.4V774.472H1441.25V775.531H1441.1V776.438H1440.95V777.346H1440.8V778.253H1440.65V779.161H1440.5V780.068H1440.35V780.975H1440.19V781.883H1440.04V782.639H1439.89V783.395H1439.74V784.303H1439.59V785.059H1439.44V785.815H1439.29V786.571H1439.14V787.327H1438.99V788.083H1438.83V788.84H1438.68V789.445H1438.53V790.201H1438.38V790.957H1438.23V791.562H1438.08V792.318H1437.93V792.923H1437.78V793.679H1437.62V794.284H1437.47V794.889H1437.32V795.494H1437.17V796.25H1437.02V796.855H1436.87V797.46H1436.72V798.065H1436.57V798.67H1436.41V799.275H1436.26V799.88H1436.11V800.485H1435.96V800.938H1435.81V801.543H1435.66V802.148H1435.51V802.602H1435.36V803.207H1435.2V803.812H1435.05V804.417H1434.9V804.87H1434.75V805.475H1434.6V805.929H1434.45V806.534H1434.3V806.988H1434.15V807.441H1433.99V808.046H1433.84V808.5H1433.69V809.105H1433.54V809.559H1433.39V810.012H1433.24V810.617H1433.09V811.071H1432.94V811.525H1432.78V811.978H1432.63V812.432H1432.48V812.886H1432.33V813.491H1432.18V813.944H1432.03V814.398H1431.88V814.852H1431.73V815.305H1431.57V815.759H1431.42V816.213H1431.27V816.667H1431.12V817.12H1430.97V817.574H1430.82V818.028H1430.67V818.481H1430.52V818.935H1430.36V819.238H1430.21V819.691H1430.06V820.145H1429.91V820.447H1429.76V820.901H1429.61V821.204H1429.46V821.657H1429.31V822.111H1429.15V822.413H1429V822.867H1428.85V823.17H1428.7V823.623H1428.55V824.077H1428.4V824.379H1428.25V824.833H1428.1V825.136H1427.95V825.589H1427.79V826.043H1427.64V826.345H1427.49V826.799H1427.34V827.253H1427.19V827.555H1427.04V828.009H1426.89V828.312H1426.74V828.614H1426.58V829.068H1426.43V829.37H1426.28V829.673H1426.13V830.126H1425.98V830.429H1425.83V830.731H1425.68V831.185H1425.53V831.487H1425.37V831.79H1425.22V832.244H1425.07V832.546H1424.92V832.849H1424.77V833.302H1424.62V833.605H1424.47V833.907H1424.32V834.361H1424.16V834.663H1424.01V834.966H1423.86V835.419H1423.71V835.722H1423.56V836.024H1423.41V836.478H1423.26V836.781H1423.11V837.083H1422.95V837.386H1422.8V837.839H1422.65V838.142H1422.5V838.444H1422.35V838.898H1422.2V839.2H1422.05V839.503H1421.9V839.956H1421.74V840.259H1421.59V840.561H1421.44V840.864H1421.29V841.166H1421.14V841.469H1420.99V841.771H1420.84V842.225H1420.69V842.527H1420.53V842.83H1420.38V843.132H1420.23V843.435H1420.08V843.737H1419.93V844.04H1419.78V844.342H1419.63V844.796H1419.48V845.098H1419.32V845.401H1419.17V845.703H1419.02V846.006H1418.87V846.308H1418.72V846.611H1418.57V846.913H1418.42V847.216H1418.27V847.669H1418.11V847.972H1417.96V848.274H1417.81V848.577H1417.66V848.879H1417.51V849.182H1417.36V849.484H1417.21V849.787H1417.06V850.089H1416.9V850.543H1416.75V850.845H1416.6V851.148H1416.45V851.45H1416.3V851.753H1416.15V852.055H1416V852.358H1415.85V852.66H1415.7V852.963H1415.54V853.265H1415.39V853.567H1415.24V853.87H1415.09V854.172H1414.94V854.475H1414.79V854.777H1414.64V855.08H1414.49V855.382H1414.33V855.685H1414.18V855.987H1414.03V856.29H1413.88V856.592H1413.73V856.895H1413.58V857.197H1413.43V857.651H1413.28V857.953H1413.12V858.256H1412.97V858.558H1412.82V858.861H1412.67V859.163H1412.52V859.466H1412.37V859.768H1412.22V860.071H1412.07V860.373H1411.91V860.675H1411.76V860.978H1411.61V861.28H1411.46V861.583H1411.31V861.885H1411.16V862.188H1411.01V862.49H1410.86V862.793H1410.7V863.095H1410.55V863.398H1410.4V863.7H1410.25V864.003H1410.1V864.154H1409.95V864.456H1409.8V864.759H1409.65V865.061H1409.49V865.364H1409.34V865.666H1409.19V865.817H1409.04V866.12H1408.89V866.422H1408.74V866.574H1408.59V866.876H1408.44V867.178H1408.28V867.481H1408.13V867.632H1407.98V867.935H1407.83V868.237H1407.68V868.388H1407.53V868.691H1407.38V868.993H1407.23V869.145H1407.07V869.447H1406.92V869.749H1406.77V869.901H1406.62V870.203H1406.47V870.506H1406.32V870.657H1406.17V870.959H1406.02V871.262H1405.86V871.413H1405.71V871.715H1405.56V872.018H1405.41V872.169H1405.26V872.472H1405.11V872.774H1404.96V872.925H1404.81V873.228H1404.66V873.53H1404.5V873.682H1404.35V873.984H1404.2V874.286H1404.05V874.438H1403.9V874.74H1403.75V875.043H1403.6V875.345H1403.45V875.496H1403.29V875.799H1403.14V876.101H1402.99V876.252H1402.84V876.555H1402.69V876.857H1402.54V877.16H1402.39V877.462H1402.24V877.614H1402.08V877.916H1401.93V878.219H1401.78V878.521H1401.63V878.823H1401.48V879.126H1401.33V879.428H1401.18V879.731H1401.03V880.033H1400.87V880.185H1400.72V880.638H1400.57V880.941H1400.42V881.243H1400.27V881.546H1400.12V881.848H1399.97V882.151H1399.82V882.453H1399.66V882.756H1399.51V883.209H1399.36V883.512H1399.21V883.814H1399.06V884.268H1398.91V884.57H1398.76V885.024H1398.61V885.326H1398.45V885.78H1398.3V886.234H1398.15V886.839H1398V887.293H1397.85V887.897H1397.7V888.502H1397.55V889.107H1397.4V890.166H1397.24V895.157H1397.4V896.669H1397.55V898.181H1397.7V898.937H1397.85V899.845H1398V900.601H1398.15V901.357H1398.3V902.113H1398.45V902.718H1398.61V903.323H1398.76V903.777H1398.91V904.382H1399.06V904.987H1399.21V905.592H1399.36V906.045H1399.51V906.499H1399.66V906.953H1399.82V907.407H1399.97V907.86H1400.12V908.314H1400.27V908.768H1400.42V909.221H1400.57V909.675H1400.72V910.129H1400.87V910.582H1401.03V910.885H1401.18V911.339H1401.33V911.792H1401.48V912.095H1401.63V912.548H1401.78V912.851H1401.93V913.305H1402.08V913.607H1402.24V914.061H1402.39V914.363H1402.54V914.817H1402.69V915.119H1402.84V915.422H1402.99V915.876H1403.14V916.178H1403.29V916.632H1403.45V916.934H1403.6V917.237H1403.75V917.69H1403.9V917.993H1404.05V918.295H1404.2V918.598H1404.35V919.052H1404.5V919.354H1404.66V919.656H1404.81V919.959H1404.96V920.261H1405.11V920.715H1405.26V921.018H1405.41V921.32H1405.56V921.622H1405.71V921.925H1405.86V922.379H1406.02V922.681H1406.17V922.984H1406.32V923.286H1406.47V923.589H1406.62V923.891H1406.77V924.193H1406.92V924.496H1407.07V924.798H1407.23V925.252H1407.38V925.555H1407.53V925.857H1407.68V926.159H1407.83V926.462H1407.98V926.764H1408.13V927.067H1408.28V927.369H1408.44V927.672H1408.59V927.974H1408.74V928.277H1408.89V928.73H1409.04V929.033H1409.19V929.335H1409.34V929.638H1409.49V929.94H1409.65V930.243H1409.8V930.545H1409.95V930.848H1410.1V931.15H1410.25V931.453H1410.4V931.755H1410.55V932.209H1410.7V932.511H1410.86V932.814H1411.01V933.116H1411.16V933.419H1411.31V933.721H1411.46V934.024H1411.61V934.326H1411.76V934.629H1411.91V935.082H1412.07V935.385H1412.22V935.687H1412.37V935.99H1412.52V936.292H1412.67V936.746H1412.82V937.048H1412.97V937.351H1413.12V937.653H1413.28V937.956H1413.43V938.258H1413.58V938.712H1413.73V939.014H1413.88V939.317H1414.03V939.77H1414.18V940.073H1414.33V940.375H1414.49V940.829H1414.64V941.132H1414.79V941.434H1414.94V941.737H1415.09V942.19H1415.24V942.493H1415.39V942.946H1415.54V943.249H1415.7V943.703H1415.85V944.156H1416V944.459H1416.15V944.912H1416.3V945.215H1416.45V945.669H1416.6V945.971H1416.75V946.425H1416.9V946.878H1417.06V947.332H1417.21V947.786H1417.36V948.24H1417.51V948.693H1417.66V949.147H1417.81V949.601H1417.96V950.054H1418.11V950.659H1418.27V951.113H1418.42V951.718H1418.57V952.172H1418.72V952.777H1418.87V953.381H1419.02V954.138H1419.17V954.743H1419.32V955.499H1419.48V956.255H1419.63V957.011H1419.78V957.767H1419.93V958.523H1420.08V959.28H1420.23V960.187H1420.38V961.094H1420.53V962.002H1420.69V962.909H1420.84V963.817H1420.99V964.875H1421.14V966.085H1421.29V967.295H1421.44V968.505H1421.59V969.715H1421.74V971.378H1421.9V973.193H1422.05V975.008H1422.2V978.033H1422.35V981.662" fill="url(#paint3_linear_26_1858)"/>
</g>
<path d="M1267.89 687.262C1244.47 796.105 1240.45 912.32 1230.21 1023.08C1219.58 1138.18 1210.22 1253.4 1202 1368.7C1200.17 1394.28 1240.17 1394.24 1241.88 1368.7C1249.46 1255.62 1258.13 1142.62 1268.04 1029.72C1272.89 974.385 1277.86 919.064 1283.17 863.774C1288.64 806.729 1297.8 748.695 1298.29 691.376C1298.43 674.285 1271.63 669.884 1267.89 687.262Z" fill="#0F8C2A"/>
<path d="M1345.48 835.047C1314.64 878.135 1282.34 919.578 1247.72 959.532C1230.56 936.581 1215.64 911.786 1196.11 890.993C1187.8 882.143 1171.32 891.267 1175.32 903.101C1187.18 938.204 1211.1 968.927 1229.95 1000.56C1236.26 1011.16 1252.41 1014.18 1261.19 1004.59C1304.12 957.681 1344.41 907.933 1380.2 855.338C1394.89 833.751 1360.34 814.283 1345.48 835.047Z" fill="#0F8C2A"/>
<path d="M1253.08 -242.358C1253.08 -242.358 1134.52 -253.135 984.969 -130.534C835.422 -7.93259 726.293 176.645 354.445 187.423C28.4023 196.873 -149.438 392.209 -149.438 392.209L-107.664 -185.773L1232.87 -278.734L1253.08 -242.358Z" fill="#387CA0"/>
<path d="M-284.017 -269.697C-284.017 -269.697 -147.726 -159.255 66.2969 -158.706C388.899 -157.88 459.073 -105.502 738.259 101.589C1083 357.313 1568.1 80.5553 1568.1 80.5553L1359.3 -588.473L-284.017 -269.697Z" fill="#5AA2C6"/>
</g>
<defs>
<linearGradient id="paint0_linear_26_1858" x1="1213.43" y1="399.526" x2="1234.77" y2="506.057" gradientUnits="userSpaceOnUse">
<stop stop-color="#E4F752"/>
<stop offset="1" stop-color="#3B8537"/>
</linearGradient>
<linearGradient id="paint1_linear_26_1858" x1="1320.43" y1="420.118" x2="1320.43" y2="659.621" gradientUnits="userSpaceOnUse">
<stop stop-color="#E4F752"/>
<stop offset="1" stop-color="#3B8537"/>
</linearGradient>
<linearGradient id="paint2_linear_26_1858" x1="1000.52" y1="617.951" x2="1016.48" y2="939.368" gradientUnits="userSpaceOnUse">
<stop stop-color="#E4F752"/>
<stop offset="1" stop-color="#3B8537"/>
</linearGradient>
<linearGradient id="paint3_linear_26_1858" x1="1273.89" y1="679.002" x2="1273.89" y2="1196.32" gradientUnits="userSpaceOnUse">
<stop stop-color="#E4F752"/>
<stop offset="1" stop-color="#3B8537"/>
</linearGradient>
<clipPath id="clip0_26_1858">
<rect width="1512" height="982" fill="white"/>
</clipPath>
</defs>
</svg>
