<svg width="1512" height="767" viewBox="0 0 1512 767" fill="none" xmlns="http://www.w3.org/2000/svg">
<g clip-path="url(#clip0_26_1858)">
<rect width="1512" height="767" fill="white"/>
<mask id="mask0_26_1858" style="mask-type:luminance" maskUnits="userSpaceOnUse" x="1131" y="169" width="73" height="118">
<path d="M1195.15 223.745C1196.1 220.249 1197.05 216.702 1197.51 213.098C1199.11 200.484 1195.88 185.24 1186.63 176.022C1174.44 163.881 1157.06 169.307 1144.96 178.553C1140.14 182.23 1137.24 186.785 1135.59 191.799C1134.74 193.158 1133.99 194.578 1133.39 196.053C1131.28 201.199 1130.7 206.946 1131.76 212.421C1132.37 215.594 1133.66 218.906 1135.11 221.796C1136.18 223.934 1138.16 226.106 1138.62 228.47C1139.41 232.492 1136.75 237.731 1136.02 241.681C1134.88 247.764 1135.1 254.051 1136.89 260C1140.42 271.78 1149.27 281.773 1161.39 285.025C1173.05 288.158 1185.87 285.472 1194.27 276.522C1202.79 267.448 1205.83 253.481 1200.6 241.964C1198.87 238.167 1194.09 234.105 1193.55 229.917C1193.34 228.219 1194.74 225.25 1195.15 223.745Z" fill="white"/>
</mask>
<g mask="url(#mask0_26_1858)">
<path d="M1168.57 286.297V286.145H1166.6V285.994H1165.24V285.843H1164.49V285.692H1163.58V285.54H1162.82V285.389H1162.07V285.238H1161.61V285.087H1161.01V284.936H1160.4V284.784H1159.95V284.633H1159.5V284.482H1159.19V284.331H1158.74V284.179H1158.29V284.028H1157.98V283.877H1157.53V283.726H1157.08V283.574H1156.77V283.423H1156.47V283.272H1156.17V283.121H1155.87V282.969H1155.56V282.818H1155.26V282.667H1154.96V282.516H1154.81V282.365H1154.5V282.213H1154.2V282.062H1153.9V281.911H1153.6V281.76H1153.3V281.608H1152.99V281.457H1152.69V281.306H1152.54V281.155H1152.24V281.003H1152.09V280.852H1151.93V280.701H1151.63V280.55H1151.48V280.399H1151.18V280.247H1151.03V280.096H1150.88V279.945H1150.57V279.794H1150.42V279.642H1150.12V279.491H1149.97V279.34H1149.67V279.189H1149.51V279.037H1149.36V278.886H1149.06V278.735H1148.91V278.584H1148.76V278.432H1148.61V278.281H1148.46V278.13H1148.3V277.979H1148.15V277.828H1148V277.676H1147.85V277.525H1147.7V277.374H1147.55V277.223H1147.25V277.071H1147.09V276.92H1146.94V276.769H1146.79V276.618H1146.64V276.466H1146.49V276.315H1146.34V276.164H1146.19V276.013H1146.04V275.862H1145.88V275.71H1145.73V275.559H1145.58V275.408H1145.43V275.257H1145.28V274.954H1145.13V274.803H1144.98V274.652H1144.83V274.5H1144.67V274.349H1144.52V274.198H1144.37V273.895H1144.22V273.744H1144.07V273.593H1143.92V273.442H1143.77V273.291H1143.62V272.988H1143.46V272.837H1143.31V272.686H1143.16V272.534H1143.01V272.383H1142.86V272.081H1142.71V271.929H1142.56V271.627H1142.41V271.476H1142.25V271.173H1142.1V271.022H1141.95V270.72H1141.8V270.417H1141.65V270.266H1141.5V269.963H1141.35V269.812H1141.2V269.51H1141.05V269.358H1140.89V269.056H1140.74V268.905H1140.59V268.602H1140.44V268.451H1140.29V268.149H1140.14V267.695H1139.99V267.392H1139.84V267.09H1139.68V266.788H1139.53V266.485H1139.38V266.183H1139.23V265.88H1139.08V265.578H1138.93V265.275H1138.78V264.973H1138.63V264.67H1138.47V264.368H1138.32V264.065H1138.17V263.612H1138.02V263.309H1137.87V262.855H1137.72V262.553H1137.57V262.099H1137.42V261.646H1137.26V261.343H1137.11V260.889H1136.96V260.284H1136.81V259.831H1136.66V259.377H1136.51V258.772H1136.36V258.016H1136.21V257.26H1136.05V256.655H1135.9V255.899H1135.75V254.689H1135.6V253.328H1135.45V251.815H1135.3V245.917H1135.45V244.556H1135.6V243.195H1135.75V242.288H1135.9V241.38H1136.05V240.775H1136.21V240.17H1136.36V239.566H1136.51V239.112H1136.66V238.507H1136.81V238.053H1136.96V237.599H1137.11V237.146H1137.26V236.541H1137.42V236.087H1137.57V235.633H1137.72V235.029H1137.87V234.575H1138.02V233.97H1138.17V233.365H1138.32V232.609H1138.47V231.701H1138.63V228.525H1138.47V227.921H1138.32V227.618H1138.17V227.164H1138.02V226.862H1137.87V226.559H1137.72V226.257H1137.57V225.955H1137.42V225.652H1137.26V225.501H1137.11V225.198H1136.96V224.896H1136.81V224.745H1136.66V224.442H1136.51V224.14H1136.36V223.988H1136.21V223.686H1136.05V223.535H1135.9V223.232H1135.75V222.93H1135.6V222.779H1135.45V222.476H1135.3V222.325H1135.15V222.022H1135V221.72H1134.84V221.418H1134.69V220.964H1134.54V220.661H1134.39V220.359H1134.24V220.056H1134.09V219.754H1133.94V219.3H1133.79V218.998H1133.63V218.544H1133.48V218.242H1133.33V217.788H1133.18V217.485H1133.03V217.032H1132.88V216.578H1132.73V216.124H1132.58V215.671H1132.42V215.217H1132.27V214.612H1132.12V214.007H1131.97V213.402H1131.82V212.797H1131.67V212.041H1131.52V210.982H1131.37V209.319H1131.21V204.782H1131.37V203.27H1131.52V202.362H1131.67V201.606H1131.82V200.699H1131.97V199.791H1132.12V199.337H1132.27V198.884H1132.42V198.279H1132.58V197.825H1132.73V197.371H1132.88V196.918H1133.03V196.464H1133.18V196.162H1133.33V195.708H1133.48V195.405H1133.63V195.103H1133.79V194.8H1133.94V194.498H1134.09V194.196H1134.24V193.893H1134.39V193.591H1134.54V193.288H1134.69V192.986H1134.84V192.683H1135V192.532H1135.15V192.229H1135.3V191.927H1135.45V191.625H1135.6V191.171H1135.75V190.717H1135.9V190.415H1136.05V190.112H1136.21V189.659H1136.36V189.356H1136.51V189.054H1136.66V188.6H1136.81V188.297H1136.96V187.995H1137.11V187.692H1137.26V187.541H1137.42V187.239H1137.57V186.936H1137.72V186.634H1137.87V186.483H1138.02V186.18H1138.17V185.878H1138.32V185.726H1138.47V185.424H1138.63V185.122H1138.78V184.819H1138.93V184.668H1139.08V184.365H1139.23V184.214H1139.38V184.063H1139.53V183.912H1139.68V183.609H1139.84V183.458H1139.99V183.307H1140.14V183.155H1140.29V183.004H1140.44V182.702H1140.59V182.551H1140.74V182.399H1140.89V182.248H1141.05V181.946H1141.2V181.794H1141.35V181.643H1141.5V181.492H1141.65V181.341H1141.8V181.189H1141.95V181.038H1142.1V180.887H1142.25V180.736H1142.41V180.585H1142.56V180.433H1142.71V180.282H1142.86V180.131H1143.01V179.98H1143.16V179.828H1143.31V179.677H1143.46V179.526H1143.62V179.375H1143.92V179.223H1144.07V179.072H1144.22V178.921H1144.37V178.77H1144.52V178.618H1144.83V178.467H1144.98V178.316H1145.13V178.165H1145.43V178.014H1145.58V177.862H1145.88V177.711H1146.04V177.56H1146.19V177.409H1146.49V177.257H1146.64V177.106H1146.94V176.955H1147.09V176.804H1147.25V176.652H1147.55V176.501H1147.85V176.35H1148V176.199H1148.3V176.048H1148.46V175.896H1148.76V175.745H1148.91V175.594H1149.21V175.443H1149.36V175.291H1149.67V175.14H1149.97V174.989H1150.12V174.838H1150.42V174.686H1150.72V174.535H1151.03V174.384H1151.18V174.233H1151.48V174.081H1151.78V173.93H1152.09V173.779H1152.39V173.628H1152.69V173.477H1152.99V173.325H1153.3V173.174H1153.6V173.023H1153.9V172.872H1154.2V172.72H1154.5V172.569H1154.81V172.418H1155.11V172.267H1155.41V172.115H1155.87V171.964H1156.17V171.813H1156.47V171.662H1156.92V171.511H1157.23V171.359H1157.68V171.208H1158.13V171.057H1158.59V170.906H1158.89V170.754H1159.34V170.603H1159.8V170.452H1160.25V170.301H1160.86V170.149H1161.46V169.998H1162.07V169.847H1162.67V169.696H1163.28V169.544H1164.18V169.393H1164.94V169.242H1166V169.091H1167.66V168.94H1171.75V169.091H1172.96V169.242H1174.17V169.393H1174.77V169.544H1175.53V169.696H1176.13V169.847H1176.74V169.998H1177.19V170.149H1177.64V170.301H1177.95V170.452H1178.4V170.603H1178.85V170.754H1179.31V170.906H1179.61V171.057H1179.91V171.208H1180.21V171.359H1180.52V171.511H1180.67V171.662H1180.97V171.813H1181.27V171.964H1181.58V172.115H1181.88V172.267H1182.18V172.418H1182.33V172.569H1182.63V172.72H1182.79V172.872H1183.09V173.023H1183.24V173.174H1183.39V173.325H1183.69V173.477H1183.84V173.628H1184.15V173.779H1184.3V173.93H1184.45V174.081H1184.75V174.233H1184.9V174.384H1185.05V174.535H1185.21V174.686H1185.36V174.838H1185.66V174.989H1185.81V175.14H1185.96V175.291H1186.11V175.443H1186.26V175.594H1186.42V175.745H1186.57V175.896H1186.72V176.048H1186.87V176.199H1187.02V176.35H1187.17V176.501H1187.32V176.652H1187.47V176.804H1187.62V176.955H1187.78V177.106H1187.93V177.409H1188.08V177.56H1188.23V177.711H1188.38V177.862H1188.53V178.014H1188.68V178.316H1188.83V178.467H1188.99V178.618H1189.14V178.77H1189.29V179.072H1189.44V179.223H1189.59V179.375H1189.74V179.526H1189.89V179.828H1190.04V179.98H1190.2V180.282H1190.35V180.433H1190.5V180.736H1190.65V181.038H1190.8V181.189H1190.95V181.492H1191.1V181.643H1191.25V181.946H1191.41V182.248H1191.56V182.399H1191.71V182.702H1191.86V182.853H1192.01V183.155H1192.16V183.458H1192.31V183.609H1192.46V183.912H1192.62V184.214H1192.77V184.517H1192.92V184.819H1193.07V185.122H1193.22V185.575H1193.37V185.878H1193.52V186.18H1193.67V186.483H1193.83V186.785H1193.98V187.088H1194.13V187.541H1194.28V187.844H1194.43V188.146H1194.58V188.449H1194.73V188.902H1194.88V189.356H1195.04V189.81H1195.19V190.263H1195.34V190.717H1195.49V191.171H1195.64V191.625H1195.79V192.229H1195.94V192.683H1196.09V193.137H1196.25V193.742H1196.4V194.347H1196.55V195.103H1196.7V195.859H1196.85V196.464H1197V197.22H1197.15V197.976H1197.3V199.035H1197.46V200.396H1197.61V201.606H1197.76V202.967H1197.91V210.377H1197.76V212.344H1197.61V213.553H1197.46V214.461H1197.3V215.368H1197.15V216.124H1197V216.881H1196.85V217.637H1196.7V218.393H1196.55V218.998H1196.4V219.603H1196.25V220.208H1196.09V220.813H1195.94V221.418H1195.79V222.022H1195.64V222.476H1195.49V223.081H1195.34V223.686H1195.19V224.291H1195.04V224.593H1194.88V225.047H1194.73V225.501H1194.58V225.955H1194.43V226.408H1194.28V226.862H1194.13V227.316H1193.98V227.921H1193.83V228.374H1193.67V230.492H1193.83V230.945H1193.98V231.55H1194.13V231.853H1194.28V232.155H1194.43V232.458H1194.58V232.76H1194.73V233.062H1194.88V233.365H1195.04V233.667H1195.19V233.819H1195.34V234.121H1195.49V234.424H1195.64V234.575H1195.79V234.877H1195.94V235.029H1196.09V235.18H1196.25V235.482H1196.4V235.633H1196.55V235.936H1196.7V236.087H1196.85V236.238H1197V236.541H1197.15V236.692H1197.3V236.843H1197.46V237.146H1197.61V237.297H1197.76V237.448H1197.91V237.751H1198.06V237.902H1198.21V238.204H1198.36V238.356H1198.51V238.507H1198.67V238.809H1198.82V238.961H1198.97V239.112H1199.12V239.414H1199.27V239.566H1199.42V239.868H1199.57V240.019H1199.72V240.322H1199.87V240.473H1200.03V240.775H1200.18V241.078H1200.33V241.38H1200.48V241.683H1200.63V241.985H1200.78V242.288H1200.93V242.59H1201.08V243.044H1201.24V243.498H1201.39V243.8H1201.54V244.254H1201.69V244.707H1201.84V245.161H1201.99V245.766H1202.14V246.22H1202.29V246.825H1202.45V247.43H1202.6V248.186H1202.75V248.942H1202.9V250.001H1203.05V251.362H1203.2V256.806H1203.05V258.318H1202.9V259.226H1202.75V260.133H1202.6V260.889H1202.45V261.494H1202.29V262.251H1202.14V262.704H1201.99V263.309H1201.84V263.763H1201.69V264.217H1201.54V264.67H1201.39V265.124H1201.24V265.578H1201.08V265.88H1200.93V266.334H1200.78V266.788H1200.63V267.09H1200.48V267.392H1200.33V267.695H1200.18V267.997H1200.03V268.3H1199.87V268.754H1199.72V269.056H1199.57V269.358H1199.42V269.51H1199.27V269.812H1199.12V270.115H1198.97V270.417H1198.82V270.72H1198.67V270.871H1198.51V271.173H1198.36V271.476H1198.21V271.627H1198.06V271.929H1197.91V272.081H1197.76V272.383H1197.61V272.534H1197.46V272.837H1197.3V272.988H1197.15V273.291H1197V273.442H1196.85V273.593H1196.7V273.895H1196.55V274.047H1196.4V274.198H1196.25V274.5H1196.09V274.652H1195.94V274.803H1195.79V275.105H1195.64V275.257H1195.49V275.408H1195.34V275.559H1195.19V275.71H1195.04V275.862H1194.88V276.164H1194.73V276.315H1194.58V276.466H1194.43V276.618H1194.28V276.769H1194.13V276.92H1193.98V277.071H1193.83V277.223H1193.67V277.374H1193.52V277.525H1193.37V277.676H1193.22V277.828H1193.07V277.979H1192.92V278.13H1192.62V278.281H1192.46V278.432H1192.31V278.584H1192.16V278.735H1192.01V278.886H1191.86V279.037H1191.56V279.189H1191.41V279.34H1191.25V279.491H1191.1V279.642H1190.95V279.794H1190.65V279.945H1190.5V280.096H1190.2V280.247H1190.04V280.399H1189.74V280.55H1189.59V280.701H1189.29V280.852H1189.14V281.003H1188.83V281.155H1188.68V281.306H1188.38V281.457H1188.23V281.608H1187.93V281.76H1187.78V281.911H1187.47V282.062H1187.32V282.213H1187.02V282.365H1186.72V282.516H1186.42V282.667H1186.11V282.818H1185.81V282.969H1185.36V283.121H1185.05V283.272H1184.75V283.423H1184.45V283.574H1184.15V283.726H1183.84V283.877H1183.54V284.028H1183.09V284.179H1182.63V284.331H1182.18V284.482H1181.73V284.633H1181.27V284.784H1180.82V284.936H1180.37V285.087H1179.76V285.238H1179.31V285.389H1178.7V285.54H1177.79V285.692H1176.89V285.843H1176.13V285.994H1175.22V286.145H1173.26V286.297" fill="url(#paint0_linear_26_1858)"/>
</g>
<path d="M1158.31 192.213C1157.97 215.594 1161.94 239.693 1164.4 262.924C1166.95 287.067 1169.78 311.179 1172.84 335.263C1173.52 340.608 1181.75 338.947 1181.05 333.619C1177.95 310.018 1175.07 286.391 1172.46 262.732C1171.18 251.137 1169.92 239.539 1168.73 227.933C1167.51 215.961 1167 203.631 1164.73 191.808C1164.06 188.283 1158.36 188.481 1158.31 192.213Z" fill="#0F8C2A"/>
<path d="M1180.38 219.449C1175.8 229.593 1170.86 239.46 1165.38 249.116C1160.9 245.096 1156.81 240.606 1151.93 237.129C1149.85 235.65 1146.83 238.208 1148.14 240.479C1152.03 247.22 1158.23 252.561 1163.41 258.299C1165.15 260.221 1168.6 260.174 1170.01 257.839C1176.92 246.409 1183.16 234.502 1188.36 222.195C1190.5 217.144 1182.58 214.559 1180.38 219.449Z" fill="#0F8C2A"/>
<path d="M18 861.129C18 861.129 156.192 728.668 388.573 708.983C738.846 679.313 810.398 615.999 1095.18 365.514C1446.84 56.2074 1998.27 314.42 1998.27 314.42L1830.99 1061.82L18 861.129Z" fill="#5AA2C6"/>
<mask id="mask1_26_1858" style="mask-type:luminance" maskUnits="userSpaceOnUse" x="1211" y="186" width="111" height="230">
<path d="M1318.82 272.212C1314.98 243.095 1308.28 212.749 1282.6 194.982C1254.9 175.827 1226.74 192.282 1216.61 221.362C1206.75 249.636 1211.68 284.955 1217.99 313.478C1222.13 332.19 1228.96 349.836 1237.73 366.558C1242.74 384.619 1250.96 402.054 1265.57 410.623C1278.02 417.93 1294.33 416.368 1304.51 405.816C1315.48 394.456 1316.81 375.889 1318.87 361.054C1322.98 331.399 1322.74 301.878 1318.82 272.212Z" fill="white"/>
</mask>
<g mask="url(#mask1_26_1858)">
<path d="M1279.42 415.147V414.996H1277.76V414.845H1277V414.694H1276.1V414.543H1275.19V414.391H1274.58V414.24H1273.98V414.089H1273.37V413.938H1272.77V413.786H1272.32V413.635H1271.86V413.484H1271.41V413.333H1270.95V413.181H1270.5V413.03H1270.2V412.879H1269.74V412.728H1269.44V412.576H1269.14V412.425H1268.84V412.274H1268.38V412.123H1268.08V411.972H1267.78V411.82H1267.48V411.669H1267.17V411.518H1266.87V411.367H1266.57V411.215H1266.27V411.064H1265.96V410.913H1265.66V410.762H1265.51V410.61H1265.21V410.459H1264.91V410.308H1264.75V410.157H1264.45V410.006H1264.3V409.854H1264V409.703H1263.85V409.552H1263.54V409.401H1263.39V409.249H1263.09V409.098H1262.94V408.947H1262.64V408.796H1262.49V408.644H1262.33V408.493H1262.03V408.342H1261.88V408.191H1261.73V408.039H1261.43V407.888H1261.28V407.737H1261.12V407.586H1260.82V407.435H1260.67V407.283H1260.52V407.132H1260.22V406.981H1260.07V406.83H1259.91V406.678H1259.76V406.527H1259.61V406.376H1259.46V406.225H1259.31V406.073H1259.01V405.922H1258.86V405.771H1258.7V405.62H1258.55V405.469H1258.4V405.317H1258.25V405.166H1258.1V405.015H1257.8V404.864H1257.65V404.712H1257.49V404.41H1257.34V404.259H1257.19V404.107H1257.04V403.956H1256.89V403.805H1256.74V403.654H1256.59V403.502H1256.44V403.351H1256.28V403.2H1256.13V403.049H1255.98V402.898H1255.83V402.746H1255.68V402.595H1255.53V402.444H1255.38V402.293H1255.23V402.141H1255.07V401.99H1254.92V401.839H1254.77V401.536H1254.62V401.385H1254.47V401.234H1254.32V401.083H1254.17V400.932H1254.02V400.78H1253.87V400.629H1253.71V400.327H1253.56V400.175H1253.41V400.024H1253.26V399.873H1253.11V399.57H1252.96V399.419H1252.81V399.268H1252.66V398.965H1252.5V398.814H1252.35V398.663H1252.2V398.512H1252.05V398.209H1251.9V398.058H1251.75V397.907H1251.6V397.604H1251.45V397.453H1251.29V397.151H1251.14V396.999H1250.99V396.848H1250.84V396.546H1250.69V396.395H1250.54V396.092H1250.39V395.941H1250.24V395.638H1250.08V395.487H1249.93V395.185H1249.78V395.033H1249.63V394.731H1249.48V394.58H1249.33V394.277H1249.18V393.975H1249.03V393.824H1248.87V393.521H1248.72V393.37H1248.57V393.067H1248.42V392.765H1248.27V392.614H1248.12V392.311H1247.97V392.009H1247.82V391.858H1247.66V391.555H1247.51V391.253H1247.36V390.95H1247.21V390.648H1247.06V390.496H1246.91V390.194H1246.76V389.891H1246.61V389.589H1246.45V389.438H1246.3V389.135H1246.15V388.833H1246V388.53H1245.85V388.228H1245.7V387.925H1245.55V387.623H1245.4V387.321H1245.24V387.018H1245.09V386.716H1244.94V386.413H1244.79V386.111H1244.64V385.657H1244.49V385.354H1244.34V385.052H1244.19V384.75H1244.03V384.447H1243.88V383.993H1243.73V383.691H1243.58V383.388H1243.43V383.086H1243.28V382.632H1243.13V382.33H1242.98V382.027H1242.83V381.574H1242.67V381.271H1242.52V380.817H1242.37V380.515H1242.22V380.061H1242.07V379.759H1241.92V379.305H1241.77V379.003H1241.62V378.549H1241.46V378.095H1241.31V377.793H1241.16V377.339H1241.01V376.885H1240.86V376.583H1240.71V376.129H1240.56V375.676H1240.41V375.222H1240.25V374.768H1240.1V374.314H1239.95V373.861H1239.8V373.407H1239.65V372.953H1239.5V372.5H1239.35V372.046H1239.2V371.592H1239.04V371.139H1238.89V370.534H1238.74V370.08H1238.59V369.626H1238.44V369.173H1238.29V368.568H1238.14V368.114H1237.99V367.509H1237.83V367.055H1237.68V366.602H1237.53V366.299H1237.38V365.997H1237.23V365.694H1237.08V365.392H1236.93V365.089H1236.78V364.787H1236.62V364.484H1236.47V364.182H1236.32V363.879H1236.17V363.577H1236.02V363.274H1235.87V362.972H1235.72V362.669H1235.57V362.367H1235.41V362.065H1235.26V361.762H1235.11V361.46H1234.96V361.157H1234.81V360.855H1234.66V360.552H1234.51V360.25H1234.36V359.947H1234.2V359.645H1234.05V359.342H1233.9V359.04H1233.75V358.586H1233.6V358.284H1233.45V357.981H1233.3V357.679H1233.15V357.376H1232.99V357.074H1232.84V356.771H1232.69V356.469H1232.54V356.015H1232.39V355.713H1232.24V355.41H1232.09V355.108H1231.94V354.805H1231.78V354.503H1231.63V354.2H1231.48V353.747H1231.33V353.444H1231.18V353.142H1231.03V352.839H1230.88V352.386H1230.73V352.083H1230.58V351.781H1230.42V351.327H1230.27V351.025H1230.12V350.722H1229.97V350.268H1229.82V349.966H1229.67V349.663H1229.52V349.21H1229.37V348.907H1229.21V348.605H1229.06V348.151H1228.91V347.849H1228.76V347.546H1228.61V347.092H1228.46V346.79H1228.31V346.336H1228.16V346.034H1228V345.58H1227.85V345.278H1227.7V344.824H1227.55V344.521H1227.4V344.068H1227.25V343.765H1227.1V343.312H1226.95V342.858H1226.79V342.555H1226.64V342.102H1226.49V341.799H1226.34V341.346H1226.19V341.043H1226.04V340.589H1225.89V340.136H1225.74V339.682H1225.58V339.38H1225.43V338.926H1225.28V338.472H1225.13V338.018H1224.98V337.565H1224.83V337.262H1224.68V336.809H1224.53V336.355H1224.37V335.901H1224.22V335.447H1224.07V335.145H1223.92V334.691H1223.77V334.238H1223.62V333.784H1223.47V333.33H1223.32V332.877H1223.16V332.272H1223.01V331.818H1222.86V331.364H1222.71V330.91H1222.56V330.457H1222.41V330.003H1222.26V329.549H1222.11V328.944H1221.95V328.491H1221.8V328.037H1221.65V327.583H1221.5V327.13H1221.35V326.525H1221.2V325.92H1221.05V325.466H1220.9V324.861H1220.74V324.407H1220.59V323.803H1220.44V323.349H1220.29V322.744H1220.14V322.139H1219.99V321.685H1219.84V321.08H1219.69V320.627H1219.54V320.022H1219.38V319.417H1219.23V318.812H1219.08V318.207H1218.93V317.602H1218.78V316.846H1218.63V316.241H1218.48V315.636H1218.33V315.031H1218.17V314.426H1218.02V313.67H1217.87V313.065H1217.72V312.309H1217.57V311.553H1217.42V310.948H1217.27V310.192H1217.12V309.435H1216.96V308.83H1216.81V308.074H1216.66V307.318H1216.51V306.562H1216.36V305.806H1216.21V305.05H1216.06V304.293H1215.91V303.537H1215.75V302.781H1215.6V302.025H1215.45V301.118H1215.3V300.361H1215.15V299.454H1215V298.698H1214.85V297.79H1214.7V297.034H1214.54V296.127H1214.39V295.219H1214.24V294.312H1214.09V293.405H1213.94V292.346H1213.79V291.439H1213.64V290.531H1213.49V289.473H1213.33V288.414H1213.18V287.355H1213.03V286.297H1212.88V285.238H1212.73V283.877H1212.58V282.667H1212.43V281.457H1212.28V280.096H1212.12V278.735H1211.97V277.071H1211.82V275.559H1211.67V273.896H1211.52V271.778H1211.37V269.51H1211.22V266.788H1211.07V262.251H1210.91V254.84H1211.07V251.211H1211.22V248.488H1211.37V246.674H1211.52V244.859H1211.67V243.195H1211.82V242.137H1211.97V240.927H1212.12V239.868H1212.28V238.658H1212.43V237.6H1212.58V236.843H1212.73V235.936H1212.88V235.18H1213.03V234.272H1213.18V233.516H1213.33V232.76H1213.49V232.004H1213.64V231.399H1213.79V230.643H1213.94V230.038H1214.09V229.433H1214.24V228.828H1214.39V228.223H1214.54V227.618H1214.7V227.013H1214.85V226.408H1215V225.955H1215.15V225.35H1215.3V224.896H1215.45V224.442H1215.6V223.837H1215.75V223.384H1215.91V222.93H1216.06V222.476H1216.21V222.022H1216.36V221.569H1216.51V221.115H1216.66V220.661H1216.81V220.359H1216.96V219.905H1217.12V219.452H1217.27V219.149H1217.42V218.695H1217.57V218.393H1217.72V217.939H1217.87V217.637H1218.02V217.334H1218.17V216.881H1218.33V216.578H1218.48V216.124H1218.63V215.822H1218.78V215.519H1218.93V215.217H1219.08V214.915H1219.23V214.612H1219.38V214.31H1219.54V214.007H1219.69V213.553H1219.84V213.251H1219.99V213.1H1220.14V212.797H1220.29V212.495H1220.44V212.192H1220.59V211.89H1220.74V211.587H1220.9V211.285H1221.05V210.982H1221.2V210.831H1221.35V210.529H1221.5V210.226H1221.65V210.075H1221.8V209.773H1221.95V209.47H1222.11V209.319H1222.26V209.016H1222.41V208.714H1222.56V208.563H1222.71V208.26H1222.86V208.109H1223.01V207.807H1223.16V207.655H1223.32V207.353H1223.47V207.05H1223.62V206.899H1223.77V206.597H1223.92V206.445H1224.07V206.294H1224.22V205.992H1224.37V205.841H1224.53V205.538H1224.68V205.387H1224.83V205.236H1224.98V204.933H1225.13V204.782H1225.28V204.631H1225.43V204.328H1225.58V204.177H1225.74V204.026H1225.89V203.723H1226.04V203.572H1226.19V203.421H1226.34V203.27H1226.49V202.967H1226.64V202.816H1226.79V202.665H1226.95V202.513H1227.1V202.211H1227.25V202.06H1227.4V201.908H1227.55V201.757H1227.7V201.606H1227.85V201.455H1228V201.304H1228.16V201.001H1228.31V200.85H1228.46V200.699H1228.61V200.547H1228.76V200.396H1228.91V200.245H1229.06V200.094H1229.21V199.942H1229.37V199.791H1229.52V199.64H1229.67V199.489H1229.82V199.337H1229.97V199.186H1230.12V199.035H1230.27V198.884H1230.42V198.733H1230.58V198.581H1230.73V198.43H1230.88V198.279H1231.03V198.128H1231.18V197.976H1231.33V197.825H1231.48V197.674H1231.63V197.523H1231.78V197.371H1231.94V197.22H1232.09V197.069H1232.24V196.918H1232.54V196.767H1232.69V196.615H1232.84V196.464H1232.99V196.313H1233.15V196.162H1233.45V196.01H1233.6V195.859H1233.75V195.708H1233.9V195.557H1234.05V195.405H1234.36V195.254H1234.51V195.103H1234.66V194.952H1234.81V194.8H1235.11V194.649H1235.26V194.498H1235.57V194.347H1235.72V194.196H1235.87V194.044H1236.17V193.893H1236.32V193.742H1236.47V193.591H1236.78V193.439H1236.93V193.288H1237.23V193.137H1237.38V192.986H1237.68V192.834H1237.99V192.683H1238.14V192.532H1238.44V192.381H1238.59V192.23H1238.89V192.078H1239.2V191.927H1239.35V191.776H1239.65V191.625H1239.95V191.473H1240.25V191.322H1240.41V191.171H1240.71V191.02H1241.01V190.868H1241.31V190.717H1241.62V190.566H1241.92V190.415H1242.22V190.263H1242.52V190.112H1242.83V189.961H1243.28V189.81H1243.58V189.659H1244.03V189.507H1244.34V189.356H1244.64V189.205H1245.09V189.054H1245.4V188.902H1245.85V188.751H1246.3V188.6H1246.76V188.449H1247.21V188.297H1247.66V188.146H1248.27V187.995H1248.87V187.844H1249.33V187.693H1249.93V187.541H1250.69V187.39H1251.45V187.239H1252.2V187.088H1253.26V186.936H1254.47V186.785H1256.59V186.634H1259.91V186.785H1262.18V186.936H1263.24V187.088H1264.3V187.239H1265.21V187.39H1265.81V187.541H1266.57V187.693H1267.32V187.844H1267.78V187.995H1268.38V188.146H1268.99V188.297H1269.44V188.449H1269.9V188.6H1270.35V188.751H1270.8V188.902H1271.26V189.054H1271.71V189.205H1272.16V189.356H1272.47V189.507H1272.92V189.659H1273.22V189.81H1273.53V189.961H1273.98V190.112H1274.28V190.263H1274.58V190.415H1275.04V190.566H1275.34V190.717H1275.64V190.868H1275.95V191.02H1276.25V191.171H1276.55V191.322H1276.85V191.473H1277.16V191.625H1277.46V191.776H1277.76V191.927H1277.91V192.078H1278.21V192.23H1278.52V192.381H1278.82V192.532H1278.97V192.683H1279.27V192.834H1279.57V192.986H1279.88V193.137H1280.03V193.288H1280.33V193.439H1280.48V193.591H1280.78V193.742H1281.09V193.893H1281.24V194.044H1281.54V194.196H1281.69V194.347H1281.99V194.498H1282.15V194.649H1282.45V194.8H1282.6V194.952H1282.9V195.103H1283.05V195.254H1283.36V195.405H1283.51V195.557H1283.66V195.708H1283.96V195.859H1284.11V196.01H1284.26V196.162H1284.57V196.313H1284.72V196.464H1284.87V196.615H1285.17V196.767H1285.32V196.918H1285.47V197.069H1285.62V197.22H1285.93V197.371H1286.08V197.523H1286.23V197.674H1286.53V197.825H1286.68V197.976H1286.83V198.128H1286.99V198.279H1287.29V198.43H1287.44V198.581H1287.59V198.733H1287.74V198.884H1287.89V199.035H1288.04V199.186H1288.2V199.337H1288.35V199.489H1288.65V199.64H1288.8V199.791H1288.95V199.942H1289.1V200.094H1289.25V200.245H1289.4V200.396H1289.56V200.547H1289.71V200.699H1289.86V200.85H1290.16V201.001H1290.31V201.152H1290.46V201.304H1290.61V201.455H1290.77V201.606H1290.92V201.757H1291.07V201.908H1291.22V202.06H1291.52V202.362H1291.67V202.513H1291.82V202.665H1291.98V202.816H1292.13V202.967H1292.28V203.118H1292.43V203.27H1292.58V203.421H1292.73V203.572H1292.88V203.723H1293.03V203.874H1293.19V204.026H1293.34V204.177H1293.49V204.328H1293.64V204.479H1293.79V204.631H1293.94V204.933H1294.09V205.084H1294.24V205.236H1294.4V205.387H1294.55V205.538H1294.7V205.689H1294.85V205.841H1295V205.992H1295.15V206.143H1295.3V206.294H1295.45V206.445H1295.61V206.748H1295.76V206.899H1295.91V207.05H1296.06V207.202H1296.21V207.504H1296.36V207.655H1296.51V207.807H1296.66V207.958H1296.82V208.26H1296.97V208.411H1297.12V208.563H1297.27V208.714H1297.42V209.016H1297.57V209.168H1297.72V209.319H1297.87V209.47H1298.03V209.773H1298.18V209.924H1298.33V210.075H1298.48V210.226H1298.63V210.529H1298.78V210.68H1298.93V210.982H1299.08V211.134H1299.24V211.436H1299.39V211.587H1299.54V211.739H1299.69V212.041H1299.84V212.192H1299.99V212.495H1300.14V212.646H1300.29V212.948H1300.44V213.1H1300.6V213.402H1300.75V213.553H1300.9V213.856H1301.05V214.007H1301.2V214.31H1301.35V214.461H1301.5V214.612H1301.65V214.915H1301.81V215.217H1301.96V215.368H1302.11V215.671H1302.26V215.973H1302.41V216.276H1302.56V216.427H1302.71V216.729H1302.86V217.032H1303.02V217.183H1303.17V217.485H1303.32V217.788H1303.47V217.939H1303.62V218.242H1303.77V218.544H1303.92V218.847H1304.07V218.998H1304.23V219.3H1304.38V219.603H1304.53V219.905H1304.68V220.208H1304.83V220.51H1304.98V220.813H1305.13V221.115H1305.28V221.418H1305.44V221.72H1305.59V222.022H1305.74V222.325H1305.89V222.627H1306.04V222.93H1306.19V223.232H1306.34V223.535H1306.49V223.837H1306.65V224.14H1306.8V224.442H1306.95V224.745H1307.1V225.047H1307.25V225.501H1307.4V225.803H1307.55V226.106H1307.7V226.559H1307.86V226.862H1308.01V227.164H1308.16V227.618H1308.31V227.921H1308.46V228.223H1308.61V228.526H1308.76V228.979H1308.91V229.282H1309.07V229.735H1309.22V230.189H1309.37V230.492H1309.52V230.945H1309.67V231.399H1309.82V231.701H1309.97V232.155H1310.12V232.609H1310.28V233.063H1310.43V233.365H1310.58V233.819H1310.73V234.272H1310.88V234.726H1311.03V235.18H1311.18V235.633H1311.33V236.087H1311.48V236.541H1311.64V236.995H1311.79V237.6H1311.94V238.053H1312.09V238.507H1312.24V238.961H1312.39V239.414H1312.54V240.019H1312.69V240.473H1312.85V241.078H1313V241.683H1313.15V242.137H1313.3V242.741H1313.45V243.346H1313.6V243.8H1313.75V244.405H1313.9V245.01H1314.06V245.615H1314.21V246.22H1314.36V246.976H1314.51V247.581H1314.66V248.186H1314.81V248.791H1314.96V249.547H1315.11V250.152H1315.27V250.908H1315.42V251.664H1315.57V252.42H1315.72V253.025H1315.87V253.781H1316.02V254.538H1316.17V255.294H1316.32V256.201H1316.48V256.957H1316.63V257.865H1316.78V258.772H1316.93V259.528H1317.08V260.436H1317.23V261.343H1317.38V262.251H1317.53V263.309H1317.69V264.217H1317.84V265.275H1317.99V266.183H1318.14V267.241H1318.29V268.3H1318.44V269.359H1318.59V270.417H1318.74V271.627H1318.9V272.686H1319.05V273.896H1319.2V274.954H1319.35V276.315H1319.5V277.676H1319.65V279.037H1319.8V280.399H1319.95V281.76H1320.11V283.121H1320.26V284.936H1320.41V286.75H1320.56V288.414H1320.71V290.229H1320.86V292.044H1321.01V293.858H1321.16V296.429H1321.32V299.303H1321.47V302.176H1321.62V305.05H1321.77V312.158H1321.92V322.441H1321.77V329.247H1321.62V332.423H1321.47V335.447H1321.32V338.472H1321.16V340.438H1321.01V342.253H1320.86V344.068H1320.71V345.883H1320.56V347.546H1320.41V349.361H1320.26V350.873H1320.11V352.234H1319.95V353.595H1319.8V354.805H1319.65V356.166H1319.5V357.528H1319.35V358.737H1319.2V359.796H1319.05V360.855H1318.9V362.065H1318.74V363.123H1318.59V364.333H1318.44V365.392H1318.29V366.602H1318.14V367.811H1317.99V368.87H1317.84V370.08H1317.69V371.139H1317.53V372.197H1317.38V373.256H1317.23V374.163H1317.08V375.222H1316.93V376.129H1316.78V377.037H1316.63V377.793H1316.48V378.7H1316.32V379.456H1316.17V380.213H1316.02V380.969H1315.87V381.876H1315.72V382.481H1315.57V383.086H1315.42V383.842H1315.27V384.447H1315.11V385.052H1314.96V385.657H1314.81V386.262H1314.66V386.716H1314.51V387.321H1314.36V387.925H1314.21V388.379H1314.06V388.833H1313.9V389.287H1313.75V389.74H1313.6V390.194H1313.45V390.799H1313.3V391.101H1313.15V391.555H1313V392.009H1312.85V392.311H1312.69V392.765H1312.54V393.219H1312.39V393.521H1312.24V393.975H1312.09V394.277H1311.94V394.58H1311.79V394.882H1311.64V395.336H1311.48V395.638H1311.33V395.941H1311.18V396.243H1311.03V396.546H1310.88V396.848H1310.73V397.151H1310.58V397.453H1310.43V397.756H1310.28V398.058H1310.12V398.361H1309.97V398.663H1309.82V398.965H1309.67V399.117H1309.52V399.419H1309.37V399.722H1309.22V399.873H1309.07V400.175H1308.91V400.327H1308.76V400.629H1308.61V400.932H1308.46V401.083H1308.31V401.385H1308.16V401.536H1308.01V401.839H1307.86V401.99H1307.7V402.141H1307.55V402.444H1307.4V402.595H1307.25V402.746H1307.1V403.049H1306.95V403.2H1306.8V403.351H1306.65V403.654H1306.49V403.805H1306.34V403.956H1306.19V404.107H1306.04V404.41H1305.89V404.561H1305.74V404.712H1305.59V404.864H1305.44V405.015H1305.28V405.166H1305.13V405.469H1304.98V405.62H1304.83V405.771H1304.68V405.922H1304.53V406.073H1304.38V406.225H1304.23V406.376H1304.07V406.527H1303.92V406.678H1303.77V406.83H1303.62V406.981H1303.32V407.132H1303.17V407.283H1303.02V407.435H1302.86V407.586H1302.71V407.737H1302.56V407.888H1302.41V408.039H1302.11V408.191H1301.96V408.342H1301.81V408.493H1301.65V408.644H1301.35V408.796H1301.2V408.947H1301.05V409.098H1300.9V409.249H1300.6V409.401H1300.44V409.552H1300.14V409.703H1299.99V409.854H1299.69V410.006H1299.54V410.157H1299.24V410.308H1299.08V410.459H1298.78V410.61H1298.63V410.762H1298.33V410.913H1298.03V411.064H1297.72V411.215H1297.57V411.367H1297.27V411.518H1296.97V411.669H1296.66V411.82H1296.36V411.972H1296.06V412.123H1295.76V412.274H1295.45V412.425H1295V412.576H1294.7V412.728H1294.4V412.879H1293.94V413.03H1293.64V413.181H1293.19V413.333H1292.73V413.484H1292.28V413.635H1291.82V413.786H1291.37V413.938H1290.92V414.089H1290.31V414.24H1289.71V414.391H1289.1V414.543H1288.35V414.694H1287.44V414.845H1286.38V414.996H1284.87V415.147" fill="url(#paint1_linear_26_1858)"/>
</g>
<path d="M1282.35 360.849C1277.28 315.754 1273.52 269.195 1263.41 224.907C1262.22 219.73 1253.73 220.77 1254.05 226.172C1256.76 271.886 1264.72 317.576 1269.51 363.134C1274.31 408.888 1278.34 454.724 1281.65 500.61C1282.28 509.458 1296.18 509.508 1295.5 500.61C1291.93 453.947 1287.58 407.355 1282.35 360.849Z" fill="#0F8C2A"/>
<path d="M1285.3 291.495C1281.8 299.25 1278.05 306.742 1273.83 314.019C1262.96 296.83 1248.78 282.846 1233.73 268.799C1231.64 266.851 1228.75 268.832 1229.2 271.438C1230.98 281.799 1240.06 288.948 1246.35 296.832C1254.78 307.386 1261.58 318.856 1267.68 330.883C1270.18 335.814 1276.85 334.864 1279.57 330.883C1286.9 320.156 1293.13 308.9 1297.86 296.791C1300.67 289.601 1288.5 284.399 1285.3 291.495Z" fill="#0F8C2A"/>
<path d="M22.4993 977.032C22.4993 977.032 156.976 989.257 326.601 850.196C496.224 711.136 620.004 501.779 1041.77 489.553C1411.59 478.835 1613.3 257.275 1613.3 257.275L1565.92 912.851L45.4217 1018.29L22.4993 977.032Z" fill="#387CA0"/>
<mask id="mask2_26_1858" style="mask-type:luminance" maskUnits="userSpaceOnUse" x="874" y="362" width="156" height="350">
<path d="M1025.23 549.391C1030.68 535.331 1031.24 519.792 1026.51 505.419C1021.74 490.938 1011.3 481.858 1002.41 470.097C997.395 463.471 995.196 457.11 996.545 448.797C997.824 440.927 1000.92 433.489 1001.86 425.539C1003.87 408.523 996.589 392.526 984.928 380.42C973.513 368.565 955.852 358.709 939.127 364.463C907.5 375.346 900.832 412.534 910.333 440.961C911.311 445.917 911.833 450.92 910.528 455.9C908.538 463.5 903.231 469.809 898.287 475.697C888.378 487.498 878.007 499.912 875.315 515.606C874.097 522.7 874.518 530.073 877.039 536.848C880.075 545.01 886.016 551.803 888.659 560.108C894.074 577.106 887.444 596.603 886.588 613.942C885.053 645.086 896.017 675.464 921.209 694.866C932.599 703.637 946.671 710.84 961.301 711.293C977.343 711.787 988.858 702.061 997.997 689.886C1007.41 677.341 1015.8 663.569 1019.6 648.198C1023.76 631.355 1019.92 615.164 1016.91 598.522C1015.46 590.469 1014.27 582.012 1015.74 573.876C1017.31 565.183 1022.07 557.54 1025.23 549.391Z" fill="white"/>
</mask>
<g mask="url(#mask2_26_1858)">
<path d="M960.17 711.414V711.263H958.506V711.111H957.145V710.96H955.784V710.809H954.877V710.658H954.121V710.506H953.364V710.355H952.608V710.204H951.852V710.053H951.096V709.901H950.34V709.75H949.886V709.599H949.281V709.448H948.827V709.297H948.222V709.145H947.769V708.994H947.315V708.843H946.71V708.692H946.256V708.54H945.651V708.389H945.198V708.238H944.744V708.087H944.442V707.935H943.988V707.784H943.685V707.633H943.232V707.482H942.929V707.331H942.476V707.179H942.022V707.028H941.719V706.877H941.266V706.726H940.963V706.574H940.51V706.423H940.207V706.272H939.753V706.121H939.451V705.969H939.148V705.818H938.846V705.667H938.544V705.516H938.241V705.364H937.939V705.213H937.636V705.062H937.334V704.911H937.031V704.76H936.729V704.608H936.275V704.457H935.973V704.306H935.67V704.155H935.368V704.003H935.065V703.852H934.763V703.701H934.46V703.55H934.309V703.398H934.007V703.247H933.704V703.096H933.402V702.945H933.25V702.794H932.948V702.642H932.645V702.491H932.343V702.34H932.192V702.189H931.889V702.037H931.587V701.886H931.284V701.735H930.982V701.584H930.831V701.432H930.528V701.281H930.226V701.13H930.074V700.979H929.772V700.827H929.47V700.676H929.318V700.525H929.016V700.374H928.865V700.223H928.562V700.071H928.411V699.92H928.108V699.769H927.957V699.618H927.655V699.466H927.503V699.315H927.201V699.164H927.05V699.013H926.747V698.861H926.445V698.71H926.294V698.559H925.991V698.408H925.84V698.257H925.537V698.105H925.386V697.954H925.084V697.803H924.933V697.652H924.781V697.5H924.479V697.349H924.328V697.198H924.025V697.047H923.874V696.895H923.723V696.744H923.42V696.593H923.269V696.442H922.966V696.29H922.815V696.139H922.664V695.988H922.362V695.837H922.21V695.686H922.059V695.534H921.757V695.383H921.605V695.232H921.454V695.081H921.152V694.929H921V694.778H920.849V694.627H920.698V694.476H920.396V694.324H920.244V694.173H920.093V694.022H919.791V693.871H919.639V693.72H919.488V693.568H919.337V693.417H919.186V693.266H918.883V693.115H918.732V692.963H918.581V692.812H918.429V692.661H918.278V692.51H918.127V692.358H917.825V692.207H917.673V692.056H917.522V691.905H917.371V691.753H917.22V691.602H916.917V691.451H916.766V691.3H916.615V691.149H916.463V690.997H916.312V690.846H916.161V690.695H916.01V690.544H915.859V690.392H915.707V690.241H915.556V690.09H915.405V689.939H915.254V689.787H915.102V689.636H914.8V689.485H914.649V689.334H914.497V689.183H914.346V689.031H914.195V688.88H914.044V688.729H913.893V688.578H913.741V688.426H913.59V688.275H913.439V688.124H913.288V687.973H913.136V687.821H912.985V687.67H912.834V687.519H912.683V687.368H912.531V687.216H912.38V687.065H912.229V686.914H912.078V686.763H911.926V686.612H911.775V686.46H911.624V686.309H911.473V686.158H911.322V686.007H911.17V685.855H911.019V685.704H910.868V685.553H910.717V685.25H910.565V685.099H910.414V684.948H910.263V684.797H910.112V684.646H909.96V684.494H909.809V684.343H909.658V684.192H909.507V684.041H909.356V683.889H909.204V683.738H909.053V683.436H908.902V683.284H908.751V683.133H908.599V682.982H908.448V682.831H908.297V682.679H908.146V682.528H907.994V682.226H907.843V682.075H907.692V681.923H907.541V681.772H907.389V681.47H907.238V681.318H907.087V681.167H906.936V681.016H906.785V680.713H906.633V680.562H906.482V680.411H906.331V680.26H906.18V679.957H906.028V679.806H905.877V679.655H905.726V679.504H905.575V679.201H905.423V679.05H905.272V678.899H905.121V678.747H904.97V678.445H904.819V678.294H904.667V678.142H904.516V677.84H904.365V677.689H904.214V677.386H904.062V677.235H903.911V676.933H903.76V676.781H903.609V676.63H903.457V676.328H903.306V676.176H903.155V675.874H903.004V675.723H902.852V675.42H902.701V675.269H902.55V675.118H902.399V674.815H902.248V674.664H902.096V674.362H901.945V674.21H901.794V673.908H901.643V673.757H901.491V673.454H901.34V673.303H901.189V673.001H901.038V672.698H900.886V672.547H900.735V672.244H900.584V671.942H900.433V671.791H900.282V671.488H900.13V671.186H899.979V671.035H899.828V670.732H899.677V670.43H899.525V670.278H899.374V669.976H899.223V669.825H899.072V669.522H898.92V669.22H898.769V669.068H898.618V668.766H898.467V668.464H898.315V668.161H898.164V667.859H898.013V667.556H897.862V667.254H897.711V666.951H897.559V666.649H897.408V666.346H897.257V666.044H897.106V665.893H896.954V665.59H896.803V665.288H896.652V664.985H896.501V664.683H896.349V664.38H896.198V664.078H896.047V663.775H895.896V663.473H895.745V663.019H895.593V662.717H895.442V662.414H895.291V662.112H895.14V661.658H894.988V661.356H894.837V661.053H894.686V660.751H894.535V660.297H894.383V659.994H894.232V659.692H894.081V659.39H893.93V658.936H893.778V658.633H893.627V658.18H893.476V657.877H893.325V657.424H893.174V656.97H893.022V656.667H892.871V656.214H892.72V655.76H892.569V655.457H892.417V655.004H892.266V654.55H892.115V654.248H891.964V653.794H891.812V653.34H891.661V652.887H891.51V652.282H891.359V651.828H891.208V651.374H891.056V650.92H890.905V650.467H890.754V649.862H890.603V649.408H890.451V648.954H890.3V648.501H890.149V647.896H889.998V647.291H889.846V646.686H889.695V646.081H889.544V645.476H889.393V644.871H889.241V644.266H889.09V643.661H888.939V643.056H888.788V642.3H888.637V641.544H888.485V640.637H888.334V639.88H888.183V639.124H888.032V638.217H887.88V637.461H887.729V636.553H887.578V635.343H887.427V634.134H887.275V633.075H887.124V631.865H886.973V630.353H886.822V628.387H886.671V626.572H886.519V622.489H886.368V615.229H886.519V612.507H886.671V610.541H886.822V609.029H886.973V607.517H887.124V606.155H887.275V604.946H887.427V603.736H887.578V602.677H887.729V601.618H887.88V600.56H888.032V599.501H888.183V598.443H888.334V597.535H888.485V596.476H888.637V595.418H888.788V594.359H888.939V593.452H889.09V592.393H889.241V591.183H889.393V590.125H889.544V589.066H889.695V587.856H889.846V586.646H889.998V585.134H890.149V583.773H890.3V581.958H890.451V579.992H890.603V570.918H890.451V569.103H890.3V567.893H890.149V566.684H889.998V565.776H889.846V565.02H889.695V564.264H889.544V563.508H889.393V562.903H889.241V562.298H889.09V561.693H888.939V561.088H888.788V560.634H888.637V560.18H888.485V559.576H888.334V559.273H888.183V558.819H888.032V558.366H887.88V558.063H887.729V557.61H887.578V557.307H887.427V556.853H887.275V556.551H887.124V556.248H886.973V555.946H886.822V555.643H886.671V555.341H886.519V555.039H886.368V554.585H886.217V554.282H886.066V553.98H885.914V553.677H885.763V553.526H885.612V553.224H885.461V552.921H885.309V552.619H885.158V552.316H885.007V552.014H884.856V551.711H884.704V551.409H884.553V551.258H884.402V550.955H884.251V550.653H884.1V550.35H883.948V550.199H883.797V549.897H883.646V549.594H883.495V549.292H883.343V549.14H883.192V548.838H883.041V548.536H882.89V548.384H882.738V548.082H882.587V547.779H882.436V547.477H882.285V547.326H882.134V547.023H881.982V546.721H881.831V546.569H881.68V546.267H881.529V545.965H881.377V545.662H881.226V545.511H881.075V545.208H880.924V544.906H880.772V544.603H880.621V544.301H880.47V544.15H880.319V543.847H880.167V543.545H880.016V543.242H879.865V542.94H879.714V542.789H879.563V542.486H879.411V542.184H879.26V541.881H879.109V541.579H878.958V541.276H878.806V540.974H878.655V540.671H878.504V540.369H878.353V540.066H878.201V539.764H878.05V539.31H877.899V539.008H877.748V538.705H877.597V538.252H877.445V537.949H877.294V537.647H877.143V537.193H876.992V536.739H876.84V536.437H876.689V535.983H876.538V535.529H876.387V534.925H876.235V534.471H876.084V533.866H875.933V533.261H875.782V532.656H875.63V532.051H875.479V531.295H875.328V530.236H875.177V529.178H875.026V528.119H874.874V527.06H874.723V521.616H874.572V520.86H874.723V519.196H874.874V517.533H875.026V516.323H875.177V515.415H875.328V514.508H875.479V513.752H875.63V513.298H875.782V512.693H875.933V512.088H876.084V511.483H876.235V510.878H876.387V510.273H876.538V509.669H876.689V509.366H876.84V508.912H876.992V508.459H877.143V508.005H877.294V507.703H877.445V507.249H877.597V506.795H877.748V506.341H877.899V506.039H878.05V505.585H878.201V505.132H878.353V504.678H878.504V504.375H878.655V504.073H878.806V503.619H878.958V503.317H879.109V503.014H879.26V502.712H879.411V502.409H879.563V502.107H879.714V501.804H879.865V501.502H880.016V501.199H880.167V500.897H880.319V500.595H880.47V500.292H880.621V499.838H880.772V499.536H880.924V499.233H881.075V498.931H881.226V498.78H881.377V498.477H881.529V498.175H881.68V498.024H881.831V497.721H881.982V497.419H882.134V497.267H882.285V496.965H882.436V496.662H882.587V496.36H882.738V496.209H882.89V495.906H883.041V495.604H883.192V495.453H883.343V495.15H883.495V494.848H883.646V494.696H883.797V494.394H883.948V494.092H884.1V493.94H884.251V493.638H884.402V493.487H884.553V493.184H884.704V493.033H884.856V492.73H885.007V492.579H885.158V492.277H885.309V492.125H885.461V491.823H885.612V491.672H885.763V491.369H885.914V491.218H886.066V491.067H886.217V490.764H886.368V490.613H886.519V490.311H886.671V490.159H886.822V489.857H886.973V489.706H887.124V489.403H887.275V489.252H887.427V489.101H887.578V488.798H887.729V488.647H887.88V488.496H888.032V488.193H888.183V488.042H888.334V487.891H888.485V487.588H888.637V487.437H888.788V487.286H888.939V486.984H889.09V486.832H889.241V486.681H889.393V486.379H889.544V486.227H889.695V486.076H889.846V485.774H889.998V485.622H890.149V485.471H890.3V485.169H890.451V485.018H890.603V484.866H890.754V484.564H890.905V484.413H891.056V484.261H891.208V484.11H891.359V483.808H891.51V483.656H891.661V483.505H891.812V483.354H891.964V483.051H892.115V482.9H892.266V482.749H892.417V482.598H892.569V482.295H892.72V482.144H892.871V481.993H893.022V481.842H893.174V481.69H893.325V481.388H893.476V481.237H893.627V481.085H893.778V480.934H893.93V480.632H894.081V480.481H894.232V480.329H894.383V480.178H894.535V479.876H894.686V479.724H894.837V479.573H894.988V479.422H895.14V479.271H895.291V478.968H895.442V478.817H895.593V478.666H895.745V478.514H895.896V478.363H896.047V478.061H896.198V477.91H896.349V477.758H896.501V477.607H896.652V477.456H896.803V477.153H896.954V477.002H897.106V476.851H897.257V476.7H897.408V476.548H897.559V476.246H897.711V476.095H897.862V475.943H898.013V475.792H898.164V475.641H898.315V475.339H898.467V475.187H898.618V475.036H898.769V474.885H898.92V474.734H899.072V474.431H899.223V474.28H899.374V474.129H899.525V473.977H899.677V473.826H899.828V473.524H899.979V473.373H900.13V473.221H900.282V473.07H900.433V472.919H900.584V472.616H900.735V472.465H900.886V472.314H901.038V472.163H901.189V471.86H901.34V471.709H901.491V471.558H901.643V471.406H901.794V471.255H901.945V470.953H902.096V470.802H902.248V470.65H902.399V470.348H902.55V470.197H902.701V470.045H902.852V469.743H903.004V469.592H903.155V469.44H903.306V469.289H903.457V468.987H903.609V468.836H903.76V468.684H903.911V468.382H904.062V468.231H904.214V467.928H904.365V467.777H904.516V467.626H904.667V467.323H904.819V467.172H904.97V466.869H905.121V466.718H905.272V466.567H905.423V466.265H905.575V465.962H905.726V465.811H905.877V465.508H906.028V465.357H906.18V465.055H906.331V464.903H906.482V464.601H906.633V464.299H906.785V464.147H906.936V463.845H907.087V463.542H907.238V463.24H907.389V463.089H907.541V462.786H907.692V462.484H907.843V462.181H907.994V461.879H908.146V461.576H908.297V461.274H908.448V460.971H908.599V460.669H908.751V460.366H908.902V459.913H909.053V459.61H909.204V459.308H909.356V458.854H909.507V458.552H909.658V458.098H909.809V457.644H909.96V457.191H910.112V456.737H910.263V456.283H910.414V455.678H910.565V455.073H910.717V454.166H910.868V453.258H911.019V452.2H911.17V447.209H911.019V445.394H910.868V444.184H910.717V443.277H910.565V442.218H910.414V441.462H910.263V440.857H910.112V440.404H909.96V439.95H909.809V439.496H909.658V438.891H909.507V438.286H909.356V437.833H909.204V437.228H909.053V436.774H908.902V436.169H908.751V435.715H908.599V434.959H908.448V434.203H908.297V433.598H908.146V432.842H907.994V432.086H907.843V431.481H907.692V430.725H907.541V429.969H907.389V428.91H907.238V427.851H907.087V426.793H906.936V425.734H906.785V424.524H906.633V422.558H906.482V420.29H906.331V412.123H906.482V410.459H906.633V408.645H906.785V406.981H906.936V406.074H907.087V405.318H907.238V404.41H907.389V403.503H907.541V402.595H907.692V401.688H907.843V401.083H907.994V400.478H908.146V399.873H908.297V399.268H908.448V398.814H908.599V398.21H908.751V397.605H908.902V397H909.053V396.395H909.204V395.941H909.356V395.487H909.507V395.034H909.658V394.731H909.809V394.277H909.96V393.824H910.112V393.37H910.263V393.068H910.414V392.614H910.565V392.16H910.717V391.858H910.868V391.404H911.019V390.95H911.17V390.648H911.322V390.345H911.473V390.043H911.624V389.74H911.775V389.438H911.926V388.984H912.078V388.682H912.229V388.379H912.38V388.077H912.531V387.774H912.683V387.472H912.834V387.17H912.985V386.867H913.136V386.565H913.288V386.262H913.439V385.96H913.59V385.657H913.741V385.506H913.893V385.203H914.044V384.901H914.195V384.75H914.346V384.447H914.497V384.296H914.649V383.994H914.8V383.691H914.951V383.54H915.102V383.237H915.254V383.086H915.405V382.784H915.556V382.481H915.707V382.33H915.859V382.028H916.01V381.876H916.161V381.574H916.312V381.271H916.463V381.12H916.615V380.969H916.766V380.666H916.917V380.515H917.068V380.364H917.22V380.213H917.371V379.91H917.522V379.759H917.673V379.608H917.825V379.457H917.976V379.154H918.127V379.003H918.278V378.852H918.429V378.7H918.581V378.398H918.732V378.247H918.883V378.096H919.034V377.944H919.186V377.642H919.337V377.491H919.488V377.339H919.639V377.188H919.791V376.886H919.942V376.734H920.093V376.583H920.244V376.432H920.396V376.281H920.547V376.129H920.698V375.978H921V375.827H921.152V375.676H921.303V375.525H921.454V375.373H921.605V375.222H921.757V375.071H921.908V374.92H922.059V374.768H922.21V374.617H922.362V374.466H922.513V374.315H922.664V374.163H922.815V374.012H922.966V373.861H923.118V373.71H923.269V373.559H923.42V373.407H923.571V373.256H923.723V373.105H923.874V372.954H924.025V372.802H924.328V372.651H924.479V372.5H924.63V372.349H924.933V372.197H925.084V372.046H925.235V371.895H925.537V371.744H925.689V371.592H925.84V371.441H925.991V371.29H926.294V371.139H926.445V370.988H926.596V370.836H926.899V370.685H927.05V370.534H927.201V370.383H927.503V370.231H927.655V370.08H927.806V369.929H928.108V369.778H928.26V369.626H928.562V369.475H928.713V369.324H929.016V369.173H929.318V369.022H929.47V368.87H929.772V368.719H930.074V368.568H930.377V368.417H930.528V368.265H930.831V368.114H931.133V367.963H931.436V367.812H931.587V367.66H931.889V367.509H932.192V367.358H932.494V367.207H932.645V367.055H932.948V366.904H933.25V366.753H933.553V366.602H933.855V366.451H934.158V366.299H934.611V366.148H934.914V365.997H935.216V365.846H935.519V365.694H935.973V365.543H936.275V365.392H936.577V365.241H937.031V365.089H937.334V364.938H937.636V364.787H938.09V364.636H938.544V364.485H938.997V364.333H939.451V364.182H939.905V364.031H940.51V363.88H940.963V363.728H941.568V363.577H942.173V363.426H942.929V363.275H943.837V363.123H944.744V362.972H945.954V362.821H947.92V362.67H950.188V362.821H952.759V362.972H954.121V363.123H955.179V363.275H955.935V363.426H956.692V363.577H957.448V363.728H958.053V363.88H958.658V364.031H959.111V364.182H959.716V364.333H960.17V364.485H960.775V364.636H961.229V364.787H961.682V364.938H961.985V365.089H962.438V365.241H962.892V365.392H963.346V365.543H963.648V365.694H964.102V365.846H964.404V365.997H964.858V366.148H965.161V366.299H965.463V366.451H965.766V366.602H966.219V366.753H966.522V366.904H966.824V367.055H967.127V367.207H967.429V367.358H967.732V367.509H968.034V367.66H968.336V367.812H968.639V367.963H968.941V368.114H969.244V368.265H969.395V368.417H969.698V368.568H970V368.719H970.303V368.87H970.605V369.022H970.756V369.173H971.059V369.324H971.361V369.475H971.512V369.626H971.815V369.778H972.117V369.929H972.269V370.08H972.571V370.231H972.873V370.383H973.025V370.534H973.327V370.685H973.478V370.836H973.63V370.988H973.932V371.139H974.083V371.29H974.386V371.441H974.537V371.592H974.84V371.744H974.991V371.895H975.293V372.046H975.444V372.197H975.747V372.349H975.898V372.5H976.049V372.651H976.352V372.802H976.503V372.954H976.654V373.105H976.957V373.256H977.108V373.407H977.259V373.559H977.562V373.71H977.713V373.861H977.864V374.012H978.167V374.163H978.318V374.315H978.469V374.466H978.62V374.617H978.772V374.768H979.074V374.92H979.225V375.071H979.377V375.222H979.528V375.373H979.679V375.525H979.981V375.676H980.133V375.827H980.284V375.978H980.435V376.129H980.586V376.281H980.889V376.432H981.04V376.583H981.191V376.734H981.343V376.886H981.494V377.037H981.645V377.188H981.796V377.339H981.947V377.491H982.099V377.642H982.25V377.793H982.552V377.944H982.704V378.096H982.855V378.247H983.006V378.398H983.157V378.549H983.309V378.7H983.46V378.852H983.611V379.003H983.762V379.154H983.914V379.305H984.065V379.457H984.216V379.608H984.367V379.759H984.518V379.91H984.67V380.062H984.821V380.213H984.972V380.364H985.123V380.515H985.275V380.666H985.426V380.818H985.577V380.969H985.728V381.12H985.88V381.423H986.031V381.574H986.182V381.725H986.333V381.876H986.484V382.028H986.636V382.179H986.787V382.33H986.938V382.481H987.089V382.633H987.241V382.935H987.392V383.086H987.543V383.237H987.694V383.389H987.846V383.54H987.997V383.842H988.148V383.994H988.299V384.145H988.451V384.296H988.602V384.447H988.753V384.599H988.904V384.901H989.055V385.052H989.207V385.203H989.358V385.355H989.509V385.657H989.66V385.808H989.812V385.96H989.963V386.262H990.114V386.413H990.265V386.565H990.417V386.867H990.568V387.018H990.719V387.17H990.87V387.321H991.021V387.623H991.173V387.774H991.324V388.077H991.475V388.228H991.626V388.531H991.778V388.682H991.929V388.833H992.08V389.136H992.231V389.287H992.383V389.589H992.534V389.74H992.685V390.043H992.836V390.194H992.988V390.497H993.139V390.648H993.29V390.95H993.441V391.102H993.592V391.404H993.744V391.707H993.895V391.858H994.046V392.16H994.197V392.311H994.349V392.614H994.5V392.916H994.651V393.219H994.802V393.37H994.954V393.673H995.105V393.975H995.256V394.277H995.407V394.429H995.558V394.731H995.71V395.034H995.861V395.336H996.012V395.639H996.163V395.941H996.315V396.244H996.466V396.546H996.617V396.848H996.768V397.151H996.92V397.453H997.071V397.756H997.222V398.058H997.373V398.361H997.525V398.663H997.676V399.117H997.827V399.419H997.978V399.722H998.129V400.176H998.281V400.478H998.432V400.781H998.583V401.234H998.734V401.688H998.886V401.99H999.037V402.444H999.188V402.898H999.339V403.351H999.491V403.654H999.642V404.108H999.793V404.713H999.944V405.166H1000.1V405.62H1000.25V406.225H1000.4V406.679H1000.55V407.284H1000.7V407.888H1000.85V408.493H1001V409.25H1001.15V409.855H1001.31V410.611H1001.46V411.518H1001.61V412.425H1001.76V413.484H1001.91V414.845H1002.06V416.358H1002.21V423.314H1002.06V425.129H1001.91V426.49H1001.76V427.549H1001.61V428.305H1001.46V429.061H1001.31V429.817H1001.15V430.573H1001V431.33H1000.85V431.935H1000.7V432.54H1000.55V433.144H1000.4V433.749H1000.25V434.354H1000.1V434.808H999.944V435.413H999.793V436.018H999.642V436.623H999.491V437.228H999.339V437.833H999.188V438.438H999.037V438.891H998.886V439.496H998.734V440.101H998.583V440.555H998.432V441.16H998.281V441.765H998.129V442.37H997.978V442.823H997.827V443.428H997.676V444.184H997.525V444.789H997.373V445.546H997.222V446.151H997.071V446.755H996.92V447.512H996.768V448.419H996.617V449.326H996.466V450.688H996.315V455.829H996.466V457.191H996.617V457.947H996.768V458.552H996.92V459.308H997.071V459.913H997.222V460.366H997.373V460.82H997.525V461.274H997.676V461.728H997.827V462.03H997.978V462.484H998.129V462.786H998.281V463.24H998.432V463.542H998.583V463.845H998.734V464.147H998.886V464.45H999.037V464.752H999.188V465.055H999.339V465.357H999.491V465.508H999.642V465.811H999.793V466.113H999.944V466.416H1000.1V466.567H1000.25V466.869H1000.4V467.172H1000.55V467.323H1000.7V467.626H1000.85V467.777H1001V468.079H1001.15V468.231H1001.31V468.533H1001.46V468.684H1001.61V468.987H1001.76V469.138H1001.91V469.289H1002.06V469.592H1002.21V469.743H1002.36V469.894H1002.52V470.197H1002.67V470.348H1002.82V470.499H1002.97V470.802H1003.12V470.953H1003.27V471.104H1003.42V471.406H1003.57V471.558H1003.73V471.709H1003.88V471.86H1004.03V472.163H1004.18V472.314H1004.33V472.465H1004.48V472.616H1004.63V472.919H1004.78V473.07H1004.93V473.221H1005.09V473.373H1005.24V473.675H1005.39V473.826H1005.54V473.977H1005.69V474.129H1005.84V474.431H1005.99V474.582H1006.14V474.734H1006.3V474.885H1006.45V475.036H1006.6V475.339H1006.75V475.49H1006.9V475.641H1007.05V475.792H1007.2V475.943H1007.35V476.246H1007.51V476.397H1007.66V476.548H1007.81V476.7H1007.96V476.851H1008.11V477.153H1008.26V477.305H1008.41V477.456H1008.56V477.607H1008.72V477.758H1008.87V478.061H1009.02V478.212H1009.17V478.363H1009.32V478.514H1009.47V478.666H1009.62V478.968H1009.77V479.119H1009.93V479.271H1010.08V479.422H1010.23V479.573H1010.38V479.876H1010.53V480.027H1010.68V480.178H1010.83V480.329H1010.98V480.481H1011.14V480.783H1011.29V480.934H1011.44V481.085H1011.59V481.237H1011.74V481.388H1011.89V481.539H1012.04V481.842H1012.19V481.993H1012.35V482.144H1012.5V482.295H1012.65V482.447H1012.8V482.749H1012.95V482.9H1013.1V483.051H1013.25V483.203H1013.4V483.505H1013.56V483.656H1013.71V483.808H1013.86V483.959H1014.01V484.261H1014.16V484.413H1014.31V484.564H1014.46V484.715H1014.61V484.866H1014.77V485.169H1014.92V485.32H1015.07V485.471H1015.22V485.622H1015.37V485.925H1015.52V486.076H1015.67V486.227H1015.82V486.379H1015.97V486.681H1016.13V486.832H1016.28V486.984H1016.43V487.286H1016.58V487.437H1016.73V487.588H1016.88V487.891H1017.03V488.042H1017.18V488.193H1017.34V488.496H1017.49V488.647H1017.64V488.95H1017.79V489.101H1017.94V489.252H1018.09V489.555H1018.24V489.706H1018.39V489.857H1018.55V490.159H1018.7V490.311H1018.85V490.462H1019V490.764H1019.15V490.916H1019.3V491.218H1019.45V491.369H1019.6V491.672H1019.76V491.823H1019.91V492.125H1020.06V492.428H1020.21V492.579H1020.36V492.882H1020.51V493.033H1020.66V493.335H1020.81V493.487H1020.97V493.789H1021.12V494.092H1021.27V494.243H1021.42V494.545H1021.57V494.696H1021.72V494.999H1021.87V495.15H1022.02V495.453H1022.18V495.755H1022.33V496.058H1022.48V496.36H1022.63V496.662H1022.78V496.965H1022.93V497.267H1023.08V497.419H1023.23V497.721H1023.39V498.024H1023.54V498.326H1023.69V498.629H1023.84V498.931H1023.99V499.233H1024.14V499.536H1024.29V499.838H1024.44V500.141H1024.6V500.443H1024.75V500.897H1024.9V501.199H1025.05V501.502H1025.2V501.956H1025.35V502.258H1025.5V502.712H1025.65V503.014H1025.81V503.317H1025.96V503.77H1026.11V504.073H1026.26V504.527H1026.41V504.98H1026.56V505.585H1026.71V506.039H1026.86V506.493H1027.02V506.946H1027.17V507.551H1027.32V508.156H1027.47V508.61H1027.62V509.215H1027.77V509.82H1027.92V510.425H1028.07V511.03H1028.22V511.786H1028.38V512.542H1028.53V513.449H1028.68V514.206H1028.83V514.962H1028.98V515.869H1029.13V516.928H1029.28V518.44H1029.43V519.952H1029.59V521.616H1029.74V529.026H1029.59V530.992H1029.43V533.11H1029.28V534.017H1029.13V535.076H1028.98V535.983H1028.83V536.891H1028.68V537.798H1028.53V538.705H1028.38V539.31H1028.22V539.915H1028.07V540.52H1027.92V541.276H1027.77V541.881H1027.62V542.486H1027.47V543.091H1027.32V543.696H1027.17V544.15H1027.02V544.755H1026.86V545.208H1026.71V545.662H1026.56V546.116H1026.41V546.569H1026.26V547.023H1026.11V547.477H1025.96V547.931H1025.81V548.384H1025.65V548.838H1025.5V549.14H1025.35V549.594H1025.2V549.897H1025.05V550.35H1024.9V550.653H1024.75V551.106H1024.6V551.409H1024.44V551.711H1024.29V552.165H1024.14V552.468H1023.99V552.77H1023.84V553.224H1023.69V553.526H1023.54V553.829H1023.39V554.131H1023.23V554.585H1023.08V554.887H1022.93V555.19H1022.78V555.492H1022.63V555.795H1022.48V556.248H1022.33V556.551H1022.18V556.853H1022.02V557.156H1021.87V557.458H1021.72V557.761H1021.57V558.214H1021.42V558.517H1021.27V558.819H1021.12V559.122H1020.97V559.424H1020.81V559.878H1020.66V560.18H1020.51V560.483H1020.36V560.785H1020.21V561.088H1020.06V561.542H1019.91V561.844H1019.76V562.147H1019.6V562.6H1019.45V562.903H1019.3V563.205H1019.15V563.659H1019V563.961H1018.85V564.264H1018.7V564.717H1018.55V565.02H1018.39V565.474H1018.24V565.927H1018.09V566.23H1017.94V566.684H1017.79V567.137H1017.64V567.44H1017.49V567.893H1017.34V568.498H1017.18V568.952H1017.03V569.406H1016.88V569.859H1016.73V570.313H1016.58V570.918H1016.43V571.523H1016.28V572.128H1016.13V572.733H1015.97V573.489H1015.82V574.396H1015.67V575.153H1015.52V576.665H1015.37V578.631H1015.22V585.588H1015.37V587.402H1015.52V588.764H1015.67V590.125H1015.82V591.486H1015.97V592.696H1016.13V593.754H1016.28V594.662H1016.43V595.569H1016.58V596.476H1016.73V597.384H1016.88V598.291H1017.03V599.047H1017.18V599.955H1017.34V600.711H1017.49V601.618H1017.64V602.375H1017.79V603.131H1017.94V604.038H1018.09V604.794H1018.24V605.702H1018.39V606.458H1018.55V607.365H1018.7V608.121H1018.85V609.029H1019V609.785H1019.15V610.692H1019.3V611.6H1019.45V612.507H1019.6V613.415H1019.76V614.473H1019.91V615.381H1020.06V616.288H1020.21V617.347H1020.36V618.557H1020.51V619.766H1020.66V620.976H1020.81V622.186H1020.97V623.547H1021.12V625.665H1021.27V627.933H1021.42V636.705H1021.27V638.519H1021.12V640.183H1020.97V641.846H1020.81V642.754H1020.66V643.661H1020.51V644.569H1020.36V645.476H1020.21V646.232H1020.06V646.988H1019.91V647.593H1019.76V648.198H1019.6V648.803H1019.45V649.559H1019.3V650.013H1019.15V650.467H1019V651.072H1018.85V651.525H1018.7V651.979H1018.55V652.584H1018.39V653.038H1018.24V653.491H1018.09V654.096H1017.94V654.399H1017.79V654.853H1017.64V655.306H1017.49V655.76H1017.34V656.062H1017.18V656.516H1017.03V656.97H1016.88V657.424H1016.73V657.726H1016.58V658.18H1016.43V658.633H1016.28V659.087H1016.13V659.39H1015.97V659.843H1015.82V660.146H1015.67V660.448H1015.52V660.751H1015.37V661.204H1015.22V661.507H1015.07V661.809H1014.92V662.263H1014.77V662.565H1014.61V662.868H1014.46V663.17H1014.31V663.624H1014.16V663.927H1014.01V664.229H1013.86V664.683H1013.71V664.985H1013.56V665.288H1013.4V665.59H1013.25V665.893H1013.1V666.195H1012.95V666.498H1012.8V666.8H1012.65V667.102H1012.5V667.405H1012.35V667.707H1012.19V668.01H1012.04V668.161H1011.89V668.464H1011.74V668.766H1011.59V669.068H1011.44V669.371H1011.29V669.673H1011.14V669.976H1010.98V670.278H1010.83V670.581H1010.68V670.883H1010.53V671.035H1010.38V671.337H1010.23V671.639H1010.08V671.942H1009.93V672.093H1009.77V672.396H1009.62V672.698H1009.47V673.001H1009.32V673.152H1009.17V673.454H1009.02V673.757H1008.87V674.059H1008.72V674.21H1008.56V674.513H1008.41V674.815H1008.26V675.118H1008.11V675.269H1007.96V675.572H1007.81V675.874H1007.66V676.025H1007.51V676.328H1007.35V676.479H1007.2V676.781H1007.05V676.933H1006.9V677.235H1006.75V677.538H1006.6V677.689H1006.45V677.991H1006.3V678.142H1006.14V678.445H1005.99V678.747H1005.84V678.899H1005.69V679.201H1005.54V679.352H1005.39V679.655H1005.24V679.806H1005.09V680.109H1004.93V680.411H1004.78V680.562H1004.63V680.865H1004.48V681.016H1004.33V681.167H1004.18V681.47H1004.03V681.621H1003.88V681.923H1003.73V682.075H1003.57V682.377H1003.42V682.528H1003.27V682.831H1003.12V682.982H1002.97V683.284H1002.82V683.436H1002.67V683.738H1002.52V683.889H1002.36V684.041H1002.21V684.343H1002.06V684.494H1001.91V684.797H1001.76V684.948H1001.61V685.25H1001.46V685.402H1001.31V685.704H1001.15V685.855H1001V686.007H1000.85V686.309H1000.7V686.46H1000.55V686.612H1000.4V686.914H1000.25V687.065H1000.1V687.368H999.944V687.519H999.793V687.67H999.642V687.973H999.491V688.124H999.339V688.426H999.188V688.578H999.037V688.729H998.886V689.031H998.734V689.183H998.583V689.334H998.432V689.636H998.281V689.787H998.129V689.939H997.978V690.241H997.827V690.392H997.676V690.544H997.525V690.846H997.373V690.997H997.222V691.149H997.071V691.3H996.92V691.602H996.768V691.753H996.617V691.905H996.466V692.207H996.315V692.358H996.163V692.51H996.012V692.661H995.861V692.812H995.71V693.115H995.558V693.266H995.407V693.417H995.256V693.568H995.105V693.72H994.954V694.022H994.802V694.173H994.651V694.324H994.5V694.476H994.349V694.627H994.197V694.929H994.046V695.081H993.895V695.232H993.744V695.383H993.592V695.534H993.441V695.686H993.29V695.837H993.139V695.988H992.988V696.29H992.836V696.442H992.685V696.593H992.534V696.744H992.383V696.895H992.231V697.047H992.08V697.198H991.929V697.349H991.778V697.5H991.626V697.652H991.475V697.803H991.324V697.954H991.173V698.105H991.021V698.257H990.87V698.408H990.719V698.559H990.568V698.71H990.417V698.861H990.265V699.013H990.114V699.164H989.963V699.315H989.812V699.466H989.66V699.618H989.509V699.769H989.358V699.92H989.207V700.071H989.055V700.223H988.904V700.374H988.753V700.525H988.602V700.676H988.299V700.827H988.148V700.979H987.997V701.13H987.846V701.281H987.694V701.432H987.543V701.584H987.241V701.735H987.089V701.886H986.938V702.037H986.787V702.189H986.636V702.34H986.484V702.491H986.182V702.642H986.031V702.794H985.88V702.945H985.577V703.096H985.426V703.247H985.275V703.398H985.123V703.55H984.821V703.701H984.67V703.852H984.518V704.003H984.216V704.155H984.065V704.306H983.762V704.457H983.611V704.608H983.309V704.76H983.157V704.911H983.006V705.062H982.704V705.213H982.552V705.364H982.25V705.516H981.947V705.667H981.796V705.818H981.494V705.969H981.191V706.121H981.04V706.272H980.738V706.423H980.586V706.574H980.284V706.726H979.981V706.877H979.679V707.028H979.377V707.179H979.074V707.331H978.772V707.482H978.469V707.633H978.167V707.784H978.015V707.935H977.713V708.087H977.259V708.238H976.957V708.389H976.654V708.54H976.201V708.692H975.898V708.843H975.596V708.994H975.142V709.145H974.688V709.297H974.235V709.448H973.781V709.599H973.327V709.75H972.873V709.901H972.42V710.053H971.815V710.204H971.21V710.355H970.605V710.506H970.151V710.658H969.244V710.809H968.336V710.96H967.429V711.111H966.068V711.263H964.404V711.414" fill="url(#paint2_linear_26_1858)"/>
</g>
<path d="M956.787 415.22C956.182 411.276 950.881 411.56 950.636 415.524C948.817 444.951 950.452 474.532 951.164 503.977C951.896 534.207 952.426 564.445 952.798 594.68C953.53 654.38 953.344 714.087 952.289 773.784C952.129 782.763 966.142 782.064 966.239 773.091C966.886 713.408 966.694 653.721 965.577 594.046C965.025 564.592 964.187 535.153 963.098 505.715C961.983 475.541 961.377 445.105 956.787 415.22Z" fill="#0F8C2A"/>
<path d="M987.244 627.399C978.636 634.457 970.002 644.856 960.329 650.972C952.392 646.451 945.027 639.03 938.064 633.551C930.683 627.741 923.408 621.805 915.375 616.905C913.247 615.607 910.361 618.618 912.019 620.612C918.982 628.991 927.085 636.264 934.975 643.752C941.148 649.609 948.924 660.914 956.615 664.372C963.272 667.365 967.438 662.378 972.373 658.166C980.304 651.398 988.352 644.745 996.099 637.767C1001.84 632.6 993.293 622.438 987.244 627.399Z" fill="#0F8C2A"/>
<path d="M981.145 535.399C973.689 539.493 962.15 550.161 953.089 547.759C943.97 545.34 933.683 537.208 925.718 532.35C923.124 530.768 920.263 534.841 922.667 536.739C929.12 541.837 935.324 547.263 941.553 552.635C945.393 555.947 950.384 562.598 955.861 563.512C960.19 564.233 964.288 561.369 967.844 559.324C974.834 555.308 981.848 551.215 988.602 546.817C996.041 541.978 988.764 531.215 981.145 535.399Z" fill="#0F8C2A"/>
<path d="M1672.18 502.352C1502.55 511.522 1225.96 508.464 1042.58 584.872C859.205 661.28 707.919 814.093 643.736 950.099L1650.78 800.34L1672.18 502.352Z" fill="#1F6489"/>
<mask id="mask3_26_1858" style="mask-type:luminance" maskUnits="userSpaceOnUse" x="1049" y="373" width="342" height="555">
<path d="M1356.42 655.159C1364.14 639.721 1371.89 624.052 1377.39 607.658C1396.64 550.256 1395.84 476.072 1361.26 424.382C1315.7 356.307 1229.51 365.396 1164.34 397.243C1141.94 408.189 1125.61 423.535 1113.59 441.612C1109.6 447.611 1105.22 453.328 1100.7 458.937C1098.31 461.903 1096.06 464.964 1093.96 468.125C1079.33 490.186 1071.24 516.469 1071.06 543.02C1070.95 558.409 1073.89 575.078 1077.93 589.919C1080.93 600.907 1088.12 612.894 1088.09 624.358C1088.03 643.882 1070.71 665.856 1063.58 683.606C1052.59 710.946 1047.76 740.505 1050.52 769.947C1055.98 828.244 1087.99 883.179 1141.5 909.689C1193.05 935.225 1255.38 934.664 1302.98 900.732C1351.23 866.333 1378.51 803.97 1364.84 745.309C1360.33 725.964 1341.79 702.53 1343.2 682.48C1343.77 674.351 1353.1 661.797 1356.42 655.159Z" fill="white"/>
</mask>
<g mask="url(#mask3_26_1858)">
<path d="M1050.76 773.57V772.36H1050.61V770.999H1050.46V769.336H1050.31V767.672H1050.15V765.101H1050V762.228H1049.85V759.203H1049.7V749.524H1049.85V745.441H1050V743.021H1050.15V740.601H1050.31V738.182H1050.46V736.367H1050.61V735.157H1050.76V733.796H1050.91V732.586H1051.06V731.376H1051.21V730.166H1051.36V728.956H1051.51V727.747H1051.67V726.537H1051.82V725.478H1051.97V724.722H1052.12V723.815H1052.27V723.058H1052.42V722.302H1052.57V721.395H1052.72V720.639H1052.88V719.731H1053.03V718.975H1053.18V718.219H1053.33V717.312H1053.48V716.555H1053.63V715.648H1053.78V714.892H1053.93V714.287H1054.09V713.682H1054.24V713.077H1054.39V712.472H1054.54V711.867H1054.69V711.262H1054.84V710.657H1054.99V710.052H1055.14V709.447H1055.3V708.842H1055.45V708.086H1055.6V707.481H1055.75V706.876H1055.9V706.271H1056.05V705.667H1056.2V705.062H1056.35V704.457H1056.51V704.003H1056.66V703.398H1056.81V702.944H1056.96V702.491H1057.11V702.037H1057.26V701.432H1057.41V700.978H1057.56V700.525H1057.72V700.071H1057.87V699.466H1058.02V699.012H1058.17V698.559H1058.32V698.105H1058.47V697.5H1058.62V697.046H1058.77V696.593H1058.93V696.139H1059.08V695.534H1059.23V695.08H1059.38V694.627H1059.53V694.173H1059.68V693.719H1059.83V693.265H1059.98V692.812H1060.14V692.358H1060.29V691.904H1060.44V691.602H1060.59V691.148H1060.74V690.694H1060.89V690.241H1061.04V689.938H1061.19V689.485H1061.35V689.031H1061.5V688.577H1061.65V688.123H1061.8V687.821H1061.95V687.367H1062.1V686.914H1062.25V686.46H1062.4V686.157H1062.55V685.704H1062.71V685.401H1062.86V684.948H1063.01V684.645H1063.16V684.191H1063.31V683.889H1063.46V683.435H1063.61V683.133H1063.76V682.679H1063.92V682.377H1064.07V682.074H1064.22V681.62H1064.37V681.318H1064.52V681.016H1064.67V680.562H1064.82V680.259H1064.97V679.957H1065.13V679.654H1065.28V679.352H1065.43V679.049H1065.58V678.747H1065.73V678.293H1065.88V677.991H1066.03V677.688H1066.18V677.386H1066.34V677.083H1066.49V676.781H1066.64V676.479H1066.79V676.176H1066.94V675.874H1067.09V675.571H1067.24V675.269H1067.39V674.966H1067.55V674.664H1067.7V674.361H1067.85V674.059H1068V673.756H1068.15V673.454H1068.3V673.151H1068.45V672.849H1068.6V672.698H1068.76V672.395H1068.91V672.093H1069.06V671.79H1069.21V671.488H1069.36V671.185H1069.51V670.883H1069.66V670.58H1069.81V670.429H1069.97V670.127H1070.12V669.824H1070.27V669.522H1070.42V669.219H1070.57V668.917H1070.72V668.614H1070.87V668.463H1071.02V668.161H1071.18V667.858H1071.33V667.556H1071.48V667.253H1071.63V666.951H1071.78V666.8H1071.93V666.497H1072.08V666.195H1072.23V665.892H1072.39V665.59H1072.54V665.287H1072.69V665.136H1072.84V664.834H1072.99V664.531H1073.14V664.229H1073.29V663.926H1073.44V663.775H1073.6V663.472H1073.75V663.17H1073.9V662.868H1074.05V662.565H1074.2V662.263H1074.35V662.111H1074.5V661.809H1074.65V661.506H1074.8V661.204H1074.96V660.901H1075.11V660.599H1075.26V660.297H1075.41V660.145H1075.56V659.843H1075.71V659.54H1075.86V659.238H1076.01V658.935H1076.17V658.633H1076.32V658.482H1076.47V658.179H1076.62V657.877H1076.77V657.574H1076.92V657.272H1077.07V656.969H1077.22V656.667H1077.38V656.364H1077.53V656.062H1077.68V655.76H1077.83V655.608H1077.98V655.306H1078.13V655.003H1078.28V654.701H1078.43V654.398H1078.59V654.096H1078.74V653.794H1078.89V653.491H1079.04V653.189H1079.19V652.886H1079.34V652.584H1079.49V652.281H1079.64V651.979H1079.8V651.676H1079.95V651.374H1080.1V651.071H1080.25V650.769H1080.4V650.466H1080.55V650.164H1080.7V649.71H1080.85V649.408H1081.01V649.105H1081.16V648.803H1081.31V648.5H1081.46V648.198H1081.61V647.895H1081.76V647.593H1081.91V647.139H1082.06V646.837H1082.22V646.534H1082.37V646.081H1082.52V645.778H1082.67V645.476H1082.82V645.022H1082.97V644.72H1083.12V644.417H1083.27V643.963H1083.43V643.661H1083.58V643.358H1083.73V642.905H1083.88V642.451H1084.03V642.149H1084.18V641.695H1084.33V641.241H1084.48V640.939H1084.64V640.485H1084.79V640.031H1084.94V639.729H1085.09V639.275H1085.24V638.821H1085.39V638.368H1085.54V637.763H1085.69V637.309H1085.84V636.855H1086V636.402H1086.15V635.797H1086.3V635.343H1086.45V634.738H1086.6V634.133H1086.75V633.377H1086.9V632.772H1087.05V632.167H1087.21V631.411H1087.36V630.352H1087.51V629.445H1087.66V628.386H1087.81V626.874H1087.96V622.035H1087.81V620.371H1087.66V619.464H1087.51V618.707H1087.36V617.951H1087.21V617.195H1087.05V616.288H1086.9V615.683H1086.75V615.078H1086.6V614.624H1086.45V614.019H1086.3V613.565H1086.15V612.961H1086V612.507H1085.84V611.902H1085.69V611.448H1085.54V610.994H1085.39V610.541H1085.24V610.087H1085.09V609.785H1084.94V609.331H1084.79V608.877H1084.64V608.424H1084.48V607.97H1084.33V607.516H1084.18V607.062H1084.03V606.76H1083.88V606.306H1083.73V606.004H1083.58V605.55H1083.43V605.096H1083.27V604.794H1083.12V604.34H1082.97V604.038H1082.82V603.584H1082.67V603.13H1082.52V602.828H1082.37V602.374H1082.22V602.072H1082.06V601.618H1081.91V601.316H1081.76V600.862H1081.61V600.559H1081.46V600.106H1081.31V599.652H1081.16V599.35H1081.01V598.896H1080.85V598.593H1080.7V598.14H1080.55V597.686H1080.4V597.383H1080.25V596.93H1080.1V596.476H1079.95V596.174H1079.8V595.72H1079.64V595.266H1079.49V594.813H1079.34V594.51H1079.19V594.056H1079.04V593.603H1078.89V593.149H1078.74V592.695H1078.59V592.242H1078.43V591.637H1078.28V591.183H1078.13V590.729H1077.98V590.124H1077.83V589.671H1077.68V589.066H1077.53V588.461H1077.38V587.856H1077.22V587.251H1077.07V586.646H1076.92V586.041H1076.77V585.587H1076.62V584.982H1076.47V584.377H1076.32V583.621H1076.17V583.016H1076.01V582.411H1075.86V581.655H1075.71V581.05H1075.56V580.445H1075.41V579.689H1075.26V579.084H1075.11V578.479H1074.96V577.723H1074.8V576.967H1074.65V576.211H1074.5V575.455H1074.35V574.698H1074.2V573.942H1074.05V573.186H1073.9V572.43H1073.75V571.523H1073.6V570.615H1073.44V569.708H1073.29V568.8H1073.14V567.893H1072.99V566.986H1072.84V566.078H1072.69V564.868H1072.54V563.81H1072.39V562.751H1072.23V561.541H1072.08V560.331H1071.93V558.97H1071.78V557.458H1071.63V555.946H1071.48V554.131H1071.33V551.711H1071.18V549.14H1071.02V538.705H1071.18V535.983H1071.33V533.261H1071.48V531.899H1071.63V530.538H1071.78V529.328H1071.93V527.967H1072.08V526.758H1072.23V525.396H1072.39V524.187H1072.54V522.977H1072.69V522.221H1072.84V521.464H1072.99V520.557H1073.14V519.801H1073.29V519.045H1073.44V518.288H1073.6V517.381H1073.75V516.625H1073.9V515.869H1074.05V515.113H1074.2V514.356H1074.35V513.449H1074.5V512.844H1074.65V512.39H1074.8V511.785H1074.96V511.18H1075.11V510.576H1075.26V510.122H1075.41V509.517H1075.56V508.912H1075.71V508.458H1075.86V507.853H1076.01V507.248H1076.17V506.643H1076.32V506.19H1076.47V505.585H1076.62V504.98H1076.77V504.375H1076.92V503.921H1077.07V503.468H1077.22V503.014H1077.38V502.56H1077.53V502.106H1077.68V501.653H1077.83V501.199H1077.98V500.745H1078.13V500.292H1078.28V499.989H1078.43V499.536H1078.59V499.082H1078.74V498.628H1078.89V498.174H1079.04V497.721H1079.19V497.267H1079.34V496.813H1079.49V496.36H1079.64V496.057H1079.8V495.603H1079.95V495.15H1080.1V494.696H1080.25V494.242H1080.4V493.94H1080.55V493.637H1080.7V493.184H1080.85V492.881H1081.01V492.579H1081.16V492.125H1081.31V491.823H1081.46V491.52H1081.61V491.066H1081.76V490.764H1081.91V490.462H1082.06V490.008H1082.22V489.705H1082.37V489.403H1082.52V488.949H1082.67V488.647H1082.82V488.344H1082.97V487.891H1083.12V487.588H1083.27V487.286H1083.43V486.832H1083.58V486.529H1083.73V486.227H1083.88V485.773H1084.03V485.471H1084.18V485.168H1084.33V484.866H1084.48V484.563H1084.64V484.261H1084.79V483.958H1084.94V483.656H1085.09V483.354H1085.24V483.051H1085.39V482.749H1085.54V482.446H1085.69V482.144H1085.84V481.841H1086V481.69H1086.15V481.388H1086.3V481.085H1086.45V480.783H1086.6V480.48H1086.75V480.178H1086.9V479.875H1087.05V479.573H1087.21V479.27H1087.36V478.968H1087.51V478.665H1087.66V478.363H1087.81V478.06H1087.96V477.758H1088.11V477.455H1088.26V477.153H1088.42V477.002H1088.57V476.699H1088.72V476.397H1088.87V476.094H1089.02V475.792H1089.17V475.641H1089.32V475.338H1089.47V475.036H1089.63V474.884H1089.78V474.582H1089.93V474.28H1090.08V474.128H1090.23V473.826H1090.38V473.523H1090.53V473.372H1090.68V473.07H1090.84V472.767H1090.99V472.616H1091.14V472.314H1091.29V472.011H1091.44V471.86H1091.59V471.557H1091.74V471.255H1091.89V471.104H1092.05V470.801H1092.2V470.499H1092.35V470.196H1092.5V470.045H1092.65V469.743H1092.8V469.591H1092.95V469.289H1093.1V469.138H1093.26V468.835H1093.41V468.684H1093.56V468.381H1093.71V468.23H1093.86V467.928H1094.01V467.777H1094.16V467.474H1094.31V467.323H1094.47V467.02H1094.62V466.869H1094.77V466.718H1094.92V466.415H1095.07V466.264H1095.22V465.962H1095.37V465.81H1095.52V465.508H1095.68V465.357H1095.83V465.206H1095.98V464.903H1096.13V464.752H1096.28V464.449H1096.43V464.298H1096.58V464.147H1096.73V463.844H1096.88V463.693H1097.04V463.391H1097.19V463.24H1097.34V463.088H1097.49V462.786H1097.64V462.635H1097.79V462.483H1097.94V462.181H1098.09V462.03H1098.25V461.878H1098.4V461.576H1098.55V461.425H1098.7V461.273H1098.85V461.122H1099V460.82H1099.15V460.669H1099.3V460.517H1099.46V460.215H1099.61V460.064H1099.76V459.912H1099.91V459.61H1100.06V459.459H1100.21V459.307H1100.36V459.156H1100.51V458.854H1100.67V458.703H1100.82V458.551H1100.97V458.4H1101.12V458.098H1101.27V457.946H1101.42V457.795H1101.57V457.644H1101.72V457.341H1101.88V457.19H1102.03V457.039H1102.18V456.888H1102.33V456.585H1102.48V456.434H1102.63V456.283H1102.78V455.98H1102.93V455.829H1103.09V455.678H1103.24V455.527H1103.39V455.224H1103.54V455.073H1103.69V454.922H1103.84V454.619H1103.99V454.468H1104.14V454.317H1104.3V454.014H1104.45V453.863H1104.6V453.712H1104.75V453.561H1104.9V453.258H1105.05V453.107H1105.2V452.956H1105.35V452.653H1105.51V452.502H1105.66V452.351H1105.81V452.199H1105.96V451.897H1106.11V451.746H1106.26V451.595H1106.41V451.292H1106.56V451.141H1106.72V450.99H1106.87V450.838H1107.02V450.536H1107.17V450.385H1107.32V450.233H1107.47V449.931H1107.62V449.78H1107.77V449.477H1107.92V449.326H1108.08V449.175H1108.23V448.872H1108.38V448.721H1108.53V448.419H1108.68V448.267H1108.83V448.116H1108.98V447.814H1109.13V447.662H1109.29V447.36H1109.44V447.209H1109.59V447.058H1109.74V446.755H1109.89V446.604H1110.04V446.453H1110.19V446.15H1110.34V445.999H1110.5V445.696H1110.65V445.545H1110.8V445.394H1110.95V445.092H1111.1V444.94H1111.25V444.638H1111.4V444.487H1111.55V444.335H1111.71V444.033H1111.86V443.882H1112.01V443.579H1112.16V443.428H1112.31V443.277H1112.46V442.974H1112.61V442.823H1112.76V442.521H1112.92V442.369H1113.07V442.067H1113.22V441.916H1113.37V441.613H1113.52V441.462H1113.67V441.159H1113.82V441.008H1113.97V440.706H1114.13V440.555H1114.28V440.252H1114.43V440.101H1114.58V439.798H1114.73V439.647H1114.88V439.345H1115.03V439.193H1115.18V439.042H1115.34V438.74H1115.49V438.588H1115.64V438.286H1115.79V438.135H1115.94V437.984H1116.09V437.681H1116.24V437.53H1116.39V437.379H1116.55V437.076H1116.7V436.925H1116.85V436.622H1117V436.471H1117.15V436.32H1117.3V436.018H1117.45V435.866H1117.6V435.715H1117.76V435.413H1117.91V435.261H1118.06V434.959H1118.21V434.808H1118.36V434.656H1118.51V434.505H1118.66V434.203H1118.81V434.051H1118.97V433.9H1119.12V433.749H1119.27V433.447H1119.42V433.295H1119.57V433.144H1119.72V432.993H1119.87V432.69H1120.02V432.539H1120.17V432.388H1120.33V432.237H1120.48V431.934H1120.63V431.783H1120.78V431.632H1120.93V431.481H1121.08V431.178H1121.23V431.027H1121.38V430.876H1121.54V430.724H1121.69V430.573H1121.84V430.271H1121.99V430.119H1122.14V429.968H1122.29V429.817H1122.44V429.514H1122.59V429.363H1122.75V429.212H1122.9V429.061H1123.05V428.758H1123.2V428.607H1123.35V428.456H1123.5V428.305H1123.65V428.153H1123.8V428.002H1123.96V427.851H1124.11V427.7H1124.26V427.397H1124.41V427.246H1124.56V427.095H1124.71V426.944H1124.86V426.792H1125.01V426.641H1125.17V426.49H1125.32V426.339H1125.47V426.187H1125.62V426.036H1125.77V425.885H1125.92V425.582H1126.07V425.431H1126.22V425.28H1126.38V425.129H1126.53V424.977H1126.68V424.826H1126.83V424.675H1126.98V424.524H1127.13V424.373H1127.28V424.221H1127.43V424.07H1127.59V423.768H1127.74V423.616H1127.89V423.465H1128.04V423.314H1128.19V423.163H1128.34V423.011H1128.49V422.86H1128.64V422.709H1128.8V422.558H1128.95V422.407H1129.1V422.255H1129.25V422.104H1129.4V421.953H1129.55V421.802H1129.7V421.65H1129.85V421.499H1130.01V421.348H1130.16V421.197H1130.31V421.045H1130.46V420.894H1130.61V420.743H1130.76V420.592H1130.91V420.44H1131.06V420.289H1131.21V420.138H1131.52V419.987H1131.67V419.836H1131.82V419.684H1131.97V419.533H1132.12V419.382H1132.27V419.231H1132.42V419.079H1132.58V418.928H1132.73V418.777H1132.88V418.626H1133.03V418.474H1133.18V418.323H1133.33V418.172H1133.48V418.021H1133.63V417.87H1133.79V417.718H1133.94V417.567H1134.09V417.416H1134.24V417.265H1134.39V417.113H1134.69V416.962H1134.84V416.811H1135V416.66H1135.15V416.508H1135.3V416.357H1135.45V416.206H1135.6V416.055H1135.9V415.903H1136.05V415.752H1136.21V415.601H1136.36V415.45H1136.51V415.299H1136.81V415.147H1136.96V414.996H1137.11V414.845H1137.26V414.694H1137.42V414.542H1137.72V414.391H1137.87V414.24H1138.02V414.089H1138.17V413.937H1138.32V413.786H1138.63V413.635H1138.78V413.484H1138.93V413.333H1139.08V413.181H1139.23V413.03H1139.53V412.879H1139.68V412.728H1139.84V412.576H1139.99V412.425H1140.14V412.274H1140.44V412.123H1140.59V411.971H1140.74V411.82H1140.89V411.669H1141.05V411.518H1141.35V411.366H1141.5V411.215H1141.65V411.064H1141.95V410.913H1142.1V410.762H1142.25V410.61H1142.56V410.459H1142.71V410.308H1143.01V410.157H1143.16V410.005H1143.31V409.854H1143.62V409.703H1143.77V409.552H1144.07V409.4H1144.22V409.249H1144.37V409.098H1144.67V408.947H1144.83V408.796H1144.98V408.644H1145.28V408.493H1145.43V408.342H1145.73V408.191H1145.88V408.039H1146.04V407.888H1146.34V407.737H1146.49V407.586H1146.79V407.434H1146.94V407.283H1147.09V407.132H1147.4V406.981H1147.55V406.829H1147.7V406.678H1148V406.527H1148.15V406.376H1148.46V406.225H1148.61V406.073H1148.91V405.922H1149.06V405.771H1149.36V405.62H1149.67V405.468H1149.82V405.317H1150.12V405.166H1150.27V405.015H1150.57V404.863H1150.88V404.712H1151.03V404.561H1151.33V404.41H1151.48V404.259H1151.78V404.107H1152.09V403.956H1152.24V403.805H1152.54V403.654H1152.69V403.502H1152.99V403.351H1153.29V403.2H1153.45V403.049H1153.75V402.897H1154.05V402.746H1154.2V402.595H1154.5V402.444H1154.66V402.292H1154.96V402.141H1155.26V401.99H1155.41V401.839H1155.71V401.688H1155.87V401.536H1156.17V401.385H1156.47V401.234H1156.77V401.083H1157.08V400.931H1157.23V400.78H1157.53V400.629H1157.83V400.478H1158.13V400.326H1158.44V400.175H1158.74V400.024H1158.89V399.873H1159.19V399.722H1159.5V399.57H1159.8V399.419H1160.1V399.268H1160.4V399.117H1160.55V398.965H1160.86V398.814H1161.16V398.663H1161.46V398.512H1161.76V398.36H1162.07V398.209H1162.22V398.058H1162.67V397.907H1162.97V397.755H1163.28V397.604H1163.58V397.453H1163.88V397.302H1164.18V397.151H1164.49V396.999H1164.79V396.848H1165.09V396.697H1165.39V396.546H1165.7V396.394H1166V396.243H1166.3V396.092H1166.6V395.941H1166.91V395.789H1167.36V395.638H1167.66V395.487H1167.96V395.336H1168.27V395.185H1168.57V395.033H1168.87V394.882H1169.17V394.731H1169.63V394.58H1169.93V394.428H1170.23V394.277H1170.54V394.126H1170.84V393.975H1171.29V393.823H1171.59V393.672H1171.9V393.521H1172.2V393.37H1172.65V393.218H1172.96V393.067H1173.26V392.916H1173.56V392.765H1174.01V392.614H1174.32V392.462H1174.62V392.311H1174.92V392.16H1175.38V392.009H1175.68V391.857H1175.98V391.706H1176.43V391.555H1176.74V391.404H1177.04V391.252H1177.49V391.101H1177.79V390.95H1178.25V390.799H1178.55V390.648H1178.85V390.496H1179.31V390.345H1179.61V390.194H1180.06V390.043H1180.37V389.891H1180.82V389.74H1181.12V389.589H1181.42V389.438H1181.88V389.286H1182.18V389.135H1182.63V388.984H1182.94V388.833H1183.39V388.681H1183.69V388.53H1184.15V388.379H1184.6V388.228H1184.9V388.077H1185.36V387.925H1185.81V387.774H1186.11V387.623H1186.57V387.472H1186.87V387.32H1187.32V387.169H1187.78V387.018H1188.08V386.867H1188.53V386.715H1188.99V386.564H1189.29V386.413H1189.74V386.262H1190.2V386.111H1190.65V385.959H1191.1V385.808H1191.41V385.657H1191.86V385.506H1192.31V385.354H1192.77V385.203H1193.22V385.052H1193.67V384.901H1194.13V384.749H1194.58V384.598H1194.88V384.447H1195.34V384.296H1195.79V384.144H1196.25V383.993H1196.7V383.842H1197.15V383.691H1197.76V383.54H1198.21V383.388H1198.66V383.237H1199.12V383.086H1199.57V382.935H1200.03V382.783H1200.48V382.632H1201.08V382.481H1201.54V382.33H1201.99V382.178H1202.45V382.027H1202.9V381.876H1203.5V381.725H1203.96V381.574H1204.56V381.422H1205.02V381.271H1205.62V381.12H1206.08V380.969H1206.68V380.817H1207.13V380.666H1207.74V380.515H1208.19V380.364H1208.8V380.212H1209.25V380.061H1209.86V379.91H1210.46V379.759H1211.07V379.607H1211.67V379.456H1212.28V379.305H1212.88V379.154H1213.49V379.003H1214.09V378.851H1214.7V378.7H1215.3V378.549H1215.75V378.398H1216.51V378.246H1217.12V378.095H1217.87V377.944H1218.48V377.793H1219.23V377.641H1219.84V377.49H1220.59V377.339H1221.2V377.188H1221.95V377.037H1222.56V376.885H1223.47V376.734H1224.22V376.583H1224.98V376.432H1225.89V376.28H1226.64V376.129H1227.4V375.978H1228.31V375.827H1229.06V375.675H1229.82V375.524H1230.88V375.373H1231.94V375.222H1232.84V375.07H1233.9V374.919H1234.81V374.768H1235.87V374.617H1236.93V374.466H1238.29V374.314H1239.5V374.163H1240.86V374.012H1242.07V373.861H1243.58V373.709H1245.4V373.558H1247.36V373.407H1249.18V373.256H1252.2V373.104H1255.83V372.953H1264.6V373.104H1268.23V373.256H1270.95V373.407H1272.77V373.558H1274.43V373.709H1276.25V373.861H1277.61V374.012H1278.67V374.163H1279.88V374.314H1280.94V374.466H1282.15V374.617H1283.2V374.768H1284.11V374.919H1284.87V375.07H1285.78V375.222H1286.53V375.373H1287.44V375.524H1288.2V375.675H1289.1V375.827H1289.86V375.978H1290.46V376.129H1291.07V376.28H1291.82V376.432H1292.43V376.583H1293.03V376.734H1293.64V376.885H1294.24V377.037H1295V377.188H1295.61V377.339H1296.21V377.49H1296.66V377.641H1297.27V377.793H1297.72V377.944H1298.33V378.095H1298.78V378.246H1299.24V378.398H1299.84V378.549H1300.29V378.7H1300.9V378.851H1301.35V379.003H1301.81V379.154H1302.41V379.305H1302.86V379.456H1303.32V379.607H1303.62V379.759H1304.07V379.91H1304.53V380.061H1304.98V380.212H1305.44V380.364H1305.74V380.515H1306.19V380.666H1306.65V380.817H1307.1V380.969H1307.55V381.12H1308.01V381.271H1308.31V381.422H1308.76V381.574H1309.07V381.725H1309.52V381.876H1309.82V382.027H1310.12V382.178H1310.58V382.33H1310.88V382.481H1311.33V382.632H1311.64V382.783H1311.94V382.935H1312.39V383.086H1312.69V383.237H1313V383.388H1313.45V383.54H1313.75V383.691H1314.21V383.842H1314.51V383.993H1314.81V384.144H1315.11V384.296H1315.42V384.447H1315.72V384.598H1316.02V384.749H1316.32V384.901H1316.63V385.052H1316.93V385.203H1317.23V385.354H1317.53V385.506H1317.84V385.657H1318.14V385.808H1318.44V385.959H1318.74V386.111H1319.2V386.262H1319.5V386.413H1319.8V386.564H1320.11V386.715H1320.41V386.867H1320.71V387.018H1320.86V387.169H1321.16V387.32H1321.47V387.472H1321.77V387.623H1321.92V387.774H1322.22V387.925H1322.53V388.077H1322.83V388.228H1322.98V388.379H1323.28V388.53H1323.58V388.681H1323.89V388.833H1324.04V388.984H1324.34V389.135H1324.64V389.286H1324.94V389.438H1325.1V389.589H1325.4V389.74H1325.7V389.891H1326V390.043H1326.15V390.194H1326.46V390.345H1326.61V390.496H1326.91V390.648H1327.21V390.799H1327.36V390.95H1327.67V391.101H1327.82V391.252H1328.12V391.404H1328.27V391.555H1328.57V391.706H1328.73V391.857H1329.03V392.009H1329.18V392.16H1329.48V392.311H1329.63V392.462H1329.94V392.614H1330.09V392.765H1330.39V392.916H1330.54V393.067H1330.84V393.218H1330.99V393.37H1331.3V393.521H1331.6V393.672H1331.75V393.823H1331.9V393.975H1332.2V394.126H1332.36V394.277H1332.51V394.428H1332.81V394.58H1332.96V394.731H1333.11V394.882H1333.41V395.033H1333.57V395.185H1333.72V395.336H1334.02V395.487H1334.17V395.638H1334.32V395.789H1334.62V395.941H1334.77V396.092H1334.93V396.243H1335.23V396.394H1335.38V396.546H1335.68V396.697H1335.83V396.848H1335.98V396.999H1336.29V397.151H1336.44V397.302H1336.59V397.453H1336.89V397.604H1337.04V397.755H1337.19V397.907H1337.35V398.058H1337.65V398.209H1337.8V398.36H1337.95V398.512H1338.1V398.663H1338.25V398.814H1338.4V398.965H1338.71V399.117H1338.86V399.268H1339.01V399.419H1339.16V399.57H1339.31V399.722H1339.46V399.873H1339.77V400.024H1339.92V400.175H1340.07V400.326H1340.22V400.478H1340.37V400.629H1340.67V400.78H1340.82V400.931H1340.98V401.083H1341.13V401.234H1341.28V401.385H1341.43V401.536H1341.73V401.688H1341.88V401.839H1342.03V401.99H1342.19V402.141H1342.34V402.292H1342.49V402.444H1342.64V402.595H1342.79V402.746H1342.94V402.897H1343.24V403.049H1343.4V403.2H1343.55V403.351H1343.7V403.502H1343.85V403.654H1344V403.805H1344.15V403.956H1344.3V404.107H1344.45V404.259H1344.61V404.41H1344.76V404.561H1344.91V404.712H1345.06V404.863H1345.21V405.015H1345.36V405.166H1345.51V405.317H1345.66V405.468H1345.81V405.62H1345.97V405.771H1346.12V405.922H1346.27V406.073H1346.42V406.225H1346.57V406.376H1346.72V406.527H1346.87V406.678H1347.02V406.829H1347.18V406.981H1347.33V407.132H1347.48V407.283H1347.63V407.434H1347.78V407.586H1347.93V407.737H1348.08V407.888H1348.23V408.039H1348.39V408.191H1348.54V408.342H1348.69V408.493H1348.84V408.644H1348.99V408.796H1349.14V409.098H1349.29V409.249H1349.44V409.4H1349.6V409.552H1349.75V409.703H1349.9V409.854H1350.05V410.005H1350.2V410.157H1350.35V410.308H1350.5V410.459H1350.65V410.61H1350.81V410.913H1350.96V411.064H1351.11V411.215H1351.26V411.366H1351.41V411.518H1351.56V411.669H1351.71V411.82H1351.86V411.971H1352.02V412.123H1352.17V412.274H1352.32V412.576H1352.47V412.728H1352.62V412.879H1352.77V413.03H1352.92V413.333H1353.07V413.484H1353.23V413.635H1353.38V413.786H1353.53V413.937H1353.68V414.24H1353.83V414.391H1353.98V414.542H1354.13V414.694H1354.28V414.996H1354.44V415.147H1354.59V415.299H1354.74V415.45H1354.89V415.752H1355.04V415.903H1355.19V416.055H1355.34V416.206H1355.49V416.508H1355.65V416.66H1355.8V416.811H1355.95V416.962H1356.1V417.265H1356.25V417.416H1356.4V417.567H1356.55V417.718H1356.7V418.021H1356.86V418.172H1357.01V418.323H1357.16V418.474H1357.31V418.777H1357.46V418.928H1357.61V419.231H1357.76V419.382H1357.91V419.533H1358.06V419.836H1358.22V419.987H1358.37V420.138H1358.52V420.44H1358.67V420.592H1358.82V420.894H1358.97V421.045H1359.12V421.197H1359.27V421.499H1359.43V421.65H1359.58V421.802H1359.73V422.104H1359.88V422.255H1360.03V422.558H1360.18V422.709H1360.33V422.86H1360.48V423.163H1360.64V423.314H1360.79V423.616H1360.94V423.768H1361.09V424.07H1361.24V424.221H1361.39V424.524H1361.54V424.675H1361.69V424.977H1361.85V425.129H1362V425.431H1362.15V425.582H1362.3V425.885H1362.45V426.187H1362.6V426.339H1362.75V426.641H1362.9V426.792H1363.06V427.095H1363.21V427.397H1363.36V427.548H1363.51V427.851H1363.66V428.002H1363.81V428.305H1363.96V428.456H1364.11V428.758H1364.27V429.061H1364.42V429.212H1364.57V429.514H1364.72V429.817H1364.87V429.968H1365.02V430.271H1365.17V430.573H1365.32V430.724H1365.48V431.027H1365.63V431.329H1365.78V431.632H1365.93V431.783H1366.08V432.085H1366.23V432.388H1366.38V432.539H1366.53V432.842H1366.69V433.144H1366.84V433.447H1366.99V433.598H1367.14V433.9H1367.29V434.203H1367.44V434.354H1367.59V434.656H1367.74V434.959H1367.9V435.261H1368.05V435.564H1368.2V435.866H1368.35V436.169H1368.5V436.471H1368.65V436.622H1368.8V436.925H1368.95V437.227H1369.1V437.53H1369.26V437.832H1369.41V438.135H1369.56V438.437H1369.71V438.74H1369.86V438.891H1370.01V439.193H1370.16V439.496H1370.31V439.798H1370.47V440.101H1370.62V440.403H1370.77V440.706H1370.92V441.008H1371.07V441.462H1371.22V441.764H1371.37V442.067H1371.52V442.369H1371.68V442.672H1371.83V442.974H1371.98V443.277H1372.13V443.579H1372.28V443.882H1372.43V444.184H1372.58V444.487H1372.73V444.789H1372.89V445.092H1373.04V445.545H1373.19V445.848H1373.34V446.15H1373.49V446.453H1373.64V446.906H1373.79V447.209H1373.94V447.511H1374.1V447.814H1374.25V448.267H1374.4V448.57H1374.55V448.872H1374.7V449.326H1374.85V449.629H1375V449.931H1375.15V450.233H1375.31V450.687H1375.46V450.99H1375.61V451.443H1375.76V451.746H1375.91V452.199H1376.06V452.502H1376.21V452.956H1376.36V453.258H1376.52V453.712H1376.67V454.014H1376.82V454.468H1376.97V454.77H1377.12V455.224H1377.27V455.527H1377.42V455.98H1377.57V456.434H1377.73V456.888H1377.88V457.19H1378.03V457.644H1378.18V458.098H1378.33V458.551H1378.48V459.005H1378.63V459.307H1378.78V459.761H1378.94V460.215H1379.09V460.669H1379.24V460.971H1379.39V461.425H1379.54V461.878H1379.69V462.483H1379.84V462.937H1379.99V463.391H1380.14V463.844H1380.3V464.298H1380.45V464.752H1380.6V465.206H1380.75V465.659H1380.9V466.113H1381.05V466.567H1381.2V467.172H1381.35V467.625H1381.51V468.23H1381.66V468.684H1381.81V469.138H1381.96V469.743H1382.11V470.196H1382.26V470.801H1382.41V471.255H1382.56V471.86H1382.72V472.314H1382.87V472.918H1383.02V473.523H1383.17V474.128H1383.32V474.733H1383.47V475.338H1383.62V475.943H1383.77V476.548H1383.93V477.002H1384.08V477.607H1384.23V478.212H1384.38V478.968H1384.53V479.573H1384.68V480.329H1384.83V480.934H1384.98V481.69H1385.14V482.295H1385.29V483.051H1385.44V483.656H1385.59V484.412H1385.74V485.168H1385.89V486.076H1386.04V486.832H1386.19V487.588H1386.35V488.344H1386.5V489.1H1386.65V490.008H1386.8V490.915H1386.95V491.823H1387.1V492.73H1387.25V493.637H1387.4V494.545H1387.56V495.452H1387.71V496.662H1387.86V497.721H1388.01V498.779H1388.16V499.989H1388.31V501.048H1388.46V502.409H1388.61V503.77H1388.77V505.282H1388.92V506.643H1389.07V508.156H1389.22V510.122H1389.37V511.937H1389.52V513.903H1389.67V516.776H1389.82V519.65H1389.98V525.094H1390.13V533.412H1389.98V539.007H1389.82V542.183H1389.67V545.057H1389.52V547.023H1389.37V549.14H1389.22V550.955H1389.07V552.618H1388.92V554.131H1388.77V555.794H1388.61V557.155H1388.46V558.365H1388.31V559.575H1388.16V560.936H1388.01V562.146H1387.86V563.205H1387.71V564.263H1387.56V565.322H1387.4V566.381H1387.25V567.439H1387.1V568.347H1386.95V569.254H1386.8V570.161H1386.65V571.069H1386.5V571.976H1386.35V572.884H1386.19V573.791H1386.04V574.547H1385.89V575.303H1385.74V576.211H1385.59V576.967H1385.44V577.723H1385.29V578.479H1385.14V579.235H1384.98V579.992H1384.83V580.748H1384.68V581.353H1384.53V582.109H1384.38V582.865H1384.23V583.47H1384.08V584.226H1383.93V584.831H1383.77V585.587H1383.62V586.192H1383.47V586.797H1383.32V587.402H1383.17V588.158H1383.02V588.763H1382.87V589.368H1382.72V589.973H1382.56V590.578H1382.41V591.183H1382.26V591.788H1382.11V592.393H1381.96V592.846H1381.81V593.451H1381.66V594.056H1381.51V594.51H1381.35V595.115H1381.2V595.72H1381.05V596.325H1380.9V596.779H1380.75V597.383H1380.6V597.837H1380.45V598.442H1380.3V598.896H1380.14V599.35H1379.99V599.954H1379.84V600.408H1379.69V601.013H1379.54V601.467H1379.39V601.92H1379.24V602.525H1379.09V602.979H1378.94V603.433H1378.78V603.887H1378.63V604.34H1378.48V604.794H1378.33V605.399H1378.18V605.853H1378.03V606.306H1377.88V606.76H1377.73V607.214H1377.57V607.667H1377.42V608.121H1377.27V608.575H1377.12V609.028H1376.97V609.482H1376.82V609.936H1376.67V610.39H1376.52V610.843H1376.36V611.146H1376.21V611.599H1376.06V612.053H1375.91V612.356H1375.76V612.809H1375.61V613.112H1375.46V613.565H1375.31V614.019H1375.15V614.322H1375V614.775H1374.85V615.078H1374.7V615.531H1374.55V615.985H1374.4V616.288H1374.25V616.741H1374.1V617.044H1373.94V617.498H1373.79V617.951H1373.64V618.254H1373.49V618.707H1373.34V619.161H1373.19V619.464H1373.04V619.917H1372.89V620.22H1372.73V620.522H1372.58V620.976H1372.43V621.278H1372.28V621.581H1372.13V622.035H1371.98V622.337H1371.83V622.639H1371.68V623.093H1371.52V623.396H1371.37V623.698H1371.22V624.152H1371.07V624.454H1370.92V624.757H1370.77V625.21H1370.62V625.513H1370.47V625.815H1370.31V626.269H1370.16V626.572H1370.01V626.874H1369.86V627.328H1369.71V627.63H1369.56V627.933H1369.41V628.386H1369.26V628.689H1369.1V628.991H1368.95V629.294H1368.8V629.747H1368.65V630.05H1368.5V630.352H1368.35V630.806H1368.2V631.109H1368.05V631.411H1367.9V631.865H1367.74V632.167H1367.59V632.47H1367.44V632.772H1367.29V633.075H1367.14V633.377H1366.99V633.679H1366.84V634.133H1366.69V634.436H1366.53V634.738H1366.38V635.041H1366.23V635.343H1366.08V635.646H1365.93V635.948H1365.78V636.25H1365.63V636.704H1365.48V637.007H1365.32V637.309H1365.17V637.612H1365.02V637.914H1364.87V638.216H1364.72V638.519H1364.57V638.821H1364.42V639.124H1364.27V639.578H1364.11V639.88H1363.96V640.183H1363.81V640.485H1363.66V640.787H1363.51V641.09H1363.36V641.392H1363.21V641.695H1363.06V641.997H1362.9V642.451H1362.75V642.753H1362.6V643.056H1362.45V643.358H1362.3V643.661H1362.15V643.963H1362V644.266H1361.85V644.568H1361.69V644.871H1361.54V645.173H1361.39V645.476H1361.24V645.778H1361.09V646.081H1360.94V646.383H1360.79V646.686H1360.64V646.988H1360.48V647.29H1360.33V647.593H1360.18V647.895H1360.03V648.198H1359.88V648.5H1359.73V648.803H1359.58V649.105H1359.43V649.559H1359.27V649.861H1359.12V650.164H1358.97V650.466H1358.82V650.769H1358.67V651.071H1358.52V651.374H1358.37V651.676H1358.22V651.979H1358.06V652.281H1357.91V652.584H1357.76V652.886H1357.61V653.189H1357.46V653.491H1357.31V653.794H1357.16V654.096H1357.01V654.398H1356.86V654.701H1356.7V655.003H1356.55V655.306H1356.4V655.608H1356.25V655.911H1356.1V656.062H1355.95V656.364H1355.8V656.667H1355.65V656.969H1355.49V657.272H1355.34V657.574H1355.19V657.726H1355.04V658.028H1354.89V658.331H1354.74V658.482H1354.59V658.784H1354.44V659.087H1354.28V659.389H1354.13V659.54H1353.98V659.843H1353.83V660.145H1353.68V660.297H1353.53V660.599H1353.38V660.901H1353.23V661.053H1353.07V661.355H1352.92V661.658H1352.77V661.809H1352.62V662.111H1352.47V662.414H1352.32V662.565H1352.17V662.868H1352.02V663.17H1351.86V663.321H1351.71V663.624H1351.56V663.926H1351.41V664.077H1351.26V664.38H1351.11V664.682H1350.96V664.834H1350.81V665.136H1350.65V665.438H1350.5V665.59H1350.35V665.892H1350.2V666.195H1350.05V666.346H1349.9V666.648H1349.75V666.951H1349.6V667.253H1349.44V667.405H1349.29V667.707H1349.14V668.009H1348.99V668.161H1348.84V668.463H1348.69V668.766H1348.54V669.068H1348.39V669.371H1348.23V669.522H1348.08V669.824H1347.93V670.127H1347.78V670.429H1347.63V670.732H1347.48V671.034H1347.33V671.337H1347.18V671.639H1347.02V671.942H1346.87V672.093H1346.72V672.546H1346.57V672.849H1346.42V673.151H1346.27V673.454H1346.12V673.756H1345.97V674.059H1345.81V674.361H1345.66V674.664H1345.51V675.117H1345.36V675.42H1345.21V675.722H1345.06V676.176H1344.91V676.479H1344.76V676.932H1344.61V677.235H1344.45V677.688H1344.3V678.142H1344.15V678.747H1344V679.201H1343.85V679.806H1343.7V680.411H1343.55V681.016H1343.4V682.074H1343.24V687.065H1343.4V688.577H1343.55V690.09H1343.7V690.846H1343.85V691.753H1344V692.509H1344.15V693.265H1344.3V694.022H1344.45V694.627H1344.61V695.231H1344.76V695.685H1344.91V696.29H1345.06V696.895H1345.21V697.5H1345.36V697.954H1345.51V698.407H1345.66V698.861H1345.81V699.315H1345.97V699.768H1346.12V700.222H1346.27V700.676H1346.42V701.13H1346.57V701.583H1346.72V702.037H1346.87V702.491H1347.02V702.793H1347.18V703.247H1347.33V703.701H1347.48V704.003H1347.63V704.457H1347.78V704.759H1347.93V705.213H1348.08V705.515H1348.23V705.969H1348.39V706.271H1348.54V706.725H1348.69V707.028H1348.84V707.33H1348.99V707.784H1349.14V708.086H1349.29V708.54H1349.44V708.842H1349.6V709.145H1349.75V709.599H1349.9V709.901H1350.05V710.204H1350.2V710.506H1350.35V710.96H1350.5V711.262H1350.65V711.565H1350.81V711.867H1350.96V712.17H1351.11V712.623H1351.26V712.926H1351.41V713.228H1351.56V713.531H1351.71V713.833H1351.86V714.287H1352.02V714.589H1352.17V714.892H1352.32V715.194H1352.47V715.497H1352.62V715.799H1352.77V716.102H1352.92V716.404H1353.07V716.707H1353.23V717.16H1353.38V717.463H1353.53V717.765H1353.68V718.068H1353.83V718.37H1353.98V718.673H1354.13V718.975H1354.28V719.278H1354.44V719.58H1354.59V719.882H1354.74V720.185H1354.89V720.639H1355.04V720.941H1355.19V721.244H1355.34V721.546H1355.49V721.849H1355.65V722.151H1355.8V722.453H1355.95V722.756H1356.1V723.058H1356.25V723.361H1356.4V723.663H1356.55V724.117H1356.7V724.419H1356.86V724.722H1357.01V725.024H1357.16V725.327H1357.31V725.629H1357.46V725.932H1357.61V726.234H1357.76V726.537H1357.91V726.99H1358.06V727.293H1358.22V727.595H1358.37V727.898H1358.52V728.2H1358.67V728.654H1358.82V728.956H1358.97V729.259H1359.12V729.561H1359.27V729.864H1359.43V730.166H1359.58V730.62H1359.73V730.923H1359.88V731.225H1360.03V731.679H1360.18V731.981H1360.33V732.284H1360.48V732.737H1360.64V733.04H1360.79V733.342H1360.94V733.645H1361.09V734.098H1361.24V734.401H1361.39V734.855H1361.54V735.157H1361.69V735.611H1361.85V736.064H1362V736.367H1362.15V736.821H1362.3V737.123H1362.45V737.577H1362.6V737.879H1362.75V738.333H1362.9V738.787H1363.06V739.24H1363.21V739.694H1363.36V740.148H1363.51V740.601H1363.66V741.055H1363.81V741.509H1363.96V741.963H1364.11V742.567H1364.27V743.021H1364.42V743.626H1364.57V744.08H1364.72V744.685H1364.87V745.29H1365.02V746.046H1365.17V746.651H1365.32V747.407H1365.48V748.163H1365.63V748.919H1365.78V749.675H1365.93V750.432H1366.08V751.188H1366.23V752.095H1366.38V753.003H1366.53V753.91H1366.69V754.817H1366.84V755.725H1366.99V756.783H1367.14V757.993H1367.29V759.203H1367.44V760.413H1367.59V761.623H1367.74V763.286H1367.9V765.101H1368.05V766.916H1368.2V769.941H1368.35V773.57" fill="url(#paint3_linear_26_1858)"/>
</g>
<path d="M1213.89 479.171C1190.47 588.013 1186.45 704.228 1176.21 814.986C1165.58 930.089 1156.22 1045.3 1148 1160.61C1146.17 1186.19 1186.17 1186.14 1187.88 1160.61C1195.46 1047.53 1204.13 934.525 1214.03 821.625C1218.89 766.293 1223.86 710.972 1229.17 655.683C1234.64 598.637 1243.8 540.603 1244.28 483.284C1244.43 466.193 1217.63 461.792 1213.89 479.171Z" fill="#0F8C2A"/>
<path d="M1291.48 626.956C1260.64 670.044 1228.34 711.486 1193.72 751.44C1176.56 728.489 1161.64 703.694 1142.11 682.901C1133.8 674.051 1117.32 683.175 1121.32 695.009C1133.18 730.112 1157.1 760.835 1175.95 792.471C1182.26 803.069 1198.41 806.084 1207.19 796.497C1250.12 749.589 1290.41 699.841 1326.2 647.247C1340.88 625.66 1306.34 606.191 1291.48 626.956Z" fill="#0F8C2A"/>
<path d="M5.80324 -304.697C5.80324 -304.697 142.094 -194.255 356.117 -193.706C678.719 -192.88 748.893 -140.502 1028.08 66.5895C1372.82 322.313 1857.92 45.5553 1857.92 45.5553L1649.12 -623.473L5.80324 -304.697Z" fill="white"/>
<path d="M1388.63 -7.08775C1388.63 -7.08775 1273.98 -50.0751 1089.44 47.58C904.904 145.235 742.359 322.559 369.714 237.449C42.9724 162.822 -191 334.196 -191 334.196L19.941 -299.424L1379.21 -52.931L1388.63 -7.08775Z" fill="url(#paint4_linear_26_1858)"/>
</g>
<defs>
<linearGradient id="paint0_linear_26_1858" x1="1159.43" y1="191.434" x2="1180.77" y2="297.965" gradientUnits="userSpaceOnUse">
<stop stop-color="#E4F752"/>
<stop offset="1" stop-color="#3B8537"/>
</linearGradient>
<linearGradient id="paint1_linear_26_1858" x1="1266.43" y1="212.026" x2="1266.43" y2="451.53" gradientUnits="userSpaceOnUse">
<stop stop-color="#E4F752"/>
<stop offset="1" stop-color="#3B8537"/>
</linearGradient>
<linearGradient id="paint2_linear_26_1858" x1="946.515" y1="409.859" x2="962.477" y2="731.277" gradientUnits="userSpaceOnUse">
<stop stop-color="#E4F752"/>
<stop offset="1" stop-color="#3B8537"/>
</linearGradient>
<linearGradient id="paint3_linear_26_1858" x1="1219.89" y1="470.91" x2="1219.89" y2="988.223" gradientUnits="userSpaceOnUse">
<stop stop-color="#E4F752"/>
<stop offset="1" stop-color="#3B8537"/>
</linearGradient>
<linearGradient id="paint4_linear_26_1858" x1="316.5" y1="-16.3039" x2="351.938" y2="140.613" gradientUnits="userSpaceOnUse">
<stop offset="0.104167" stop-color="#18C2F8"/>
<stop offset="1" stop-color="#80D4FF" stop-opacity="0"/>
</linearGradient>
<clipPath id="clip0_26_1858">
<rect width="1512" height="767" fill="white"/>
</clipPath>
</defs>
</svg>
