<svg width="73" height="118" viewBox="0 0 73 118" fill="none" xmlns="http://www.w3.org/2000/svg">
<mask id="mask0_2_898" style="mask-type:luminance" maskUnits="userSpaceOnUse" x="0" y="0" width="73" height="118">
<path d="M64.1495 54.8367C65.1022 51.3402 66.052 47.7938 66.5103 44.1899C68.1088 31.5756 64.883 16.3312 55.629 7.11354C43.4411 -5.02747 26.0644 0.398743 13.9567 9.64515C9.14295 13.3216 6.24227 17.8768 4.59382 22.8902C3.74087 24.2498 2.98926 25.6698 2.38735 27.1444C0.282185 32.2908 -0.300176 38.0377 0.75997 43.5123C1.37247 46.6852 2.66409 49.9973 4.10837 52.8873C5.1791 55.0258 7.15565 57.1975 7.62144 59.5612C8.41391 63.584 5.75375 68.8228 5.01725 72.773C3.88149 78.8556 4.10528 85.1424 5.88832 91.0919C9.41659 102.871 18.2744 112.865 30.3866 116.116C42.0543 119.25 54.8698 116.564 63.2724 107.614C71.7898 98.5402 74.8356 84.5722 69.6014 73.0558C67.8743 69.2583 63.0894 65.1962 62.554 61.0086C62.3362 59.3102 63.7396 56.3415 64.1495 54.8367Z" fill="white"/>
</mask>
<g mask="url(#mask0_2_898)">
<path d="M37.5702 117.388V117.237H35.6042V117.086H34.2431V116.935H33.4869V116.783H32.5795V116.632H31.8233V116.481H31.0672V116.33H30.6135V116.178H30.0085V116.027H29.4036V115.876H28.9499V115.725H28.4962V115.573H28.1937V115.422H27.74V115.271H27.2863V115.12H26.9839V114.969H26.5302V114.817H26.0765V114.666H25.774V114.515H25.4715V114.364H25.1691V114.212H24.8666V114.061H24.5641V113.91H24.2617V113.759H23.9592V113.607H23.808V113.456H23.5055V113.305H23.203V113.154H22.9006V113.002H22.5981V112.851H22.2956V112.7H21.9932V112.549H21.6907V112.398H21.5395V112.246H21.237V112.095H21.0858V111.944H20.9345V111.793H20.6321V111.641H20.4808V111.49H20.1784V111.339H20.0271V111.188H19.8759V111.036H19.5734V110.885H19.4222V110.734H19.1197V110.583H18.9685V110.432H18.666V110.28H18.5148V110.129H18.3636V109.978H18.0611V109.827H17.9099V109.675H17.7586V109.524H17.6074V109.373H17.4562V109.222H17.3049V109.07H17.1537V108.919H17.0025V108.768H16.8512V108.617H16.7V108.465H16.5488V108.314H16.2463V108.163H16.0951V108.012H15.9438V107.861H15.7926V107.709H15.6414V107.558H15.4901V107.407H15.3389V107.256H15.1877V107.104H15.0364V106.953H14.8852V106.802H14.734V106.651H14.5827V106.499H14.4315V106.348H14.2803V106.046H14.129V105.895H13.9778V105.743H13.8266V105.592H13.6753V105.441H13.5241V105.29H13.3729V104.987H13.2216V104.836H13.0704V104.685H12.9192V104.533H12.7679V104.382H12.6167V104.08H12.4655V103.928H12.3142V103.777H12.163V103.626H12.0118V103.475H11.8605V103.172H11.7093V103.021H11.5581V102.719H11.4068V102.567H11.2556V102.265H11.1044V102.114H10.9531V101.811H10.8019V101.509H10.6507V101.358H10.4994V101.055H10.3482V100.904H10.197V100.601H10.0457V100.45H9.89451V100.148H9.74328V99.9964H9.59204V99.6939H9.44081V99.5427H9.28958V99.2402H9.13834V98.7865H8.98711V98.4841H8.83588V98.1816H8.68464V97.8791H8.53341V97.5767H8.38218V97.2742H8.23094V96.9717H8.07971V96.6693H7.92848V96.3668H7.77724V96.0643H7.62601V95.7619H7.47478V95.4594H7.32354V95.1569H7.17231V94.7032H7.02108V94.4008H6.86984V93.9471H6.71861V93.6446H6.56738V93.1909H6.41614V92.7372H6.26491V92.4347H6.11368V91.981H5.96244V91.3761H5.81121V90.9224H5.65998V90.4687H5.50874V89.8638H5.35751V89.1076H5.20628V88.3514H5.05504V87.7465H4.90381V86.9903H4.75258V85.7805H4.60134V84.4194H4.45011V82.907H4.29888V77.0089H4.45011V75.6479H4.60134V74.2868H4.75258V73.3793H4.90381V72.472H5.05504V71.867H5.20628V71.2621H5.35751V70.6572H5.50874V70.2034H5.65998V69.5985H5.81121V69.1448H5.96244V68.6911H6.11368V68.2374H6.26491V67.6325H6.41614V67.1788H6.56738V66.7251H6.71861V66.1201H6.86984V65.6665H7.02108V65.0615H7.17231V64.4566H7.32354V63.7004H7.47478V62.793H7.62601V59.6171H7.47478V59.0122H7.32354V58.7097H7.17231V58.256H7.02108V57.9535H6.86984V57.6511H6.71861V57.3486H6.56738V57.0462H6.41614V56.7437H6.26491V56.5924H6.11368V56.29H5.96244V55.9875H5.81121V55.8363H5.65998V55.5338H5.50874V55.2313H5.35751V55.0801H5.20628V54.7776H5.05504V54.6264H4.90381V54.3239H4.75258V54.0215H4.60134V53.8703H4.45011V53.5678H4.29888V53.4165H4.14764V53.1141H3.99641V52.8116H3.84518V52.5092H3.69394V52.0554H3.54271V51.753H3.39148V51.4505H3.24024V51.1481H3.08901V50.8456H2.93778V50.3919H2.78654V50.0894H2.63531V49.6357H2.48408V49.3332H2.33284V48.8796H2.18161V48.5771H2.03038V48.1234H1.87914V47.6697H1.72791V47.216H1.57668V46.7623H1.42544V46.3086H1.27421V45.7036H1.12298V45.0987H0.971743V44.4938H0.820509V43.8889H0.669276V43.1327H0.518043V42.074H0.36681V40.4105H0.215576V35.8735H0.36681V34.3611H0.518043V33.4537H0.669276V32.6976H0.820509V31.7902H0.971743V30.8828H1.12298V30.4291H1.27421V29.9754H1.42544V29.3704H1.57668V28.9168H1.72791V28.463H1.87914V28.0093H2.03038V27.5557H2.18161V27.2532H2.33284V26.7995H2.48408V26.497H2.63531V26.1946H2.78654V25.8921H2.93778V25.5896H3.08901V25.2872H3.24024V24.9847H3.39148V24.6822H3.54271V24.3797H3.69394V24.0773H3.84518V23.7748H3.99641V23.6236H4.14764V23.3211H4.29888V23.0187H4.45011V22.7162H4.60134V22.2625H4.75258V21.8088H4.90381V21.5063H5.05504V21.2039H5.20628V20.7501H5.35751V20.4477H5.50874V20.1452H5.65998V19.6915H5.81121V19.389H5.96244V19.0866H6.11368V18.7841H6.26491V18.6329H6.41614V18.3304H6.56738V18.028H6.71861V17.7255H6.86984V17.5743H7.02108V17.2718H7.17231V16.9693H7.32354V16.8181H7.47478V16.5156H7.62601V16.2132H7.77724V15.9107H7.92848V15.7594H8.07971V15.457H8.23094V15.3058H8.38218V15.1545H8.53341V15.0033H8.68464V14.7008H8.83588V14.5496H8.98711V14.3983H9.13834V14.2471H9.28958V14.0959H9.44081V13.7934H9.59204V13.6422H9.74328V13.4909H9.89451V13.3397H10.0457V13.0373H10.197V12.886H10.3482V12.7348H10.4994V12.5836H10.6507V12.4323H10.8019V12.2811H10.9531V12.1298H11.1044V11.9786H11.2556V11.8274H11.4068V11.6762H11.5581V11.5249H11.7093V11.3737H11.8605V11.2225H12.0118V11.0712H12.163V10.92H12.3142V10.7687H12.4655V10.6175H12.6167V10.4663H12.9192V10.3151H13.0704V10.1638H13.2216V10.0126H13.3729V9.86135H13.5241V9.71012H13.8266V9.55889H13.9778V9.40765H14.129V9.25642H14.4315V9.10518H14.5827V8.95395H14.8852V8.80272H15.0364V8.65149H15.1877V8.50025H15.4901V8.34902H15.6414V8.19778H15.9438V8.04655H16.0951V7.89532H16.2463V7.74408H16.5488V7.59285H16.8512V7.44162H17.0025V7.29039H17.3049V7.13915H17.4562V6.98792H17.7586V6.83668H17.9099V6.68545H18.2123V6.53421H18.3636V6.38298H18.666V6.23175H18.9685V6.08052H19.1197V5.92929H19.4222V5.77805H19.7247V5.62682H20.0271V5.47558H20.1784V5.32435H20.4808V5.17311H20.7833V5.02188H21.0858V4.87065H21.3882V4.71942H21.6907V4.56819H21.9932V4.41695H22.2956V4.26572H22.5981V4.11448H22.9006V3.96325H23.203V3.81202H23.5055V3.66079H23.808V3.50955H24.1104V3.35832H24.4129V3.20708H24.8666V3.05585H25.1691V2.90462H25.4715V2.75338H25.9252V2.60215H26.2277V2.45092H26.6814V2.29969H27.1351V2.14845H27.5888V1.99722H27.8913V1.84598H28.345V1.69475H28.7987V1.54351H29.2524V1.39228H29.8573V1.24105H30.4622V1.08982H31.0672V0.938587H31.6721V0.78735H32.277V0.63612H33.1844V0.484882H33.9406V0.333652H34.9992V0.182415H36.6628V0.0311852H40.7461V0.182415H41.956V0.333652H43.1658V0.484882H43.7708V0.63612H44.5269V0.78735H45.1319V0.938587H45.7368V1.08982H46.1905V1.24105H46.6442V1.39228H46.9467V1.54351H47.4004V1.69475H47.8541V1.84598H48.3078V1.99722H48.6102V2.14845H48.9127V2.29969H49.2152V2.45092H49.5176V2.60215H49.6689V2.75338H49.9713V2.90462H50.2738V3.05585H50.5763V3.20708H50.8787V3.35832H51.1812V3.50955H51.3324V3.66079H51.6349V3.81202H51.7861V3.96325H52.0886V4.11448H52.2398V4.26572H52.3911V4.41695H52.6935V4.56819H52.8448V4.71942H53.1472V4.87065H53.2985V5.02188H53.4497V5.17311H53.7522V5.32435H53.9034V5.47558H54.0546V5.62682H54.2059V5.77805H54.3571V5.92929H54.6596V6.08052H54.8108V6.23175H54.962V6.38298H55.1133V6.53421H55.2645V6.68545H55.4157V6.83668H55.567V6.98792H55.7182V7.13915H55.8694V7.29039H56.0207V7.44162H56.1719V7.59285H56.3231V7.74408H56.4744V7.89532H56.6256V8.04655H56.7768V8.19778H56.9281V8.50025H57.0793V8.65149H57.2305V8.80272H57.3818V8.95395H57.533V9.10518H57.6842V9.40765H57.8355V9.55889H57.9867V9.71012H58.1379V9.86135H58.2892V10.1638H58.4404V10.3151H58.5916V10.4663H58.7429V10.6175H58.8941V10.92H59.0453V11.0712H59.1966V11.3737H59.3478V11.5249H59.499V11.8274H59.6503V12.1298H59.8015V12.2811H59.9527V12.5836H60.104V12.7348H60.2552V13.0373H60.4064V13.3397H60.5577V13.4909H60.7089V13.7934H60.8601V13.9447H61.0114V14.2471H61.1626V14.5496H61.3138V14.7008H61.4651V15.0033H61.6163V15.3058H61.7675V15.6082H61.9188V15.9107H62.07V16.2132H62.2212V16.6669H62.3725V16.9693H62.5237V17.2718H62.6749V17.5743H62.8262V17.8767H62.9774V18.1792H63.1286V18.6329H63.2799V18.9354H63.4311V19.2378H63.5823V19.5403H63.7336V19.994H63.8848V20.4477H64.036V20.9014H64.1873V21.3551H64.3385V21.8088H64.4897V22.2625H64.641V22.7162H64.7922V23.3211H64.9434V23.7748H65.0947V24.2285H65.2459V24.8334H65.3971V25.4384H65.5484V26.1946H65.6996V26.9507H65.8508V27.5557H66.0021V28.3118H66.1533V29.068H66.3045V30.1266H66.4558V31.4877H66.607V32.6976H66.7582V34.0587H66.9095V41.4691H66.7582V43.4351H66.607V44.645H66.4558V45.5524H66.3045V46.4598H66.1533V47.216H66.0021V47.9721H65.8508V48.7283H65.6996V49.4845H65.5484V50.0894H65.3971V50.6943H65.2459V51.2993H65.0947V51.9042H64.9434V52.5092H64.7922V53.1141H64.641V53.5678H64.4897V54.1727H64.3385V54.7776H64.1873V55.3826H64.036V55.6851H63.8848V56.1387H63.7336V56.5924H63.5823V57.0462H63.4311V57.4999H63.2799V57.9535H63.1286V58.4072H62.9774V59.0122H62.8262V59.4659H62.6749V61.5831H62.8262V62.0368H62.9774V62.6418H63.1286V62.9442H63.2799V63.2467H63.4311V63.5492H63.5823V63.8517H63.7336V64.1541H63.8848V64.4566H64.036V64.759H64.1873V64.9103H64.3385V65.2127H64.4897V65.5152H64.641V65.6665H64.7922V65.9689H64.9434V66.1201H65.0947V66.2714H65.2459V66.5738H65.3971V66.7251H65.5484V67.0275H65.6996V67.1788H65.8508V67.33H66.0021V67.6325H66.1533V67.7837H66.3045V67.9349H66.4558V68.2374H66.607V68.3886H66.7582V68.5399H66.9095V68.8424H67.0607V68.9936H67.2119V69.2961H67.3632V69.4473H67.5144V69.5985H67.6656V69.901H67.8169V70.0522H67.9681V70.2034H68.1193V70.5059H68.2706V70.6572H68.4218V70.9596H68.573V71.1108H68.7243V71.4133H68.8755V71.5645H69.0267V71.867H69.178V72.1695H69.3292V72.472H69.4804V72.7744H69.6317V73.0769H69.7829V73.3793H69.9341V73.6818H70.0854V74.1355H70.2366V74.5892H70.3878V74.8917H70.5391V75.3454H70.6903V75.7991H70.8415V76.2528H70.9928V76.8577H71.144V77.3114H71.2952V77.9163H71.4465V78.5213H71.5977V79.2775H71.7489V80.0336H71.9002V81.0923H72.0514V82.4534H72.2026V87.8977H72.0514V89.4101H71.9002V90.3175H71.7489V91.2249H71.5977V91.981H71.4465V92.586H71.2952V93.3421H71.144V93.7958H70.9928V94.4008H70.8415V94.8545H70.6903V95.3082H70.5391V95.7619H70.3878V96.2156H70.2366V96.6693H70.0854V96.9717H69.9341V97.4254H69.7829V97.8791H69.6317V98.1816H69.4804V98.4841H69.3292V98.7865H69.178V99.089H69.0267V99.3915H68.8755V99.8452H68.7243V100.148H68.573V100.45H68.4218V100.601H68.2706V100.904H68.1193V101.206H67.9681V101.509H67.8169V101.811H67.6656V101.962H67.5144V102.265H67.3632V102.567H67.2119V102.719H67.0607V103.021H66.9095V103.172H66.7582V103.475H66.607V103.626H66.4558V103.928H66.3045V104.08H66.1533V104.382H66.0021V104.533H65.8508V104.685H65.6996V104.987H65.5484V105.138H65.3971V105.29H65.2459V105.592H65.0947V105.743H64.9434V105.895H64.7922V106.197H64.641V106.348H64.4897V106.499H64.3385V106.651H64.1873V106.802H64.036V106.953H63.8848V107.256H63.7336V107.407H63.5823V107.558H63.4311V107.709H63.2799V107.861H63.1286V108.012H62.9774V108.163H62.8262V108.314H62.6749V108.465H62.5237V108.617H62.3725V108.768H62.2212V108.919H62.07V109.07H61.9188V109.222H61.6163V109.373H61.4651V109.524H61.3138V109.675H61.1626V109.827H61.0114V109.978H60.8601V110.129H60.5577V110.28H60.4064V110.432H60.2552V110.583H60.104V110.734H59.9527V110.885H59.6503V111.036H59.499V111.188H59.1966V111.339H59.0453V111.49H58.7429V111.641H58.5916V111.793H58.2892V111.944H58.1379V112.095H57.8355V112.246H57.6842V112.398H57.3818V112.549H57.2305V112.7H56.9281V112.851H56.7768V113.002H56.4744V113.154H56.3231V113.305H56.0207V113.456H55.7182V113.607H55.4157V113.759H55.1133V113.91H54.8108V114.061H54.3571V114.212H54.0546V114.364H53.7522V114.515H53.4497V114.666H53.1472V114.817H52.8448V114.969H52.5423V115.12H52.0886V115.271H51.6349V115.422H51.1812V115.573H50.7275V115.725H50.2738V115.876H49.8201V116.027H49.3664V116.178H48.7615V116.33H48.3078V116.481H47.7028V116.632H46.7954V116.783H45.888V116.935H45.1319V117.086H44.2245V117.237H42.2584V117.388" fill="url(#paint0_linear_2_898)"/>
</g>
<defs>
<linearGradient id="paint0_linear_2_898" x1="28.4342" y1="22.5256" x2="49.7731" y2="129.057" gradientUnits="userSpaceOnUse">
<stop stop-color="#E4F752"/>
<stop offset="1" stop-color="#3B8537"/>
</linearGradient>
</defs>
</svg>
